<svg width="16" height="14" viewBox="0 0 16 14" fill="none" xmlns="http://www.w3.org/2000/svg">
<path d="M6.1836 12.8337V9.16331C6.1836 8.56501 6.66867 8.07998 7.26697 8.07998C7.7725 8.07998 8.22718 8.07998 8.7327 8.07998C9.33101 8.07998 9.81608 8.56501 9.81608 9.16331V12.8337M6.1836 12.8337H2.09706M6.1836 12.8337H7.99984H9.81608M2.09706 12.8337V6.16699M2.09706 12.8337H0.916504M13.9026 6.16699V12.8337M13.9026 12.8337H9.81608M13.9026 12.8337H15.0832" stroke="#657989" stroke-width="1.25" stroke-linecap="round" stroke-linejoin="round"/>
<path d="M11.5693 4.04225C11.5693 4.98739 10.7735 5.75033 9.78754 5.75033C8.80163 5.75033 8.00578 4.98739 8.00578 4.04225C8.00578 4.98739 7.20992 5.75033 6.22401 5.75033C5.2381 5.75033 4.44224 4.98739 4.44224 4.04225C4.44224 4.98739 3.64638 5.75033 2.66047 5.75033C1.90619 5.75033 1.26475 5.30623 1.00343 4.67424C0.872765 4.3554 0.896522 4.0024 1.02719 3.68356L1.69238 2.06658C1.91807 1.52569 2.46448 1.16699 3.07028 1.16699H12.9294C13.5411 1.16699 14.0875 1.52569 14.3073 2.06658L14.9725 3.68356C15.1032 4.0024 15.1269 4.3554 14.9962 4.67424C14.7349 5.30623 14.0935 5.75033 13.3392 5.75033C12.3533 5.75033 11.5574 4.98739 11.5574 4.04225H11.5693Z" stroke="#657989" stroke-width="1.25" stroke-linecap="round" stroke-linejoin="round"/>
</svg>
