<svg width="24" height="24" viewBox="0 0 24 24" fill="none" xmlns="http://www.w3.org/2000/svg">
<path d="M12.1409 4.87012C12.555 4.87012 12.8907 5.20607 12.8909 5.62012L12.8909 13.6572L16.3743 10.2432C16.6699 9.95352 17.1449 9.95883 17.4348 10.2539C17.7248 10.5497 17.7199 11.0255 17.4241 11.3154L12.8753 15.7734C12.3893 16.2496 11.6113 16.2496 11.1253 15.7734L6.57547 11.3154C6.27995 11.0255 6.27499 10.5497 6.56472 10.2539C6.85454 9.95817 7.33038 9.95355 7.62625 10.2432L11.3909 13.9326L11.3909 5.62012C11.3911 5.20616 11.7269 4.87026 12.1409 4.87012Z" fill="currentColor"/>
<rect x="17.5" y="17.6299" width="1.5" height="11" rx="0.75" transform="rotate(90 17.5 17.6299)" fill="currentColor"/>
</svg>
