<svg width="24" height="24" viewBox="0 0 24 24" fill="none" xmlns="http://www.w3.org/2000/svg">
<path d="M16.5381 3.7041C16.9237 3.7041 17.2289 3.86762 17.4805 4.05957C17.7083 4.2334 17.9545 4.48083 18.2236 4.75L18.2305 4.75586L18.2539 4.78027L19.2197 5.74609C19.5006 6.02698 19.7601 6.28319 19.9404 6.51953C20.1324 6.77113 20.2959 7.07633 20.2959 7.46191C20.2958 7.84725 20.1323 8.15183 19.9404 8.40332C19.7601 8.63966 19.5006 8.89685 19.2197 9.17773L10.4287 17.9688C10.2819 18.1156 10.1253 18.28 9.9248 18.3936C9.72434 18.507 9.50315 18.5561 9.30176 18.6064L5.87402 19.4639C5.73633 19.4983 5.55948 19.5438 5.4082 19.5586C5.24871 19.5742 4.9347 19.5753 4.67969 19.3203C4.42467 19.0653 4.42582 18.7513 4.44141 18.5918C4.4562 18.4405 4.50171 18.2637 4.53613 18.126L5.39355 14.6982C5.4439 14.4969 5.49304 14.2757 5.60645 14.0752C5.71996 13.8747 5.88441 13.7181 6.03125 13.5713L14.8223 4.78027C15.1032 4.49938 15.3603 4.23989 15.5967 4.05957C15.8482 3.86773 16.1528 3.70421 16.5381 3.7041Z" stroke="currentColor" stroke-width="1.32353"/>
<path d="M12.9414 5.76471L18.2355 11.0588" stroke="currentColor" stroke-width="1.32353"/>
</svg>
