<svg width="158" height="30" viewBox="0 0 158 30" fill="none" xmlns="http://www.w3.org/2000/svg">
<path d="M98.1763 1.20718C101.637 1.20718 103.859 3.17019 104.892 5.7531C106.003 8.46515 105.641 11.6421 102.877 13.6051C106.028 14.9482 107.191 17.8669 107.191 20.4757C107.191 24.6083 104.479 28.7926 99.1837 28.7926H86.7083V1.20718H98.1763ZM90.6343 12.1845H98.0989C102.438 12.1845 102.516 5.00405 98.1763 5.00405H90.6343V12.1845ZM90.6343 24.9441H99.1579C101.844 24.9441 103.187 22.697 103.187 20.5273C103.187 18.3577 101.844 16.1364 99.1579 16.1364H90.6343V24.9441Z" fill="#007CBA"/>
<path d="M133.381 5.00413C135.913 2.44705 139.451 0.819824 143.326 0.819824C147.226 0.819824 150.739 2.44705 153.321 5.00413C155.801 7.5612 157.428 11.074 157.428 15C157.428 18.926 155.801 22.4129 153.321 24.9958C150.764 27.6045 147.252 29.1801 143.326 29.1801C139.451 29.1801 135.913 27.6045 133.381 24.9958C130.902 22.4387 129.275 18.926 129.275 15C129.275 11.074 130.902 7.58703 133.381 5.00413ZM150.48 7.84532C148.621 5.98563 146.064 4.84916 143.326 4.84916C140.614 4.84916 138.082 5.98563 136.249 7.84532C134.44 9.65336 133.278 12.1846 133.278 15C133.278 17.7895 134.415 20.3208 136.249 22.1546C138.057 24.0143 140.588 25.1508 143.326 25.1508C146.038 25.1508 148.621 24.0143 150.48 22.1546C152.263 20.3466 153.399 17.8412 153.399 15C153.399 12.1588 152.263 9.67919 150.48 7.84532Z" fill="#007CBA"/>
<path d="M21.2573 21.1989C19.4751 23.6785 16.6597 25.0475 13.5086 25.0475C10.874 25.0475 8.4461 23.911 6.71555 22.0771C4.98501 20.2691 3.87436 17.8153 3.87436 15.0516C3.87436 12.2104 4.98501 9.75667 6.71555 7.94863C8.4461 6.1406 10.8482 4.97829 13.5086 4.97829C16.5822 4.97829 19.2685 6.19226 21.0507 8.56853H25.4416C23.272 3.9193 18.881 1.05228 13.5086 1.05228C9.76338 1.05228 6.35395 2.67951 3.95184 5.1591C1.57557 7.69034 0 11.1514 0 15.0774C0 18.9001 1.57557 22.3871 3.95184 24.9183C6.35395 27.4496 9.76338 29.0251 13.5086 29.0251C18.9585 29.0251 23.4011 25.9515 25.5966 21.2248H21.2573V21.1989Z" fill="#007CBA"/>
<path d="M72.0891 24.815V17.0146H84.5904V12.9853H72.0891V16.9888H68.0598V28.8185H84.9262V24.815H72.0891Z" fill="#007CBA"/>
<path d="M84.8746 5.21069V1.20718H68.0599V12.9852H72.0893V5.21069H84.8746Z" fill="#007CBA"/>
<path d="M44.917 12.9853H32.4158V17.0146H44.917V12.9853Z" fill="#007CBA"/>
<path d="M32.4156 12.9852V5.21069H45.2009V1.20718H28.3862V12.9852H32.4156Z" fill="#007CBA"/>
<path d="M32.4156 24.8149V17.0145H28.3862V28.8184H45.2526V24.8149H32.4156Z" fill="#007CBA"/>
<path d="M51.0124 8.95587H47.0605V28.8184H51.0124V8.95587Z" fill="#007CBA"/>
<path d="M58.9939 18.435C63.7206 17.6085 66.1485 13.8891 66.1485 9.98889C66.1485 5.59795 63.1523 1.18118 57.16 1.18118H47.0867V5.21051H51.0385H51.271H57.16C60.5178 5.21051 62.1708 7.61261 62.1708 9.98889C62.1708 12.391 60.5178 14.7931 57.16 14.7931H54.5513V19.1582L62.5583 28.7924H67.7241L58.9939 18.435Z" fill="#007CBA"/>
<path d="M112.692 8.98181H108.74V28.8443H112.692V8.98181Z" fill="#007CBA"/>
<path d="M120.674 18.4609C125.4 17.6344 127.828 13.915 127.828 10.0148C127.828 5.62389 124.832 1.20712 118.84 1.20712H108.766V5.23645H112.718H118.84C122.198 5.23645 123.851 7.63855 123.851 10.0148C123.851 12.4169 122.198 14.819 118.84 14.819H116.231V19.1841L124.238 28.8184H129.404L120.674 18.4609Z" fill="#007CBA"/>
<path d="M32.4154 12.9854H21.6447V17.0147H32.4154V12.9854Z" fill="#007CBA"/>
</svg>
