<svg width="100" height="40" viewBox="0 0 100 40" fill="none" xmlns="http://www.w3.org/2000/svg">
<path d="M10.7725 6.10673C10.7725 8.18321 9.08922 9.86653 7.01273 9.86653C4.93625 9.86653 3.25293 8.18321 3.25293 6.10673C3.25293 4.03025 4.93625 2.34692 7.01273 2.34692C9.08922 2.34692 10.7725 4.03025 10.7725 6.10673Z" fill="#007CBA"/>
<path d="M2 11.657H10.5938V30.277H4.68557V14.1635L2 11.657Z" fill="#007CBA"/>
<path d="M11.8471 11.657L19.7248 30.277H24.5588L32.7946 11.657H28.4977L22.9475 23.6525L17.5763 11.657H11.8471Z" fill="#007CBA"/>
<path d="M34.764 30.277V11.657H50.6984V15.5958H39.7771V18.4604H50.6984V22.5783H39.7771V26.1591H50.6984V30.277H34.764Z" fill="#007CBA"/>
<path fill-rule="evenodd" clip-rule="evenodd" d="M53.2049 11.657V30.277H67.528C70.8899 30.277 73.6153 27.5516 73.6153 24.1897V17.7443C73.6153 14.3824 70.8899 11.657 67.528 11.657H53.2049ZM58.3971 25.6219V16.3119H64.8424C66.82 16.3119 68.4232 17.9151 68.4232 19.8927V22.0411C68.4232 24.0187 66.82 25.6219 64.8424 25.6219H58.3971Z" fill="#007CBA"/>
<path fill-rule="evenodd" clip-rule="evenodd" d="M89.0126 11.657L99.3968 30.277H92.9274L92.9513 30.347C92.9378 30.3238 92.924 30.3005 92.9099 30.277H92.7724L92.2012 29.2408C90.419 26.9125 86.8488 23.8592 81.5735 22.6613L77.3751 30.277H72.7201L77.4508 22.1544C76.4558 22.1299 75.4158 22.1714 74.3313 22.2903C75.5533 21.2839 76.9662 20.7075 78.4501 20.4387L82.2091 13.9845L79.8816 11.657H89.0126ZM82.8159 20.4075L85.0737 16.312L88.1514 21.8947C86.6142 21.2578 84.7515 20.6762 82.8159 20.4075Z" fill="#007CBA"/>
</svg>
