<svg width="87" height="35" viewBox="0 0 87 35" fill="none" xmlns="http://www.w3.org/2000/svg">
<path fill-rule="evenodd" clip-rule="evenodd" d="M4.47794 16.7139C6.33277 16.7139 7.8364 15.211 7.8364 13.357C7.8364 11.503 6.33277 10 4.47794 10C2.62312 10 1.11949 11.503 1.11949 13.357C1.11949 15.211 2.62312 16.7139 4.47794 16.7139ZM7.67647 18.3125H0L2.3989 20.5505V34.9375H7.67647V18.3125ZM15.8327 34.9375L8.79596 18.3125H13.9136L18.7114 29.0228L23.6691 18.3125H27.5074L20.1507 34.9375H15.8327ZM29.2665 18.3125V34.9375H43.5V31.2608H33.7445V28.0637H43.5V24.7959H33.7445V21.8293H43.5V18.3125H29.2665ZM45.739 34.9375V18.3125H58.5331C61.5361 18.3125 63.9706 20.7459 63.9706 23.7476V29.5024C63.9706 32.5041 61.5361 34.9375 58.5331 34.9375H45.739ZM87 34.9375L77.7243 18.3125H69.568L71.6471 20.3906L68.2893 26.1533C66.9639 26.3933 65.7018 26.908 64.6103 27.8065C65.579 27.7004 66.5079 27.6633 67.3967 27.6852L63.171 34.9375H67.329L71.0792 28.1378C75.7912 29.2072 78.9802 31.9331 80.5723 34.0119L81.0827 34.9375H81.2057C81.2182 34.9584 81.2305 34.9793 81.2426 35L81.2213 34.9375H87ZM74.2059 22.4687L72.1891 26.1255C73.918 26.3654 75.5819 26.8846 76.955 27.4532L74.2059 22.4687ZM50.2169 21.5096V31.7404H55.9743C57.7408 31.7404 59.1728 30.309 59.1728 28.5432V24.7067C59.1728 22.941 57.7408 21.5096 55.9743 21.5096H50.2169Z" fill="currentColor"/>
<path d="M21.727 7.895C21.976 7.895 22.195 7.862 22.384 7.796C22.576 7.73 22.7365 7.6385 22.8655 7.5215C22.9975 7.4015 23.0965 7.259 23.1625 7.094C23.2285 6.929 23.2615 6.7475 23.2615 6.5495C23.2615 6.1385 23.134 5.8175 22.879 5.5865C22.627 5.3555 22.243 5.24 21.727 5.24H20.692V7.895H21.727ZM21.727 4.5515C22.135 4.5515 22.489 4.5995 22.789 4.6955C23.092 4.7885 23.3425 4.922 23.5405 5.096C23.7385 5.27 23.8855 5.48 23.9815 5.726C24.0805 5.972 24.13 6.2465 24.13 6.5495C24.13 6.8495 24.0775 7.124 23.9725 7.373C23.8675 7.622 23.713 7.8365 23.509 8.0165C23.308 8.1965 23.0575 8.3375 22.7575 8.4395C22.4605 8.5385 22.117 8.588 21.727 8.588H20.692V11H19.8235V4.5515H21.727ZM31.1868 7.778C31.1868 8.261 31.1103 8.705 30.9573 9.11C30.8043 9.512 30.5883 9.8585 30.3093 10.1495C30.0303 10.4405 29.6943 10.667 29.3013 10.829C28.9113 10.988 28.4793 11.0675 28.0053 11.0675C27.5313 11.0675 27.0993 10.988 26.7093 10.829C26.3193 10.667 25.9848 10.4405 25.7058 10.1495C25.4268 9.8585 25.2108 9.512 25.0578 9.11C24.9048 8.705 24.8283 8.261 24.8283 7.778C24.8283 7.295 24.9048 6.8525 25.0578 6.4505C25.2108 6.0455 25.4268 5.6975 25.7058 5.4065C25.9848 5.1125 26.3193 4.8845 26.7093 4.7225C27.0993 4.5605 27.5313 4.4795 28.0053 4.4795C28.4793 4.4795 28.9113 4.5605 29.3013 4.7225C29.6943 4.8845 30.0303 5.1125 30.3093 5.4065C30.5883 5.6975 30.8043 6.0455 30.9573 6.4505C31.1103 6.8525 31.1868 7.295 31.1868 7.778ZM30.2913 7.778C30.2913 7.382 30.2373 7.0265 30.1293 6.7115C30.0213 6.3965 29.8683 6.131 29.6703 5.915C29.4723 5.696 29.2323 5.528 28.9503 5.411C28.6683 5.294 28.3533 5.2355 28.0053 5.2355C27.6603 5.2355 27.3468 5.294 27.0648 5.411C26.7828 5.528 26.5413 5.696 26.3403 5.915C26.1423 6.131 25.9893 6.3965 25.8813 6.7115C25.7733 7.0265 25.7193 7.382 25.7193 7.778C25.7193 8.174 25.7733 8.5295 25.8813 8.8445C25.9893 9.1565 26.1423 9.422 26.3403 9.641C26.5413 9.857 26.7828 10.0235 27.0648 10.1405C27.3468 10.2545 27.6603 10.3115 28.0053 10.3115C28.3533 10.3115 28.6683 10.2545 28.9503 10.1405C29.2323 10.0235 29.4723 9.857 29.6703 9.641C29.8683 9.422 30.0213 9.1565 30.1293 8.8445C30.2373 8.5295 30.2913 8.174 30.2913 7.778ZM40.6956 4.5515L38.6841 11H37.9011L36.2676 6.0815C36.2526 6.0335 36.2376 5.9825 36.2226 5.9285C36.2106 5.8745 36.1971 5.8175 36.1821 5.7575C36.1671 5.8175 36.1521 5.8745 36.1371 5.9285C36.1221 5.9825 36.1071 6.0335 36.0921 6.0815L34.4496 11H33.6666L31.6551 4.5515H32.3796C32.4576 4.5515 32.5221 4.571 32.5731 4.61C32.6271 4.649 32.6616 4.6985 32.6766 4.7585L34.0086 9.2405C34.0296 9.3215 34.0491 9.4085 34.0671 9.5015C34.0881 9.5945 34.1076 9.6935 34.1256 9.7985C34.1466 9.6935 34.1676 9.5945 34.1886 9.5015C34.2126 9.4055 34.2381 9.3185 34.2651 9.2405L35.7816 4.7585C35.7996 4.7075 35.8341 4.661 35.8851 4.619C35.9391 4.574 36.0036 4.5515 36.0786 4.5515H36.3306C36.4086 4.5515 36.4716 4.571 36.5196 4.61C36.5676 4.649 36.6036 4.6985 36.6276 4.7585L38.1396 9.2405C38.1666 9.3185 38.1906 9.4025 38.2116 9.4925C38.2356 9.5825 38.2581 9.677 38.2791 9.776C38.2941 9.677 38.3106 9.5825 38.3286 9.4925C38.3466 9.4025 38.3661 9.3185 38.3871 9.2405L39.7236 4.7585C39.7386 4.7045 39.7716 4.6565 39.8226 4.6145C39.8766 4.5725 39.9411 4.5515 40.0161 4.5515H40.6956ZM45.6335 10.289L45.629 11H41.6555V4.5515H45.629V5.2625H42.5285V7.4045H45.0395V8.0885H42.5285V10.289H45.6335ZM48.6364 7.6745C48.8884 7.6745 49.1104 7.6445 49.3024 7.5845C49.4974 7.5215 49.6594 7.4345 49.7884 7.3235C49.9204 7.2095 50.0194 7.0745 50.0854 6.9185C50.1514 6.7625 50.1844 6.59 50.1844 6.401C50.1844 6.017 50.0584 5.7275 49.8064 5.5325C49.5544 5.3375 49.1764 5.24 48.6724 5.24H47.7184V7.6745H48.6364ZM51.6154 11H50.8414C50.6824 11 50.5654 10.9385 50.4904 10.8155L48.8164 8.5115C48.7654 8.4395 48.7099 8.3885 48.6499 8.3585C48.5929 8.3255 48.5029 8.309 48.3799 8.309H47.7184V11H46.8499V4.5515H48.6724C49.0804 4.5515 49.4329 4.5935 49.7299 4.6775C50.0269 4.7585 50.2714 4.877 50.4634 5.033C50.6584 5.189 50.8024 5.378 50.8954 5.6C50.9884 5.819 51.0349 6.065 51.0349 6.338C51.0349 6.566 50.9989 6.779 50.9269 6.977C50.8549 7.175 50.7499 7.3535 50.6119 7.5125C50.4769 7.6685 50.3104 7.802 50.1124 7.913C49.9174 8.024 49.6954 8.108 49.4464 8.165C49.5574 8.228 49.6534 8.3195 49.7344 8.4395L51.6154 11ZM56.4704 10.289L56.4659 11H52.4924V4.5515H56.4659V5.2625H53.3654V7.4045H55.8764V8.0885H53.3654V10.289H56.4704ZM63.2758 7.778C63.2758 8.261 63.1993 8.7005 63.0463 9.0965C62.8933 9.4925 62.6773 9.8315 62.3983 10.1135C62.1193 10.3955 61.7833 10.6145 61.3903 10.7705C61.0003 10.9235 60.5683 11 60.0943 11H57.6868V4.5515H60.0943C60.5683 4.5515 61.0003 4.6295 61.3903 4.7855C61.7833 4.9385 62.1193 5.1575 62.3983 5.4425C62.6773 5.7245 62.8933 6.0635 63.0463 6.4595C63.1993 6.8555 63.2758 7.295 63.2758 7.778ZM62.3803 7.778C62.3803 7.382 62.3263 7.028 62.2183 6.716C62.1103 6.404 61.9573 6.14 61.7593 5.924C61.5613 5.708 61.3213 5.543 61.0393 5.429C60.7573 5.315 60.4423 5.258 60.0943 5.258H58.5598V10.2935H60.0943C60.4423 10.2935 60.7573 10.2365 61.0393 10.1225C61.3213 10.0085 61.5613 9.845 61.7593 9.632C61.9573 9.416 62.1103 9.152 62.2183 8.84C62.3263 8.528 62.3803 8.174 62.3803 7.778ZM69.0997 10.307C69.3487 10.307 69.5632 10.2785 69.7432 10.2215C69.9232 10.1645 70.0702 10.085 70.1842 9.983C70.3012 9.878 70.3867 9.755 70.4407 9.614C70.4947 9.47 70.5217 9.3125 70.5217 9.1415C70.5217 8.8085 70.4032 8.546 70.1662 8.354C69.9292 8.159 69.5737 8.0615 69.0997 8.0615H67.7047V10.307H69.0997ZM67.7047 5.24V7.4405H68.8567C69.1027 7.4405 69.3157 7.4135 69.4957 7.3595C69.6787 7.3055 69.8287 7.2305 69.9457 7.1345C70.0657 7.0385 70.1542 6.923 70.2112 6.788C70.2682 6.65 70.2967 6.5 70.2967 6.338C70.2967 5.957 70.1827 5.6795 69.9547 5.5055C69.7267 5.3285 69.3727 5.24 68.8927 5.24H67.7047ZM68.8927 4.5515C69.2887 4.5515 69.6292 4.5905 69.9142 4.6685C70.2022 4.7465 70.4377 4.8575 70.6207 5.0015C70.8067 5.1455 70.9432 5.3225 71.0302 5.5325C71.1172 5.7395 71.1607 5.9735 71.1607 6.2345C71.1607 6.3935 71.1352 6.5465 71.0842 6.6935C71.0362 6.8375 70.9627 6.9725 70.8637 7.0985C70.7647 7.2245 70.6387 7.3385 70.4857 7.4405C70.3357 7.5395 70.1587 7.6205 69.9547 7.6835C70.4287 7.7735 70.7842 7.943 71.0212 8.192C71.2612 8.438 71.3812 8.762 71.3812 9.164C71.3812 9.437 71.3302 9.686 71.2282 9.911C71.1292 10.136 70.9822 10.3295 70.7872 10.4915C70.5952 10.6535 70.3582 10.7795 70.0762 10.8695C69.7942 10.9565 69.4732 11 69.1132 11H66.8362V4.5515H68.8927ZM74.8646 8.4305V11H73.9916V8.4305L71.6291 4.5515H72.3941C72.4721 4.5515 72.5336 4.571 72.5786 4.61C72.6236 4.646 72.6626 4.694 72.6956 4.754L74.1716 7.2605C74.2256 7.3655 74.2751 7.4645 74.3201 7.5575C74.3651 7.6475 74.4041 7.739 74.4371 7.832C74.4701 7.739 74.5076 7.6475 74.5496 7.5575C74.5916 7.4645 74.6381 7.3655 74.6891 7.2605L76.1606 4.754C76.1876 4.703 76.2251 4.6565 76.2731 4.6145C76.3211 4.5725 76.3826 4.5515 76.4576 4.5515H77.2271L74.8646 8.4305Z" fill="currentColor"/>
</svg>
