<svg xmlns="http://www.w3.org/2000/svg" width="24" height="24" fill="currentColor" viewBox="0 0 24 24">
  <path d="M17 18.5h-4a1 1 0 0 1-1-1v-11a1 1 0 0 1 1-1h4a6 6 0 0 1 6 6v1a6 6 0 0 1-6 6Zm-3-2h3a4 4 0 0 0 4-4v-1a4 4 0 0 0-4-4h-3v9Zm-5 2H2.05a1 1 0 0 1-1-.82 4.18 4.18 0 0 1 .66-3.13 4.89 4.89 0 0 1 2.58-1.9C5.9 12 8 11.07 8 9.67a2 2 0 0 0-.55-1.32 2.88 2.88 0 0 0-1.58-.82 3.08 3.08 0 0 0-1.81.29A2.22 2.22 0 0 0 3 9a1 1 0 0 1-1.86-.73 4.24 4.24 0 0 1 2-2.2 5 5 0 0 1 3-.47A4.78 4.78 0 0 1 8.88 7 3.92 3.92 0 0 1 10 9.66c0 2.75-3 4-4.92 4.83h-.13a2.84 2.84 0 0 0-1.56 1.13 2.34 2.34 0 0 0-.39.88h6a1 1 0 0 1 0 2Z"/>
</svg>
