<svg xmlns="http://www.w3.org/2000/svg" width="24" height="24" fill="currentColor" viewBox="0 0 24 24">
  <path fill-rule="evenodd" d="M1.292 7.6A3.5 3.5 0 0 1 4.5 5.5h1.75A3.75 3.75 0 0 1 8.8 12a3.75 3.75 0 0 1-2.55 6.5H4.5a3.5 3.5 0 0 1-3.208-2.1 1 1 0 0 1 1.833-.8 1.5 1.5 0 0 0 1.375.9h1.75a1.75 1.75 0 1 0 0-3.5H5a1 1 0 1 1 0-2h1.25a1.75 1.75 0 1 0 0-3.5H4.5a1.5 1.5 0 0 0-1.375.9 1 1 0 1 1-1.833-.8ZM12 6.5a1 1 0 0 1 1-1h4a6 6 0 0 1 6 6v1a6 6 0 0 1-6 6h-4a1 1 0 0 1-1-1v-11Zm2 1v9h3a4 4 0 0 0 4-4v-1a4 4 0 0 0-4-4h-3Z" clip-rule="evenodd"/>
</svg>
