<svg xmlns="http://www.w3.org/2000/svg" width="24" height="24" fill="currentColor" viewBox="0 0 24 24">
  <path fill-rule="evenodd" d="M5.747 2.342a1 1 0 0 1 1.2-.236l2.67 1.334 3.64-.91a1 1 0 0 1 .518.009l3.5 1a1 1 0 0 1 .557.406l1.905 2.858L21.6 8.2a1 1 0 0 1 .336 1.151l-1.4 3.733.445 2.22c.012.064.019.13.019.196V19a1 1 0 0 1-.375.78l-2.5 2a1 1 0 0 1-.625.22h-4a1 1 0 0 1-.8-.4l-1.364-1.819-4-2.095a1 1 0 0 1-.534-.946l.16-2.641-3.41-1.704a1 1 0 0 1-.528-.678l-1-4.5a1 1 0 0 1 .223-.875l3.5-4Z" clip-rule="evenodd"/>
</svg>
