<svg xmlns="http://www.w3.org/2000/svg" width="24" height="24" fill="currentColor" viewBox="0 0 24 24">
  <path d="M14 16.45a1 1 0 0 1-.53-.15A3.23 3.23 0 0 1 12 13.55v-5.1A3.46 3.46 0 0 1 15.45 5h1.1A3.46 3.46 0 0 1 20 8.45V11a1 1 0 0 1-2 0V8.45A1.45 1.45 0 0 0 16.55 7h-1.1A1.45 1.45 0 0 0 14 8.45v5.1a1.18 1.18 0 0 0 .53 1 1 1 0 0 1-.53 1.9Zm-4-2.95a1 1 0 1 0-2 0A1.45 1.45 0 0 1 6.6 15H5.4A1.45 1.45 0 0 1 4 13.5v-5A1.45 1.45 0 0 1 5.4 7h1.2A1.45 1.45 0 0 1 8 8.5a1 1 0 0 0 2 0A3.46 3.46 0 0 0 6.6 5H5.4A3.46 3.46 0 0 0 2 8.5v5A3.46 3.46 0 0 0 5.4 17h1.2a3.46 3.46 0 0 0 3.4-3.5ZM22 21a1 1 0 0 0-1-1h-2.85c.13-.28.38-.41.8-.61C20.09 18.86 22 18 22 16a3 3 0 0 0-.73-1.95 3.13 3.13 0 0 0-1.82-1 3.08 3.08 0 0 0-2 .36A3 3 0 0 0 16.06 15a1.002 1.002 0 0 0 .985 1.394 1 1 0 0 0 .895-.724 1 1 0 0 1 .45-.54 1.1 1.1 0 0 1 .73-.12 1 1 0 0 1 .64.35.92.92 0 0 1 .24.64c0 .64-.86 1.09-1.93 1.6A3.21 3.21 0 0 0 16 21a1 1 0 0 0 1 1h4a1 1 0 0 0 1-1Z"/>
</svg>
