<svg xmlns="http://www.w3.org/2000/svg" width="24" height="24" fill="currentColor" viewBox="0 0 24 24">
  <path d="M22 23h-3.5a1 1 0 0 1-1-1 2.9 2.9 0 0 1 1.89-3c.69-.32 1.61-.74 1.61-1.23a.68.68 0 0 0-.17-.45.87.87 0 0 0-1.06-.16.76.76 0 0 0-.33.38.999.999 0 1 1-1.88-.68 2.71 2.71 0 0 1 1.24-1.45 2.94 2.94 0 0 1 1.86-.41c.64.1 1.227.418 1.66.9.445.5.688 1.15.68 1.82 0 1.77-1.72 2.56-2.75 3a3.15 3.15 0 0 0-.46.24H22a1 1 0 1 1 0 2V23Zm-6-4v-4a3 3 0 0 0-3-3h-1a3 3 0 0 0-3 3v4a3 3 0 0 0 3 3h1a3 3 0 0 0 3-3Zm-3-5a1 1 0 0 1 1 1v4a1 1 0 0 1-1 1h-1a1 1 0 0 1-1-1v-4a1 1 0 0 1 1-1h1Zm-5 5a1 1 0 1 0-2 0 1 1 0 0 1-1 1H4a1 1 0 0 1-1-1v-4a1 1 0 0 1 1-1h1a1 1 0 0 1 1 1 1 1 0 1 0 2 0 3 3 0 0 0-3-3H4a3 3 0 0 0-3 3v4a3 3 0 0 0 3 3h1a3 3 0 0 0 3-3Zm12.2-6c.268.006.535.026.8.06.48.088.944.243 1.38.46a.191.191 0 0 0 .27-.1 5.5 5.5 0 0 0-3.9-7.28 7 7 0 0 0-13.5 0 5.49 5.49 0 0 0-4.15 4.4.21.21 0 0 0 .32.2A4.83 4.83 0 0 1 4 10h1a5 5 0 0 1 3.37 1.31.19.19 0 0 0 .26 0A5 5 0 0 1 12 10h1a5 5 0 0 1 4.74 3.41.17.17 0 0 0 .26.11 5 5 0 0 1 2.2-.52Z"/>
</svg>
