<svg xmlns="http://www.w3.org/2000/svg" width="24" height="24" fill="currentColor" viewBox="0 0 24 24">
  <path fill-rule="evenodd" d="M4.57 2h4.57a2 2 0 0 1 .77.2 2 2 0 0 1 .87.87c.118.24.186.502.2.77v5.3a1.87 1.87 0 0 1-.2.77 2 2 0 0 1-.87.87 1.87 1.87 0 0 1-.77.2H3.86a1.87 1.87 0 0 1-.77-.2 2 2 0 0 1-.87-.87A1.87 1.87 0 0 1 2 9.14V3.86a2 2 0 0 1 .2-.77 2 2 0 0 1 .87-.87A2 2 0 0 1 3.86 2h.71Zm12.34.14a1.29 1.29 0 0 1 1.18 0c.224.124.413.303.55.52.07.12.14.27.21.4l2.82 5.55c.07.13.14.28.2.41.088.219.13.454.12.69a1.42 1.42 0 0 1-.5.95 1.3 1.3 0 0 1-.73.29 3.23 3.23 0 0 1-.44 0h-5.65c-.146.01-.293.01-.44 0a1.3 1.3 0 0 1-.73-.29 1.38 1.38 0 0 1-.5-.92 1.5 1.5 0 0 1 .11-.69c.06-.13.13-.28.2-.41l2.81-5.52a3.11 3.11 0 0 1 .22-.4 1.4 1.4 0 0 1 .54-.52l.03-.06ZM15.57 13h4.57c.267.014.53.082.77.2a2 2 0 0 1 .87.87c.118.24.186.502.2.77v5.28c-.01.268-.079.53-.2.77a2 2 0 0 1-.87.87 1.87 1.87 0 0 1-.77.2h-5.28a1.91 1.91 0 0 1-.77-.2 2 2 0 0 1-.87-.87 1.871 1.871 0 0 1-.2-.77v-5.26a2 2 0 0 1 .2-.77 2 2 0 0 1 .87-.87c.24-.118.502-.186.77-.2h.71V13ZM2 17.5A4.5 4.5 0 1 1 6.5 22 4.49 4.49 0 0 1 2 17.5Z" clip-rule="evenodd"/>
</svg>
