<svg xmlns="http://www.w3.org/2000/svg" width="24" height="24" fill="currentColor" viewBox="0 0 24 24">
  <path d="M6.2 7.4c-.4-.1-.8-.1-1.1 0-.2.1-.4.2-.6.4-.1.1-.3.2-.4.4l-2.2 2.2-.4.4c-.1.1-.3.4-.4.6-.1.4-.1.8 0 1.1.1.3.2.5.4.6l.4.4 2.2 2.2.4.4c.2.1.4.3.6.4.4.1.8.1 1.1 0 .3-.1.5-.2.6-.4.2 0 .3-.1.5-.3l2.2-2.2.4-.4c.1-.2.3-.4.4-.6.1-.4.1-.8 0-1.1-.1-.2-.2-.4-.4-.6l-.4-.4-2.2-2.3c-.1-.2-.3-.3-.4-.4-.2-.2-.4-.3-.7-.4Zm6.4-6.3c-.4-.1-.8-.1-1.1 0-.3.1-.5.2-.6.4l-.4.4-2.3 2.2c-.2.1-.3.3-.4.4-.2.2-.3.4-.4.6-.1.4-.1.8 0 1.1.1.3.2.5.4.6.1.2.2.3.4.5l2.2 2.2.4.4c.1.1.4.3.6.4.4.1.8.1 1.1 0 .2-.1.4-.2.6-.4l.4-.4 2.2-2.2c.3-.2.4-.3.5-.4.1-.2.3-.4.4-.6.1-.4.1-.8 0-1.1-.1-.2-.2-.4-.4-.6l-.4-.4L13.6 2l-.4-.4c-.2-.3-.4-.4-.6-.5Zm6.3 6.3c-.4-.1-.8-.1-1.1 0-.3.1-.5.2-.6.4-.2.1-.4.2-.5.4l-2.2 2.2-.4.4c-.1.1-.3.4-.4.6-.1.4-.1.8 0 1.1.1.3.2.5.4.6l.4.4 2.2 2.2.4.4c.1.1.4.3.6.4.4.1.8.1 1.1 0 .2-.1.4-.2.6-.4l.4-.4 2.2-2.2.4-.4c.1-.2.3-.4.4-.6.1-.4.1-.8 0-1.1-.1-.2-.2-.4-.4-.6l-.4-.4-2.2-2.2-.4-.4c-.1-.2-.3-.3-.5-.4Zm-6.3 6.3c-.4-.1-.8-.1-1.1 0-.3.1-.5.2-.6.4l-.4.4-2.2 2.2c-.3.1-.4.3-.5.4-.1.2-.3.4-.4.6-.1.4-.1.8 0 1.1.1.3.2.5.4.6l.4.4 2.2 2.2.4.4c.1.1.4.3.6.4.4.1.8.1 1.1 0 .3-.1.5-.2.6-.4l.4-.4 2.2-2.2.4-.4c.2-.2.3-.4.4-.6.1-.4.1-.8 0-1.1-.1-.2-.2-.4-.4-.6l-.4-.4-2.2-2.2-.4-.4c-.1-.2-.3-.3-.5-.4Z"/>
</svg>
