<svg xmlns="http://www.w3.org/2000/svg" width="24" height="24" fill="currentColor" viewBox="0 0 24 24">
  <path d="M21.5 10h-5a6.49 6.49 0 0 0-5.24 10.33l-1 1a1.001 1.001 0 0 0 0 1.42c.099.093.214.168.34.22a1 1 0 0 0 1.09-.22l1-1A6.49 6.49 0 0 0 23 16.5v-5a1.5 1.5 0 0 0-1.5-1.5Zm-.34-2.14a1 1 0 0 1-1.36-.36 9.1 9.1 0 0 0-4.57-3.88c-.08 1.24.35 3.19-.69 4.15-1.04.96-3.06 1.44-4.4 2L9.26 11a3.145 3.145 0 0 1-.24.3 1.48 1.48 0 0 1-1.9.3l-.32-.22L3.52 9a9 9 0 0 0 4 10.8 1 1 0 0 1-1 1.73 4.767 4.767 0 0 1-1.06-.7 11.389 11.389 0 0 1-2.34-2.33A11 11 0 1 1 21.46 6.39l.07.11a1 1 0 0 1-.37 1.36Z"/>
</svg>
