<svg xmlns="http://www.w3.org/2000/svg" width="24" height="24" fill="currentColor" viewBox="0 0 24 24">
  <path fill-rule="evenodd" d="M12 22a9.96 9.96 0 0 1-6.329-2.257l-1.964 1.964a1 1 0 0 1-1.414-1.414l1.964-1.964A9.958 9.958 0 0 1 2 12C2 6.477 6.477 2 12 2h7.432c.252 0 .498 0 .706.017.229.019.499.063.77.201a2 2 0 0 1 .874.874c.138.271.182.541.201.77.017.208.017.454.017.706V12c0 5.523-4.477 10-10 10Zm1.964-13.203a1 1 0 1 0-1.494-1.33l-3.197 3.59a1 1 0 0 0 .607 1.655l2.111.297-1.955 2.194a1 1 0 0 0 1.494 1.33l3.197-3.59a1 1 0 0 0-.607-1.655l-2.111-.296 1.955-2.195Z" clip-rule="evenodd"/>
</svg>
