<svg xmlns="http://www.w3.org/2000/svg" width="24" height="24" fill="currentColor" viewBox="0 0 24 24">
  <path d="M18.61 3a1.66 1.66 0 0 1 .91.07.58.58 0 0 1 .27.5v3.5a6.14 6.14 0 0 0 .75 2.77 9.54 9.54 0 0 1 .46 4.65V16c0 1.46 1.14 2.36 1.93 3.67a.58.58 0 0 1 0 .53.599.599 0 0 1-.41.35L14.31 23a.59.59 0 0 1-.64-.25l-.41-.61a3.24 3.24 0 0 0-1-1L8.87 19H14a3 3 0 0 0 3-3V7a5.638 5.638 0 0 1 0-.65s.28-2.97 1.61-3.35ZM16 3v13a2 2 0 0 1-2 2H8a2.07 2.07 0 0 1-2-1.54 2.05 2.05 0 0 0 1.7-2 2 2 0 0 0-.44-1.25 2 2 0 0 0 1-1.75A1.94 1.94 0 0 0 8 10.44a2 2 0 0 0 0-3.88c.2-.317.305-.685.3-1.06a2 2 0 0 0-2-2H6v-1C6 1.6 7.07 1 8 1h6a2 2 0 0 1 2 2Zm-3.75 11a1.25 1.25 0 1 0-2.5 0 1.25 1.25 0 0 0 2.5 0Zm-6.55-.5a1 1 0 0 1 0 2H4a1 1 0 0 1 0-2h1.7Zm-1.7-1a1 1 0 0 1 0-2h2.3a1 1 0 0 1 0 2H4Zm0-3a1 1 0 0 1 0-2h3.5a1 1 0 0 1 0 2H4Zm-1-4a1 1 0 0 1 1-1h2.3a1 1 0 0 1 0 2H4a1 1 0 0 1-1-1Z"/>
</svg>
