<svg xmlns="http://www.w3.org/2000/svg" width="24" height="24" fill="currentColor" viewBox="0 0 24 24">
  <path fill-rule="evenodd" d="M12 1.001a1 1 0 0 1 1 1v2a1 1 0 1 1-2 0v-2a1 1 0 0 1 1-1ZM19.587 3.898a1 1 0 0 1 .124 1.409l-.964 1.149a1 1 0 1 1-1.533-1.286l.965-1.149a1 1 0 0 1 1.409-.123ZM4.41 3.898a1 1 0 0 1 1.409.123l.964 1.15a1 1 0 0 1-1.532 1.285l-.964-1.15a1 1 0 0 1 .123-1.408ZM4.998 13a7 7 0 1 1 14 0v6.001h1.004a1 1 0 0 1 0 2h-16a1 1 0 1 1 0-2h.996V13Zm8.454-2.247a1 1 0 0 1 .081 1.412l-.823.925.709.1a1 1 0 0 1 .607 1.655l-2.066 2.32a1 1 0 0 1-1.493-1.33l.823-.925-.709-.1a1 1 0 0 1-.608-1.655l2.067-2.32a1 1 0 0 1 1.412-.082Z" clip-rule="evenodd"/>
</svg>
