<svg xmlns="http://www.w3.org/2000/svg" width="24" height="24" fill="currentColor" viewBox="0 0 24 24">
  <path fill-rule="evenodd" d="M7.759 2H8a1 1 0 1 1 0 2h-.2c-.857 0-1.439 0-1.889.038-.438.035-.663.1-.819.18a2 2 0 0 0-.874.874c-.08.156-.145.38-.18.819C4 6.361 4 6.943 4 7.8V8a1 1 0 1 1-2 0v-.241c0-.805 0-1.47.044-2.01.046-.563.145-1.08.392-1.565a4 4 0 0 1 1.748-1.748c.485-.247 1.002-.346 1.564-.392C6.29 2 6.954 2 7.758 2ZM3 15a1 1 0 0 1 1 1v.2c0 .857 0 1.439.038 1.889.035.438.1.663.18.819a2 2 0 0 0 .874.874c.156.08.38.145.819.18C6.361 20 6.943 20 7.8 20H8a1 1 0 1 1 0 2h-.241c-.805 0-1.47 0-2.01-.044-.563-.046-1.08-.145-1.565-.392a4 4 0 0 1-1.748-1.748c-.247-.485-.346-1.002-.392-1.564C2 17.71 2 17.046 2 16.242V16a1 1 0 0 1 1-1ZM18.089 4.038C17.639 4 17.057 4 16.2 4H16a1 1 0 1 1 0-2H16.241c.805 0 1.47 0 2.01.044.563.046 1.08.145 1.565.392a4 4 0 0 1 1.748 1.748c.247.485.346 1.002.392 1.564C22 6.29 22 6.954 22 7.758V8a1 1 0 1 1-2 0v-.2c0-.857 0-1.439-.038-1.889-.035-.438-.1-.663-.18-.819a2 2 0 0 0-.874-.874c-.156-.08-.38-.145-.819-.18ZM21 15a1 1 0 0 1 1 1v.241c0 .805 0 1.47-.044 2.01-.046.563-.145 1.08-.392 1.565a4 4 0 0 1-1.748 1.748c-.485.247-1.002.346-1.564.392-.541.044-1.206.044-2.01.044H16a1 1 0 1 1 0-2h.2c.857 0 1.439 0 1.889-.038.438-.035.663-.1.819-.18a2 2 0 0 0 .874-.874c.08-.156.145-.38.18-.819.037-.45.038-1.032.038-1.889V16a1 1 0 0 1 1-1ZM11.586 6.086a2 2 0 1 1 2.828 2.828 2 2 0 0 1-2.828-2.828Z" clip-rule="evenodd"/>
  <path d="M12.276 10.545a2.528 2.528 0 0 0-1.567-.009c-.672.197-1.542.469-2.318.767-.39.15-.775.313-1.105.485-.3.157-.663.373-.916.66a1.304 1.304 0 0 0-.264.489 2.24 2.24 0 0 0-.07.333 5.136 5.136 0 0 0-.043.582c-.004.18-.002.351 0 .475l.008.213A1 1 0 1 0 8 14.438l-.006-.16a8.089 8.089 0 0 1 .01-.599c.05-.031.118-.07.206-.116.237-.124.545-.257.9-.393a25.499 25.499 0 0 1 1.528-.523l-1.128 4.605a1 1 0 0 0 1.942.476l1.008-4.114c.328.449.723.92 1.183 1.349.826.77 1.94 1.47 3.31 1.536a1 1 0 0 0 .096-1.998c-.72-.034-1.406-.409-2.043-1.001-.63-.588-1.13-1.336-1.481-1.904-.352-.569-.782-.89-1.248-1.051Z"/>
</svg>
