<svg xmlns="http://www.w3.org/2000/svg" width="24" height="24" fill="currentColor" viewBox="0 0 24 24">
  <path fill-rule="evenodd" d="M21 19.5a2.5 2.5 0 1 1-5 0 2.5 2.5 0 0 1 5 0ZM8 19.5a2.5 2.5 0 1 1-5 0 2.5 2.5 0 0 1 5 0Z" clip-rule="evenodd"/>
  <path d="M4.936 4.184a4 4 0 0 1 1.748-1.748c.485-.247 1.002-.346 1.564-.392C8.79 2 9.454 2 10.258 2h.738c.673 0 1.181 0 1.668.123.43.109.838.289 1.21.532.419.275.763.65 1.217 1.146l2.883 3.146.053.058c.412.448.72.783.946 1.178a4 4 0 0 1 .428 1.1v.001c.1.439.1.89.099 1.487v.729a.5.5 0 0 1-.5.5h-3.5a4 4 0 0 1-3.2-1.6A6 6 0 0 0 7.5 8H5.01a.5.5 0 0 1-.5-.51l.034-1.742c.046-.562.145-1.079.392-1.564ZM12.817 13.367A6.001 6.001 0 0 0 15.5 14H19a.5.5 0 0 1 .5.5v1.126a4 4 0 0 0-5 3.874h-5a4 4 0 0 0-5-3.874V10.5A.5.5 0 0 1 5 10h2.5a4 4 0 0 1 3.2 1.6 6 6 0 0 0 2.117 1.767Z"/>
</svg>
