<svg xmlns="http://www.w3.org/2000/svg" width="24" height="24" fill="currentColor" viewBox="0 0 24 24">
  <path d="M9.25 4.25A1.25 1.25 0 0 1 10.5 3h3a1.25 1.25 0 0 1 1.25 1.25v3A1.25 1.25 0 0 1 13.5 8.5H13V11h4.75a3 3 0 0 1 3 3v1.5h.5a1.25 1.25 0 0 1 1.25 1.25v3A1.25 1.25 0 0 1 21.25 21h-3A1.25 1.25 0 0 1 17 19.75v-3a1.25 1.25 0 0 1 1.25-1.25h.5V14a1 1 0 0 0-1-1H13v2.5h.5a1.25 1.25 0 0 1 1.25 1.25v3A1.25 1.25 0 0 1 13.5 21h-3a1.25 1.25 0 0 1-1.25-1.25v-3a1.25 1.25 0 0 1 1.25-1.25h.5V13H6.25a1 1 0 0 0-1 1v1.5h.5A1.25 1.25 0 0 1 7 16.75v3A1.25 1.25 0 0 1 5.75 21h-3a1.25 1.25 0 0 1-1.25-1.25v-3a1.25 1.25 0 0 1 1.25-1.25h.5V14a3 3 0 0 1 3-3H11V8.5h-.5a1.25 1.25 0 0 1-1.25-1.25v-3Z"/>
</svg>
