<svg xmlns="http://www.w3.org/2000/svg" width="24" height="24" fill="currentColor" viewBox="0 0 24 24">
  <path d="M6 22H3.6a1.57 1.57 0 0 1-1.22-.38A1.57 1.57 0 0 1 2 20.4v-.9a3.84 3.84 0 0 1 0-.73A2.2 2.2 0 0 1 3.77 17c.243-.023.487-.023.73 0h.35a.19.19 0 0 0 .15-.16v-.34a3.129 3.129 0 0 0 0-.35.19.19 0 0 0-.16-.15H3a1 1 0 0 1 0-2h1.5c.243-.023.487-.023.73 0A2.2 2.2 0 0 1 7 15.77a3.84 3.84 0 0 1 0 .73 3.84 3.84 0 0 1 0 .73A2.23 2.23 0 0 1 5.23 19a3.837 3.837 0 0 1-.73 0 1.75 1.75 0 0 0-.35 0 .19.19 0 0 0-.15.15V20h2a1 1 0 0 1 0 2Zm15-3H10a1 1 0 0 1 0-2h11a1 1 0 0 1 0 2Zm0-6H10a1 1 0 0 1 0-2h11a1 1 0 0 1 0 2ZM6 10H3a1 1 0 0 1 0-2h.5V4H3a1 1 0 0 1 0-2h1.2a1.3 1.3 0 0 1 1.3 1.3V8H6a1 1 0 0 1 0 2Zm15-3H10a1 1 0 0 1 0-2h11a1 1 0 1 1 0 2Z"/>
</svg>
