<svg xmlns="http://www.w3.org/2000/svg" width="24" height="24" fill="currentColor" viewBox="0 0 24 24">
  <path d="M18.5 13a4.5 4.5 0 1 1-3.45 7.39 1 1 0 0 1 .77-1.64 1.001 1.001 0 0 1 .76.36 2.529 2.529 0 0 0 3.074.617 2.5 2.5 0 1 0-2.714-4.167 1 1 0 0 1-.34 1.94h-2a1 1 0 0 1-1-1v-2a1 1 0 0 1 1.93-.37 4.51 4.51 0 0 1 3-1.13m-6.4 1.72A2.78 2.78 0 0 1 14.88 12c.323.002.644.056.95.16A6 6 0 0 1 23 13.49a2.638 2.638 0 0 0 0-.49V7a3 3 0 0 0-3-3H4a3 3 0 0 0-3 3v6a3 3 0 0 0 3 3h8.1l.03-1.28Zm4.9-6A1.25 1.25 0 1 1 15.75 10 1.25 1.25 0 0 1 17 8.75l.03-.03ZM7 11.25a1.25 1.25 0 1 1 0-2.5 1.25 1.25 0 0 1 0 2.5ZM10.75 10a1.25 1.25 0 1 1 2.5 0 1.25 1.25 0 0 1-2.5 0Z"/>
</svg>
