<svg xmlns="http://www.w3.org/2000/svg" width="24" height="24" fill="currentColor" viewBox="0 0 24 24">
  <path fill-rule="evenodd" d="M9 2a1 1 0 0 1 1 1v3h4V3a1 1 0 1 1 2 0v3h.932c.252 0 .498 0 .706.017.229.019.498.063.77.201a2 2 0 0 1 .874.874c.138.271.182.541.201.77.017.208.017.454.017.706V10.7c0 .79 0 1.338-.116 1.868-.103.469-.272.92-.504 1.341-.262.476-.622.888-1.143 1.482l-.068.078-1.52 1.738c-.08.09-.118.134-.145.168l-.002.003v.003A6.14 6.14 0 0 0 16 17.6v1.83c0 .253 0 .5-.017.707a2.02 2.02 0 0 1-.201.77 2 2 0 0 1-.874.874 2.023 2.023 0 0 1-.77.201c-.208.017-.454.017-.706.017h-2.864c-.252 0-.498 0-.706-.017a2.022 2.022 0 0 1-.77-.201 2 2 0 0 1-.874-.874 2.022 2.022 0 0 1-.201-.77C8 19.93 8 19.684 8 19.432v-1.83c0-.12 0-.18-.002-.222v-.003l-.002-.003a6.048 6.048 0 0 0-.144-.168L6.33 15.468a55.804 55.804 0 0 1-.068-.078c-.52-.594-.881-1.006-1.143-1.482a5 5 0 0 1-.504-1.341c-.116-.53-.116-1.078-.116-1.868V8.568c0-.252 0-.498.017-.706.019-.229.063-.499.201-.77a2 2 0 0 1 .874-.874c.271-.138.541-.182.77-.201C6.57 6 6.816 6 7.068 6H8V3a1 1 0 0 1 1-1Z" clip-rule="evenodd"/>
</svg>
