<svg xmlns="http://www.w3.org/2000/svg" width="24" height="24" fill="currentColor" viewBox="0 0 24 24">
  <path d="M21 8h-2.5a.5.5 0 0 1-.5-.5v-2A1.5 1.5 0 0 0 16.5 4h-9A1.5 1.5 0 0 0 6 5.5v2a.5.5 0 0 1-.5.5H3a2 2 0 0 0-2 2v8a2 2 0 0 0 2 2h18a2 2 0 0 0 2-2v-8a2 2 0 0 0-2-2ZM8.25 14.25a1 1 0 0 1-1 1h-.5a1 1 0 0 1-1-1v-.5a1 1 0 0 1 1-1h.5a1 1 0 0 1 1 1v.5Zm5 0a1 1 0 0 1-1 1h-.5a1 1 0 0 1-1-1v-.5a1 1 0 0 1 1-1h.5a1 1 0 0 1 1 1v.5Zm5 0a1 1 0 0 1-1 1h-.5a1 1 0 0 1-1-1v-.5a1 1 0 0 1 1-1h.5a1 1 0 0 1 1 1v.5Z"/>
</svg>
