<svg xmlns="http://www.w3.org/2000/svg" width="24" height="24" fill="currentColor" viewBox="0 0 24 24">
  <path d="M5 2.5c0-.6.4-1 1-1h12c.6 0 1 .4 1 1s-.4 1-1 1h-5v1.1l.1.1 2.8 2.8c.6.6.6 1.5 0 2.1L14.5 11c-.4.4-1 .4-1.4 0-.4-.4-.4-1 0-1.4l1.1-1.1L12 6.4 9.9 8.5 11 9.6c.4.4.4 1 0 1.4-.4.4-1 .4-1.4 0L8.1 9.6c-.6-.6-.6-1.5 0-2.1l2.8-2.8.1-.1V3.5H6c-.6 0-1-.4-1-1Zm-4 15c0-2.8 2.2-5 5-5h12c2.8 0 5 2.2 5 5s-2.2 5-5 5H6c-2.8 0-5-2.2-5-5Zm6-1.3c-.7 0-1.2.6-1.2 1.2s.6 1.2 1.2 1.2 1.2-.6 1.2-1.2-.5-1.2-1.2-1.2Zm5 0c-.7 0-1.2.6-1.2 1.2s.6 1.2 1.2 1.2 1.2-.6 1.2-1.2-.5-1.2-1.2-1.2Zm5 0c-.7 0-1.2.6-1.2 1.2s.6 1.2 1.2 1.2 1.2-.6 1.2-1.2-.5-1.2-1.2-1.2Z"/>
</svg>
