<svg xmlns="http://www.w3.org/2000/svg" width="24" height="24" fill="currentColor" viewBox="0 0 24 24">
  <path d="M13.1 21H4.76a4.182 4.182 0 0 1-1.57-.4 4 4 0 0 1-1.74-1.74A4.18 4.18 0 0 1 1 17.25V8.76a1.69 1.69 0 0 1 0-.47.51.51 0 0 1 .61-.29c.141.051.273.126.39.22l4.67 3.11c.226.162.467.303.72.42.215.093.44.16.67.2.274.043.552.06.83.05h4a3 3 0 0 0-1.35 2.5v2a3 3 0 0 0 1.38 2.5c-.05.166-.08.337-.09.51A3 3 0 0 0 13.1 21Zm5.4-10a6.49 6.49 0 0 1 4.5 1.82V8.76a1.69 1.69 0 0 0 0-.47.51.51 0 0 0-.61-.29 1.37 1.37 0 0 0-.41.24l-4.25 2.83c.255-.038.512-.062.77-.07Zm-2.25-1.37c-.146.108-.3.205-.46.29a.79.79 0 0 1-.22.06A2.4 2.4 0 0 1 15 10H9c-.18.02-.36.02-.54 0a.79.79 0 0 1-.22-.06 3.599 3.599 0 0 1-.46-.29L1.91 5.73a.91.91 0 0 1-.35-.29.52.52 0 0 1-.06-.3.72.72 0 0 1 .17-.36 4 4 0 0 1 1.51-1.34A4.18 4.18 0 0 1 4.75 3h14.49a4.18 4.18 0 0 1 1.57.4c.61.31 1.13.772 1.51 1.34a.72.72 0 0 1 .17.36.519.519 0 0 1-.06.3 1 1 0 0 1-.35.3l-5.83 3.93ZM23 17.5a4.489 4.489 0 0 0-7.47-3.37 1 1 0 0 0-1.93.37v2a1 1 0 0 0 1 1h2a1 1 0 0 0 .34-1.94A2.5 2.5 0 1 1 18.5 20a2.53 2.53 0 0 1-1.92-.89 1 1 0 0 0-1.646.173 1.001 1.001 0 0 0 .116 1.107 4.5 4.5 0 0 0 8-2.89H23Z"/>
</svg>
