<svg xmlns="http://www.w3.org/2000/svg" width="24" height="24" fill="currentColor" viewBox="0 0 24 24">
  <path fill-rule="evenodd" d="M1 6.5A4.5 4.5 0 0 1 5.5 2h13a4.5 4.5 0 1 1 0 9h-13A4.5 4.5 0 0 1 1 6.5Zm5-1.25a1.25 1.25 0 1 0 0 2.5 1.25 1.25 0 0 0 0-2.5ZM5.5 13a4.5 4.5 0 1 0 0 9h8.67a3 3 0 0 1 .709-3.121l.378-.379-.378-.379A3 3 0 0 1 16.999 13H5.5Zm-.75 4.5a1.25 1.25 0 1 1 2.5 0 1.25 1.25 0 0 1-2.5 0Z" clip-rule="evenodd"/>
  <path d="M17.707 15.293a1 1 0 0 0-1.414 1.414l1.793 1.793-1.793 1.793a1 1 0 0 0 1.414 1.414l1.793-1.793 1.793 1.793a1 1 0 0 0 1.414-1.414L20.914 18.5l1.793-1.793a1 1 0 0 0-1.414-1.414L19.5 17.086l-1.793-1.793Z"/>
</svg>
