<svg xmlns="http://www.w3.org/2000/svg" width="24" height="24" fill="none" viewBox="0 0 24 24">
  <path d="M12 23a1 1 0 0 1-1-1v-1c-4.51-.16-9-1.42-9-4 0-.77.42-1.78 2.2-2.63a2 2 0 0 1-.2-.87c0-1.35 1.33-2.42 3.76-3a.998.998 0 0 1 1.124 1.494 1 1 0 0 1-.644.446c-1.72.43-2.21 1-2.24 1.1-.03.1.14.2.34.33.088.03.17.078.24.14 1.39.63 2.894.966 4.42.99V9.87a4 4 0 1 1 2 0V15a11.001 11.001 0 0 0 4.39-1 .999.999 0 0 1 .25-.15c.213-.14.333-.26.36-.36 0-.09-.52-.63-2.24-1.06a1 1 0 1 1 .45-1.95c2.43.6 3.76 1.68 3.76 3a2 2 0 0 1-.2.87c1.78.85 2.2 1.86 2.2 2.63 0 2.56-4.49 3.82-9 4v1A1 1 0 0 1 12 23Zm1-6v2c4.6-.17 7-1.5 7-2 0-.09-.34-.62-1.87-1.14A13.771 13.771 0 0 1 13 17Zm-7.13-1.15C4.34 16.38 4 16.91 4 17c0 .48 2.4 1.81 7 2v-2a13.572 13.572 0 0 1-5.13-1.15Z" fill="currentColor"/>
</svg>
