<svg width="20" height="18" viewBox="0 0 20 18" fill="none" xmlns="http://www.w3.org/2000/svg">
<path d="M11.5439 0.952637C13.0147 0.952637 14.207 2.14499 14.207 3.61572V13.4634L15.0098 13.6313C15.5195 13.7381 15.8846 14.1878 15.8848 14.7085V15.9468C15.8845 16.5544 15.3919 17.0473 14.7842 17.0474H2.06543C1.4958 17.0471 1.02715 16.6139 0.970703 16.0591L0.964844 15.9468V14.7085L0.96875 14.6118C1.01075 14.1339 1.36111 13.7317 1.83984 13.6313L2.64258 13.4634V3.61572C2.64258 2.14499 3.83494 0.952644 5.30566 0.952637H11.5439ZM6.37988 4.12158C6.18619 4.12158 6.0293 4.27945 6.0293 4.47314V7.271C6.0293 7.46469 6.18619 7.62158 6.37988 7.62158H10.4707C10.6644 7.62158 10.8213 7.46469 10.8213 7.271V4.47314C10.8213 4.27945 10.6644 4.12158 10.4707 4.12158H6.37988Z" fill="#00AAF3"/>
<path d="M13.9365 5.99509L15.8803 7.86818V11.8084C15.8803 12.3966 16.3571 12.8734 16.9453 12.8734V12.8734C17.5336 12.8734 18.0104 12.3966 18.0104 11.8084V6.46336V4.74014L15.8536 3.65372" stroke="#00AAF3" stroke-width="1.5" stroke-linecap="round" stroke-linejoin="round"/>
<path d="M16.9693 4.13581C17.039 4.09659 17.1657 4.07672 17.3535 4.16232C17.5401 4.24743 17.7457 4.42304 17.8998 4.68371C18.0538 4.94437 18.1066 5.20617 18.0888 5.40662C18.0708 5.60833 17.9898 5.70563 17.9202 5.74499C17.8505 5.78428 17.7239 5.80416 17.5359 5.71849C17.3493 5.63339 17.1438 5.45786 16.9897 5.19709C16.8356 4.9363 16.7827 4.67466 16.8006 4.47418C16.8187 4.27229 16.8996 4.1751 16.9693 4.13581Z" stroke="#00AAF3" stroke-width="0.956498"/>
</svg>
