<svg xmlns="http://www.w3.org/2000/svg" width="24" height="24" fill="currentColor" viewBox="0 0 24 24">
  <path fill-rule="evenodd" d="M6.7 5.484A13.35 13.35 0 0 1 21.73 8.595a1 1 0 1 1-1.458 1.37 11.35 11.35 0 0 0-16.542 0 1 1 0 1 1-1.458-1.37 13.35 13.35 0 0 1 4.43-3.11Zm2.052 5.25A7.762 7.762 0 0 1 17.9 12.74a1 1 0 1 1-1.52 1.3 5.763 5.763 0 0 0-8.76 0 1 1 0 1 1-1.52-1.3 7.763 7.763 0 0 1 2.652-2.006Zm1.947 5.725a1.84 1.84 0 1 1 2.602 2.603 1.84 1.84 0 0 1-2.602-2.603Z" clip-rule="evenodd"/>
</svg>
