<svg xmlns="http://www.w3.org/2000/svg" width="24" height="24" fill="currentColor" viewBox="0 0 24 24">
  <path fill-rule="evenodd" d="M3.4 3.2a1 1 0 0 1 1.4.2L6.892 6.19c.04.044.076.093.109.145L16.8 19.4a1 1 0 0 1-1.6 1.2l-1.534-2.046a1.854 1.854 0 0 1-.958.921 1.85 1.85 0 1 1-1.002-3.533l-2.429-3.24a5.71 5.71 0 0 0-1.655 1.336 1 1 0 0 1-1.524-1.296 7.71 7.71 0 0 1 1.969-1.653L5.882 8.177A11.37 11.37 0 0 0 3.73 9.965a1 1 0 1 1-1.458-1.37A13.37 13.37 0 0 1 4.68 6.573L3.2 4.6a1 1 0 0 1 .2-1.4Zm8.44 14.56h.3v.008l-.3.004v-.012Zm.154-13.37h.005a13.32 13.32 0 0 1 9.73 4.206 1 1 0 1 1-1.458 1.368 11.321 11.321 0 0 0-8.267-3.574 11.76 11.76 0 0 0-1.841.157 1 1 0 0 1-.326-1.974 13.76 13.76 0 0 1 2.157-.183Zm1.057 6.614a1 1 0 0 1 1.265-.633c.311.104.613.227.9.355l.011.005a7.71 7.71 0 0 1 2.655 2.011 1 1 0 1 1-1.524 1.296 5.71 5.71 0 0 0-1.96-1.487 8.088 8.088 0 0 0-.714-.282 1 1 0 0 1-.633-1.265Z" clip-rule="evenodd"/>
</svg>
