<svg xmlns="http://www.w3.org/2000/svg" width="24" height="24" fill="currentColor" viewBox="0 0 24 24">
  <path fill-rule="evenodd" d="M1 3.5C1 2.7 1.7 2 2.5 2h3C6.3 2 7 2.7 7 3.5v3C7 7.3 6.3 8 5.5 8h-3C1.7 8 1 7.3 1 6.5v-3Zm16 0c0-.8.7-1.5 1.5-1.5h3c.8 0 1.5.7 1.5 1.5v3c0 .8-.7 1.5-1.5 1.5h-3c-.8 0-1.5-.7-1.5-1.5v-3ZM8 5c0-.6.4-1 1-1s1 .4 1 1-.4 1-1 1-1-.4-1-1Zm3 0c0-.6.4-1 1-1s1 .4 1 1-.4 1-1 1-1-.4-1-1Zm3 0c0-.6.4-1 1-1s1 .4 1 1-.4 1-1 1-1-.4-1-1ZM3 10.5c0-.6.4-1 1-1s1 .4 1 1-.4 1-1 1-1-.4-1-1Zm16 0c0-.6.4-1 1-1s1 .4 1 1-.4 1-1 1-1-.4-1-1Zm-16 3c0-.6.4-1 1-1s1 .4 1 1-.4 1-1 1-1-.4-1-1Zm16 0c0-.6.4-1 1-1s1 .4 1 1-.4 1-1 1-1-.4-1-1Zm-18 4c0-.8.7-1.5 1.5-1.5h3c.8 0 1.5.7 1.5 1.5v3c0 .8-.7 1.5-1.5 1.5h-3c-.8 0-1.5-.7-1.5-1.5v-3Zm16 0c0-.8.7-1.5 1.5-1.5h3c.8 0 1.5.7 1.5 1.5v3c0 .8-.7 1.5-1.5 1.5h-3c-.8 0-1.5-.7-1.5-1.5v-3ZM8 19c0-.6.4-1 1-1s1 .4 1 1-.4 1-1 1-1-.4-1-1Zm3 0c0-.6.4-1 1-1s1 .4 1 1-.4 1-1 1-1-.4-1-1Zm3 0c0-.6.4-1 1-1s1 .4 1 1-.4 1-1 1-1-.4-1-1Z" clip-rule="evenodd"/>
</svg>
