<svg width="24" height="24" viewBox="0 0 24 24" fill="none" xmlns="http://www.w3.org/2000/svg">
<g clip-path="url(#clip0_4115_21837)">
<path d="M15.1758 3.78061C16.2473 3.78061 17.116 4.64957 17.1162 5.72104V17.5189L18.0947 17.7308C18.3993 17.7966 18.617 18.0657 18.6172 18.3773V19.9837C18.6171 20.3492 18.3206 20.6458 17.9551 20.6458H4.35449C3.98898 20.6458 3.69248 20.3492 3.69238 19.9837V18.3773C3.69259 18.066 3.90991 17.7966 4.21484 17.7308L5.19141 17.5199V5.72104C5.19161 4.64985 6.0607 3.78106 7.13184 3.78061H15.1758ZM7.13184 5.16147C6.82286 5.16192 6.57246 5.412 6.57227 5.72104V17.3812H15.7363V5.72104C15.7361 5.41173 15.4851 5.16147 15.1758 5.16147H7.13184Z" fill="#00AAF3"/>
<path d="M17.8843 6.5748L20.1438 7.74672V9.60555V15.4043C20.1438 16.0205 19.6442 16.5201 19.028 16.5201V16.5201C18.4117 16.5201 17.9122 16.0205 17.9122 15.4043V11.1209L16.4404 9.60555" stroke="#00AAF3" stroke-width="1.25" stroke-linecap="round" stroke-linejoin="round"/>
<mask id="path-3-inside-1_4115_21837" fill="white">
<ellipse cx="0.81961" cy="1.34496" rx="0.81961" ry="1.34496" transform="matrix(0.864728 -0.502241 0.497763 0.867313 18.0522 7.47229)"/>
</mask>
<ellipse cx="0.81961" cy="1.34496" rx="0.81961" ry="1.34496" transform="matrix(0.864728 -0.502241 0.497763 0.867313 18.0522 7.47229)" fill="#00AAF3"/>
<path d="M20.1392 7.81551L18.4097 8.81999C18.4425 8.877 18.4066 8.85539 18.4101 8.716C18.4125 8.61784 18.4672 8.02908 19.1044 7.65902L20.0999 9.39364L21.0954 11.1283C22.124 10.5309 22.3832 9.47516 22.3999 8.80582C22.4176 8.09525 22.2057 7.39825 21.8686 6.81102L20.1392 7.81551ZM20.0999 9.39364L19.1044 7.65902C19.7416 7.28895 20.2757 7.53568 20.3615 7.58263C20.4832 7.6493 20.4839 7.69132 20.4512 7.63431L18.7217 8.63879L16.9923 9.64327C17.3293 10.2305 17.8234 10.7636 18.4439 11.1035C19.0284 11.4236 20.0669 11.7257 21.0954 11.1283L20.0999 9.39364ZM18.7217 8.63879L20.4512 7.63431C20.4185 7.5773 20.4543 7.5989 20.4508 7.73829C20.4484 7.83646 20.3937 8.42521 19.7565 8.79528L18.761 7.06065L17.7655 5.32602C16.7369 5.92343 16.4777 6.97913 16.461 7.64847C16.4433 8.35904 16.6552 9.05604 16.9923 9.64327L18.7217 8.63879ZM18.761 7.06065L19.7565 8.79528C19.1194 9.16534 18.5852 8.91862 18.4994 8.87166C18.3777 8.80499 18.377 8.76298 18.4097 8.81999L20.1392 7.81551L21.8686 6.81102C21.5316 6.22379 21.0376 5.69068 20.417 5.3508C19.8325 5.03064 18.794 4.72861 17.7655 5.32602L18.761 7.06065Z" fill="#00AAF3" mask="url(#path-3-inside-1_4115_21837)"/>
</g>
<defs>
<clipPath id="clip0_4115_21837">
<rect width="18" height="18" fill="white" transform="translate(3 3)"/>
</clipPath>
</defs>
</svg>
