<svg width="66" height="64" viewBox="0 0 66 64" fill="none" xmlns="http://www.w3.org/2000/svg">
<rect y="4" width="60" height="60" rx="8" fill="#F4AB00" fill-opacity="0.2"/>
<rect x="42" width="24" height="24" rx="12" fill="#F4AB00"/>
<path d="M52.1143 8.506V6.28H55.9923V16.5H53.5003V8.506H52.1143Z" fill="white"/>
<g filter="url(#filter0_d_6024_2478)">
<rect x="50" y="14" width="40" height="40" rx="8" transform="rotate(90 50 14)" fill="#F4AB00" shape-rendering="crispEdges"/>
<rect x="48.5" y="15.5" width="37" height="37" rx="6.5" transform="rotate(90 48.5 15.5)" stroke="white" stroke-width="3" shape-rendering="crispEdges"/>
<path d="M35 40V33.999C35 31.2376 32.7614 29 30 29C27.2386 29 25 31.2376 25 33.999V40H35Z" fill="white" stroke="white" stroke-width="1.5"/>
<path d="M30 32V34.5" stroke="#F4AB00" stroke-width="1.5" stroke-linecap="round"/>
<path d="M30 37V37.5" stroke="#F4AB00" stroke-width="1.5" stroke-linecap="round"/>
<path d="M30 24V26.5" stroke="white" stroke-width="1.5" stroke-linecap="round"/>
<path d="M37.1211 27L35.3533 28.7678" stroke="white" stroke-width="1.5" stroke-linecap="round"/>
<path d="M22.8789 27L24.6467 28.7678" stroke="white" stroke-width="1.5" stroke-linecap="round"/>
<path d="M40 34L37.5 34" stroke="white" stroke-width="1.5" stroke-linecap="round"/>
<path d="M20 34L22.5 34" stroke="white" stroke-width="1.5" stroke-linecap="round"/>
<path d="M36 39C37.6569 39 39 40.3431 39 42V43C39 43.5523 38.5523 44 38 44H22C21.4477 44 21 43.5523 21 43V42C21 40.3431 22.3431 39 24 39H36Z" fill="white"/>
</g>
<defs>
<filter id="filter0_d_6024_2478" x="6" y="10" width="48" height="48" filterUnits="userSpaceOnUse" color-interpolation-filters="sRGB">
<feFlood flood-opacity="0" result="BackgroundImageFix"/>
<feColorMatrix in="SourceAlpha" type="matrix" values="0 0 0 0 0 0 0 0 0 0 0 0 0 0 0 0 0 0 127 0" result="hardAlpha"/>
<feOffset/>
<feGaussianBlur stdDeviation="2"/>
<feComposite in2="hardAlpha" operator="out"/>
<feColorMatrix type="matrix" values="0 0 0 0 0 0 0 0 0 0 0 0 0 0 0 0 0 0 0.12 0"/>
<feBlend mode="normal" in2="BackgroundImageFix" result="effect1_dropShadow_6024_2478"/>
<feBlend mode="normal" in="SourceGraphic" in2="effect1_dropShadow_6024_2478" result="shape"/>
</filter>
</defs>
</svg>
