<svg xmlns="http://www.w3.org/2000/svg" width="144" height="144" viewBox="0 0 144 144">
  <path d="M41.743,63.626l-17.6-52.4a6,6,0,0,1,5.391-7.9L72.117,1.215,114.668,3.3a6,6,0,0,1,5.265,8.251l-21.3,52.421a6,6,0,0,1-5.559,3.742H47.431A6,6,0,0,1,41.743,63.626Z" fill="#ffd12b"/>
  <g opacity="0.5">
    <path d="M22.3,9.724,1.752,135.749a6,6,0,0,0,5.922,6.966H136.639a6,6,0,0,0,5.932-6.9L123.394,9.341a6,6,0,0,0-5.962-5.1l-89.24.448A6,6,0,0,0,22.3,9.724Z" fill="#fedf72"/>
  </g>
  <g opacity="0.8">
    <path d="M41.743,63.626l-17.6-52.4a6,6,0,0,1,5.391-7.9L72.117,1.215,114.668,3.3a6,6,0,0,1,5.265,8.251l-21.3,52.421a6,6,0,0,1-5.559,3.742H47.431A6,6,0,0,1,41.743,63.626Z" fill="#fff"/>
  </g>
  <path d="M41.743,63.626l-17.6-52.4a6,6,0,0,1,5.391-7.9L72.117,1.215,114.668,3.3a6,6,0,0,1,5.265,8.251l-21.3,52.421a6,6,0,0,1-5.559,3.742H47.431A6,6,0,0,1,41.743,63.626Z" fill="#fff"/>
</svg>
