<svg width="24" height="24" viewBox="0 0 24 24" fill="none" xmlns="http://www.w3.org/2000/svg">
<path d="M17 18V11.999C17 9.23756 14.7614 7 12 7C9.23858 7 7 9.23756 7 11.999V18H17Z" fill="#00AAF3" stroke="#00AAF3" stroke-width="1.5"/>
<path d="M12 10V13" stroke="white" stroke-width="1.5"/>
<path d="M12 2V5" stroke="#00AAF3" stroke-width="1.5"/>
<path d="M19.1211 5L16.9998 7.12132" stroke="#00AAF3" stroke-width="1.5"/>
<path d="M4.87891 5L7.00023 7.12132" stroke="#00AAF3" stroke-width="1.5"/>
<path d="M22 12L19 12" stroke="#00AAF3" stroke-width="1.5"/>
<path d="M2 12L5 12" stroke="#00AAF3" stroke-width="1.5"/>
<path d="M12 14V15.5" stroke="white" stroke-width="1.5"/>
<path d="M18 17C19.6569 17 21 18.3431 21 20V21C21 21.5523 20.5523 22 20 22H4C3.44772 22 3 21.5523 3 21V20C3 18.3431 4.34315 17 6 17H18Z" fill="#00AAF3"/>
</svg>
