<svg width="24" height="24" viewBox="0 0 24 24" fill="none" xmlns="http://www.w3.org/2000/svg">
<path d="M12.5073 3.48087C12.6966 3.48086 12.8613 3.47847 13.0103 3.50723C13.545 3.61063 13.9784 4.00297 14.1343 4.52481C14.1776 4.6702 14.1917 4.83449 14.2104 5.02286C14.2307 5.22625 14.2448 5.36416 14.2593 5.46719C14.2663 5.51689 14.2723 5.55179 14.2778 5.57657C14.2805 5.58833 14.283 5.59727 14.2847 5.60294C14.2863 5.60838 14.2876 5.61172 14.2876 5.61172C14.3842 5.85282 14.6602 5.9672 14.8989 5.86465C14.8995 5.86441 14.9023 5.86318 14.9067 5.86075C14.912 5.85791 14.92 5.85353 14.9302 5.84708C14.9517 5.83343 14.9808 5.81292 15.021 5.78262C15.1042 5.72 15.2115 5.63267 15.3696 5.50333C15.5165 5.38319 15.6431 5.27665 15.7769 5.2045C16.2557 4.94644 16.8388 4.97523 17.2896 5.27969C17.4155 5.36481 17.5304 5.48353 17.6646 5.61758L18.3813 6.3334C18.5153 6.46734 18.6341 6.58264 18.7192 6.7084C19.0241 7.15941 19.0529 7.74297 18.7944 8.22208C18.7223 8.35578 18.6167 8.48259 18.4966 8.6293C18.367 8.78763 18.279 8.89476 18.2163 8.97794C18.1859 9.01824 18.1655 9.04726 18.1519 9.06876C18.1453 9.07904 18.141 9.08697 18.1382 9.09219C18.1354 9.09729 18.1343 9.10001 18.1343 9.10001C18.0318 9.33874 18.146 9.6148 18.3872 9.71133C18.388 9.7117 18.3907 9.71297 18.395 9.71426C18.4007 9.71594 18.4097 9.71846 18.4214 9.7211C18.4463 9.72667 18.4817 9.7326 18.5317 9.73965C18.635 9.7542 18.7733 9.76806 18.9771 9.78848C19.1662 9.80744 19.3313 9.82192 19.4771 9.86563C19.9978 10.022 20.3893 10.4549 20.4927 10.9887C20.5215 11.138 20.519 11.3038 20.519 11.4936V12.5063C20.519 12.6957 20.5215 12.8611 20.4927 13.0102C20.3893 13.5448 19.9968 13.9783 19.4751 14.1342C19.3297 14.1776 19.1654 14.1916 18.9771 14.2104C18.7738 14.2306 18.6358 14.2447 18.5327 14.2592C18.4827 14.2662 18.4472 14.2722 18.4224 14.2777C18.4104 14.2804 18.4017 14.2829 18.396 14.2846C18.3911 14.286 18.3886 14.2873 18.3882 14.2875C18.1467 14.3838 18.0318 14.6599 18.1343 14.8988C18.1346 14.8996 18.1359 14.9024 18.1382 14.9066C18.141 14.9119 18.1454 14.9198 18.1519 14.9301C18.1655 14.9516 18.186 14.9807 18.2163 15.0209C18.279 15.1041 18.3671 15.2113 18.4966 15.3695C18.6166 15.5163 18.7233 15.643 18.7954 15.7768C19.0535 16.2557 19.0239 16.8386 18.7192 17.2895C18.6342 17.4153 18.5163 17.5305 18.3823 17.6645L17.6646 18.3822C17.5306 18.5162 17.4154 18.6341 17.2896 18.7191C16.8387 19.0238 16.2558 19.0534 15.7769 18.7953C15.6431 18.7232 15.5164 18.6166 15.3696 18.4965C15.2114 18.367 15.1042 18.2789 15.021 18.2162C14.9808 18.1859 14.9517 18.1654 14.9302 18.1518C14.9199 18.1453 14.912 18.1409 14.9067 18.1381C14.9025 18.1358 14.8997 18.1345 14.8989 18.1342C14.66 18.0317 14.3839 18.1466 14.2876 18.3881C14.2874 18.3885 14.2861 18.391 14.2847 18.3959C14.283 18.4016 14.2805 18.4103 14.2778 18.4223C14.2723 18.4471 14.2663 18.4826 14.2593 18.5326C14.2448 18.6357 14.2307 18.7737 14.2104 18.977C14.1917 19.1653 14.1777 19.3296 14.1343 19.475C13.9784 19.9967 13.5449 20.3892 13.0103 20.4926C12.8612 20.5214 12.6958 20.519 12.5063 20.519H11.4937C11.3039 20.519 11.1381 20.5214 10.9888 20.4926C10.455 20.3892 10.022 19.9977 9.86572 19.477C9.82201 19.3312 9.80753 19.1661 9.78857 18.977C9.76814 18.7732 9.7543 18.6349 9.73975 18.5316C9.73269 18.4816 9.72676 18.4462 9.72119 18.4213C9.71855 18.4095 9.71604 18.4006 9.71436 18.3949C9.71305 18.3906 9.7118 18.3879 9.71143 18.3871C9.6149 18.1459 9.33883 18.0317 9.1001 18.1342C9.1001 18.1342 9.09738 18.1353 9.09229 18.1381C9.08706 18.1409 9.07912 18.1453 9.06885 18.1518C9.04735 18.1654 9.01833 18.1859 8.97803 18.2162C8.89482 18.2789 8.78778 18.3669 8.62939 18.4965C8.48262 18.6166 8.35593 18.7221 8.22217 18.7943C7.74321 19.0528 7.16046 19.0237 6.70947 18.7191C6.58356 18.6341 6.46757 18.5163 6.3335 18.3822L5.6167 17.6645C5.48276 17.5305 5.36487 17.4152 5.27979 17.2895C4.97512 16.8386 4.94547 16.2557 5.20361 15.7768C5.27576 15.6429 5.3822 15.5166 5.50244 15.3695C5.6318 15.2113 5.71912 15.104 5.78174 15.0209C5.81204 14.9807 5.83255 14.9516 5.84619 14.9301C5.85267 14.9199 5.85702 14.9119 5.85986 14.9066C5.86232 14.9021 5.86354 14.8994 5.86377 14.8988C5.96647 14.6598 5.85146 14.3829 5.60986 14.2865C5.60892 14.2862 5.60606 14.2857 5.60205 14.2846C5.59639 14.2829 5.58751 14.2804 5.57568 14.2777C5.55092 14.2722 5.51602 14.2662 5.46631 14.2592C5.36345 14.2447 5.22593 14.2306 5.02295 14.2104C4.83471 14.1916 4.67019 14.1775 4.5249 14.1342C4.00295 13.9784 3.61071 13.545 3.50732 13.0102C3.4786 12.8613 3.48095 12.6964 3.48096 12.5072V11.4926C3.48096 11.303 3.47848 11.1379 3.50732 10.9887C3.61069 10.4545 4.00272 10.0218 4.52393 9.86563C4.6695 9.82209 4.83428 9.8074 5.02295 9.78848C5.22636 9.76808 5.36418 9.7542 5.46729 9.73965C5.51738 9.73258 5.55278 9.72668 5.57764 9.7211C5.5895 9.71843 5.59836 9.71594 5.604 9.71426C5.60927 9.71268 5.61182 9.71133 5.61182 9.71133C5.85289 9.61479 5.96711 9.33868 5.86475 9.10001C5.86462 9.09973 5.86336 9.09685 5.86084 9.09219C5.85802 9.08701 5.85358 9.07889 5.84717 9.06876C5.83355 9.04729 5.81297 9.0181 5.78271 8.97794C5.72005 8.89476 5.63196 8.78756 5.50244 8.6293C5.38237 8.4826 5.27678 8.35577 5.20459 8.22208C4.94614 7.74305 4.97508 7.16039 5.27979 6.70938C5.36493 6.58339 5.48252 6.46758 5.6167 6.3334L6.3335 5.61661C6.46771 5.4824 6.58344 5.36488 6.70947 5.27969C7.16033 4.97514 7.74324 4.94534 8.22217 5.20352C8.35597 5.27571 8.4825 5.38217 8.62939 5.50235C8.78781 5.63195 8.89577 5.71993 8.979 5.78262C9.01926 5.81293 9.04836 5.83347 9.06982 5.84708C9.08013 5.8536 9.08807 5.85794 9.09326 5.86075C9.09694 5.86275 9.09923 5.86425 9.1001 5.86465C9.33884 5.96703 9.61593 5.8529 9.7124 5.61172C9.7124 5.61172 9.71369 5.60846 9.71533 5.60294C9.71698 5.59734 9.71864 5.58891 9.72119 5.57755C9.72676 5.55271 9.73367 5.51726 9.74072 5.46719C9.75523 5.36411 9.76921 5.22629 9.78955 5.02286C9.80841 4.83422 9.8222 4.6694 9.86572 4.52383C10.0218 4.00235 10.4553 3.61056 10.9897 3.50723C11.1387 3.47853 11.3034 3.48086 11.4927 3.48087H12.5073ZM11.9995 9.68985C10.724 9.68987 9.68997 10.7239 9.68994 11.9994C9.68994 13.2749 10.724 14.309 11.9995 14.309C13.275 14.309 14.3091 13.2749 14.3091 11.9994C14.3091 10.7239 13.275 9.68985 11.9995 9.68985Z" fill="#00AAF3"/>
</svg>
