<svg width="24" height="24" viewBox="0 0 24 24" fill="none" xmlns="http://www.w3.org/2000/svg">
<path d="M12.9131 4.01758L13.0556 3.28123L13.0555 3.28123L12.9131 4.01758ZM13.6504 4.68457L14.3689 4.46959L14.3689 4.46937L13.6504 4.68457ZM13.708 5.08887L14.4543 5.01428L13.708 5.08887ZM13.8184 5.8125L13.1218 6.09053L13.1219 6.09077L13.8184 5.8125ZM15.0889 6.33887L15.3846 7.02811L15.3849 7.02799L15.0889 6.33887ZM15.6777 5.90527L16.1525 6.48588L15.6777 5.90527ZM16.0059 5.66016L15.6503 4.99979L15.6502 4.99986L16.0059 5.66016ZM16.998 5.70898L17.4178 5.08748L17.4177 5.08737L16.998 5.70898ZM17.2998 5.98633L16.7695 6.51666L17.2998 5.98633ZM18.0137 6.7002L18.544 6.16987L18.0137 6.7002ZM18.29 7.00195L18.9116 6.58219L18.9115 6.58202L18.29 7.00195ZM18.3398 7.99512L18.9998 8.3514L18.9999 8.35121L18.3398 7.99512ZM18.0947 8.32129L18.6751 8.79629L18.0947 8.32129ZM17.6611 8.91113L16.972 8.61515L16.9719 8.61544L17.6611 8.91113ZM18.1875 10.1807L17.9093 10.8772L17.9095 10.8772L18.1875 10.1807ZM18.9102 10.291L18.8354 11.0373L18.9102 10.291ZM19.3154 10.3496L19.5308 9.63119L19.5306 9.63115L19.3154 10.3496ZM19.9824 11.0869L20.7188 10.9448L20.7187 10.9443L19.9824 11.0869ZM19.9824 12.9131L20.7188 13.0556L20.7188 13.0556L19.9824 12.9131ZM19.3154 13.6504L19.5304 14.3689L19.5306 14.3689L19.3154 13.6504ZM18.9111 13.708L18.9857 14.4543L18.9111 13.708ZM18.1875 13.8184L17.9097 13.1217L17.9094 13.1218L18.1875 13.8184ZM17.6611 15.0889L16.9719 15.3846L16.9721 15.3851L17.6611 15.0889ZM18.0947 15.6777L17.5142 16.1526L18.0947 15.6777ZM18.3398 16.0049L19 15.649L18.9998 15.6485L18.3398 16.0049ZM18.29 16.998L18.9115 17.4179L18.9115 17.4179L18.29 16.998ZM16.998 18.29L17.4179 18.9115L17.4179 18.9115L16.998 18.29ZM16.0049 18.3398L15.6485 18.9998L15.649 19L16.0049 18.3398ZM15.6777 18.0947L16.1526 17.5142L15.6777 18.0947ZM15.0889 17.6611L15.3851 16.9721L15.3846 16.9719L15.0889 17.6611ZM13.8184 18.1875L13.1218 17.9094L13.1217 17.9097L13.8184 18.1875ZM13.708 18.9111L14.4543 18.9857L13.708 18.9111ZM13.6504 19.3154L14.3689 19.5306L14.3689 19.5304L13.6504 19.3154ZM12.9131 19.9824L13.0556 20.7188L13.0556 20.7188L12.9131 19.9824ZM11.0869 19.9824L10.9443 20.7187L10.9448 20.7188L11.0869 19.9824ZM10.3496 19.3154L9.63115 19.5306L9.63119 19.5308L10.3496 19.3154ZM10.291 18.9102L11.0373 18.8354L10.291 18.9102ZM10.1807 18.1875L10.8772 17.9095L10.8772 17.9093L10.1807 18.1875ZM8.91113 17.6611L8.61544 16.9719L8.61515 16.972L8.91113 17.6611ZM8.32129 18.0947L8.79629 18.6751L8.32129 18.0947ZM7.99512 18.3398L8.35121 18.9999L8.3514 18.9998L7.99512 18.3398ZM7.00195 18.29L6.58202 18.9115L6.58219 18.9116L7.00195 18.29ZM6.7002 18.0137L6.16987 18.544L6.7002 18.0137ZM5.98633 17.2998L6.51666 16.7695L5.98633 17.2998ZM5.70898 16.998L5.08737 17.4177L5.08748 17.4178L5.70898 16.998ZM5.66016 16.0059L4.99986 15.6502L4.99979 15.6503L5.66016 16.0059ZM5.90527 15.6777L6.48588 16.1525L5.90527 15.6777ZM6.33887 15.0889L7.02799 15.3849L7.02811 15.3846L6.33887 15.0889ZM5.8125 13.8184L6.09077 13.1219L6.09053 13.1218L5.8125 13.8184ZM5.08887 13.708L5.01428 14.4543L5.08887 13.708ZM4.68457 13.6504L4.46937 14.3689L4.46959 14.3689L4.68457 13.6504ZM4.01758 12.9131L3.28123 13.0555L3.28123 13.0556L4.01758 12.9131ZM4 11.4951H3.25H4ZM4.01758 11.0859L3.28134 10.9429L3.28129 10.9432L4.01758 11.0859ZM4.68457 10.3496L4.46941 9.63113L4.46913 9.63122L4.68457 10.3496ZM5.08887 10.291L5.01409 9.54475H5.01409L5.08887 10.291ZM5.81348 10.1807L6.09185 10.8771L6.09209 10.877L5.81348 10.1807ZM6.33984 8.91113L7.02919 8.61567L7.02917 8.61561L6.33984 8.91113ZM5.90527 8.32129L6.48577 7.8464L5.90527 8.32129ZM5.66016 7.99316L4.99982 8.34876L4.99988 8.34889L5.66016 7.99316ZM5.70898 7.00098L5.08741 6.58128L5.08729 6.58146L5.70898 7.00098ZM5.98633 6.69922L6.51666 7.22955L5.98633 6.69922ZM6.7002 5.98535L6.16987 5.45502L6.7002 5.98535ZM7.00195 5.70898L6.58219 5.08746L6.58203 5.08756L7.00195 5.70898ZM7.99512 5.65918L8.35141 4.99921L8.3512 4.9991L7.99512 5.65918ZM8.32227 5.9043L7.84727 6.48471L8.32227 5.9043ZM8.91113 6.33789L8.61517 7.02702L8.6154 7.02712L8.91113 6.33789ZM10.1807 5.81152L10.8771 6.08978L10.8773 6.08947L10.1807 5.81152ZM10.291 5.08887L11.0373 5.16367L10.291 5.08887ZM10.3496 4.68457L9.63116 4.46931L9.63114 4.46939L10.3496 4.68457ZM11.0869 4.01758L10.9447 3.28118L10.9445 3.28123L11.0869 4.01758ZM12 9.69629L12 8.94629H12V9.69629ZM9.69629 12L8.94629 12V12H9.69629ZM12 14.3037V15.0537H12L12 14.3037ZM14.3037 12H15.0537V12L14.3037 12ZM12.5049 4V4.75C12.6156 4.75 12.6803 4.75013 12.7288 4.75179C12.7739 4.75334 12.7796 4.75566 12.7706 4.75392L12.9131 4.01758L13.0555 3.28123C12.8772 3.24673 12.6835 3.25 12.5049 3.25V4ZM12.9131 4.01758L12.7706 4.75392C12.8475 4.76879 12.9095 4.82502 12.9319 4.89977L13.6504 4.68457L14.3689 4.46937C14.1862 3.85969 13.6802 3.40209 13.0556 3.28123L12.9131 4.01758ZM13.6504 4.68457L12.9319 4.89955C12.9289 4.88975 12.9317 4.89443 12.9377 4.93969C12.9442 4.98831 12.9506 5.05255 12.9617 5.16345L13.708 5.08887L14.4543 5.01428C14.4368 4.83966 14.4211 4.64415 14.3689 4.46959L13.6504 4.68457ZM13.708 5.08887L12.9617 5.16345C12.981 5.35662 12.9977 5.52382 13.0167 5.65798C13.035 5.78755 13.0623 5.94156 13.1218 6.09053L13.8184 5.8125L14.5149 5.53447C14.5242 5.55772 14.5162 5.54899 14.5019 5.44771C14.4882 5.35103 14.4748 5.21927 14.4543 5.01428L13.708 5.08887ZM13.8184 5.8125L13.1219 6.09077C13.4785 6.98326 14.501 7.4072 15.3846 7.02811L15.0889 6.33887L14.7932 5.64963C14.6848 5.69612 14.5587 5.644 14.5148 5.53423L13.8184 5.8125ZM15.0889 6.33887L15.3849 7.02799C15.5328 6.96443 15.6612 6.87432 15.7652 6.79593C15.8729 6.71475 16.0028 6.6083 16.1525 6.48588L15.6777 5.90527L15.203 5.32467C15.043 5.45545 14.9406 5.53911 14.8624 5.59807C14.7805 5.65982 14.7692 5.6599 14.7929 5.64975L15.0889 6.33887ZM15.6777 5.90527L16.1525 6.48588C16.2379 6.41605 16.2883 6.3751 16.3268 6.34587C16.3627 6.31857 16.369 6.31642 16.3615 6.32045L16.0059 5.66016L15.6502 4.99986C15.4905 5.08589 15.3431 5.21012 15.203 5.32467L15.6777 5.90527ZM16.0059 5.66016L16.3614 6.32052C16.4313 6.28288 16.5148 6.28763 16.5784 6.3306L16.998 5.70898L17.4177 5.08737C16.8897 4.73092 16.2089 4.69901 15.6503 4.99979L16.0059 5.66016ZM16.998 5.70898L16.5783 6.33049C16.5698 6.3248 16.5751 6.32679 16.6087 6.35826C16.6447 6.39191 16.6906 6.43781 16.7695 6.51666L17.2998 5.98633L17.8301 5.456C17.7054 5.33131 17.569 5.18957 17.4178 5.08748L16.998 5.70898ZM17.2998 5.98633L16.7695 6.51666L17.4833 7.23053L18.0137 6.7002L18.544 6.16987L17.8301 5.456L17.2998 5.98633ZM18.0137 6.7002L17.4833 7.23053C17.5612 7.30834 17.6069 7.35438 17.6398 7.3897C17.6705 7.42273 17.6733 7.42888 17.6686 7.42189L18.29 7.00195L18.9115 6.58202C18.81 6.43193 18.6719 6.29775 18.544 6.16987L18.0137 6.7002ZM18.29 7.00195L17.6685 7.42172C17.7127 7.48715 17.7165 7.57092 17.6798 7.63902L18.3398 7.99512L18.9999 8.35121C19.3025 7.79043 19.2673 7.1089 18.9116 6.58219L18.29 7.00195ZM18.3398 7.99512L17.6799 7.63883C17.6849 7.6295 17.6838 7.63453 17.6559 7.67085C17.626 7.70993 17.5851 7.75976 17.5143 7.84629L18.0947 8.32129L18.6751 8.79629C18.7854 8.66154 18.9132 8.51183 18.9998 8.3514L18.3398 7.99512ZM18.0947 8.32129L17.5143 7.84629C17.3912 7.99667 17.2848 8.12671 17.2033 8.23514C17.1246 8.33987 17.0352 8.46798 16.972 8.61515L17.6611 8.91113L18.3503 9.20712C18.3405 9.2299 18.3411 9.21794 18.4025 9.13627C18.4611 9.0583 18.5447 8.95561 18.6751 8.79629L18.0947 8.32129ZM17.6611 8.91113L16.9719 8.61544C16.5927 9.49936 17.0171 10.5207 17.9093 10.8772L18.1875 10.1807L18.4657 9.48418C18.3555 9.44016 18.3041 9.3148 18.3504 9.20683L17.6611 8.91113ZM18.1875 10.1807L17.9095 10.8772C18.0583 10.9366 18.2119 10.9639 18.3414 10.9823C18.4753 11.0013 18.6423 11.0179 18.8354 11.0373L18.9102 10.291L18.9849 9.54475C18.78 9.52421 18.6485 9.5108 18.552 9.49712C18.4511 9.48281 18.4424 9.47487 18.4655 9.48409L18.1875 10.1807ZM18.9102 10.291L18.8354 11.0373C18.9452 11.0483 19.0098 11.055 19.0577 11.0615C19.1025 11.0676 19.1084 11.0705 19.1002 11.0681L19.3154 10.3496L19.5306 9.63115C19.3569 9.57911 19.1647 9.56277 18.9849 9.54475L18.9102 10.291ZM19.3154 10.3496L19.1001 11.068C19.1748 11.0904 19.2312 11.1527 19.2461 11.2295L19.9824 11.0869L20.7187 10.9443C20.5978 10.32 20.1402 9.81386 19.5308 9.63119L19.3154 10.3496ZM19.9824 11.0869L19.246 11.229C19.2443 11.2203 19.2466 11.2261 19.2482 11.2713C19.2499 11.3198 19.25 11.3845 19.25 11.4951H20H20.75C20.75 11.3163 20.7532 11.1229 20.7188 10.9448L19.9824 11.0869ZM20 11.4951H19.25V12.5049H20H20.75V11.4951H20ZM20 12.5049H19.25C19.25 12.6157 19.2499 12.6803 19.2482 12.7288C19.2467 12.7739 19.2443 12.7796 19.2461 12.7706L19.9824 12.9131L20.7188 13.0556C20.7533 12.8772 20.75 12.6835 20.75 12.5049H20ZM19.9824 12.9131L19.2461 12.7706C19.2312 12.8475 19.1749 12.9096 19.1002 12.9319L19.3154 13.6504L19.5306 14.3689C20.1403 14.1862 20.5979 13.6801 20.7188 13.0556L19.9824 12.9131ZM19.3154 13.6504L19.1004 12.9319C19.1102 12.9289 19.1055 12.9317 19.0603 12.9377C19.0117 12.9442 18.9475 12.9506 18.8366 12.9617L18.9111 13.708L18.9857 14.4543C19.1603 14.4368 19.3558 14.4212 19.5304 14.3689L19.3154 13.6504ZM18.9111 13.708L18.8366 12.9617C18.6433 12.981 18.4762 12.9977 18.342 13.0167C18.2124 13.0351 18.0585 13.0624 17.9097 13.1217L18.1875 13.8184L18.4653 14.515C18.4423 14.5242 18.4511 14.5162 18.5523 14.5019C18.649 14.4882 18.7807 14.4748 18.9857 14.4543L18.9111 13.708ZM18.1875 13.8184L17.9094 13.1218C17.0164 13.4784 16.5927 14.5011 16.9719 15.3846L17.6611 15.0889L18.3503 14.7931C18.3038 14.6846 18.3559 14.5587 18.4656 14.5149L18.1875 13.8184ZM17.6611 15.0889L16.9721 15.3851C17.0356 15.5328 17.1255 15.661 17.204 15.7652C17.2852 15.873 17.3917 16.0028 17.5142 16.1526L18.0947 15.6777L18.6752 15.2028C18.5445 15.043 18.4609 14.9406 18.402 14.8625C18.3403 14.7807 18.3401 14.7693 18.3502 14.7927L17.6611 15.0889ZM18.0947 15.6777L17.5142 16.1526C17.5844 16.2384 17.6254 16.2886 17.6549 16.3274C17.6825 16.3636 17.6843 16.3694 17.6799 16.3612L18.3398 16.0049L18.9998 15.6485C18.9135 15.4888 18.7879 15.3405 18.6752 15.2028L18.0947 15.6777ZM18.3398 16.0049L17.6796 16.3608C17.7165 16.4292 17.7125 16.5131 17.6686 16.5782L18.29 16.998L18.9115 17.4179C19.2674 16.891 19.3021 16.2094 19 15.649L18.3398 16.0049ZM18.29 16.998L17.6686 16.5782C17.6733 16.5712 17.6705 16.5773 17.6398 16.6103C17.6069 16.6456 17.5612 16.6916 17.4833 16.7695L18.0137 17.2998L18.544 17.8301C18.6719 17.7022 18.81 17.5681 18.9115 17.4179L18.29 16.998ZM18.0137 17.2998L17.4833 16.7695L16.7695 17.4833L17.2998 18.0137L17.8301 18.544L18.544 17.8301L18.0137 17.2998ZM17.2998 18.0137L16.7695 17.4833C16.6916 17.5612 16.6456 17.6069 16.6103 17.6398C16.5773 17.6705 16.5712 17.6733 16.5782 17.6686L16.998 18.29L17.4179 18.9115C17.5681 18.81 17.7022 18.6719 17.8301 18.544L17.2998 18.0137ZM16.998 18.29L16.5782 17.6686C16.5131 17.7125 16.4292 17.7165 16.3608 17.6796L16.0049 18.3398L15.649 19C16.2094 19.3021 16.891 19.2674 17.4179 18.9115L16.998 18.29ZM16.0049 18.3398L16.3612 17.6799C16.3694 17.6843 16.3636 17.6825 16.3274 17.6549C16.2886 17.6254 16.2384 17.5844 16.1526 17.5142L15.6777 18.0947L15.2028 18.6752C15.3405 18.7879 15.4888 18.9135 15.6485 18.9998L16.0049 18.3398ZM15.6777 18.0947L16.1526 17.5142C16.0028 17.3917 15.873 17.2852 15.7652 17.204C15.661 17.1255 15.5328 17.0356 15.3851 16.9721L15.0889 17.6611L14.7927 18.3502C14.7693 18.3401 14.7807 18.3403 14.8625 18.402C14.9406 18.4609 15.043 18.5445 15.2028 18.6752L15.6777 18.0947ZM15.0889 17.6611L15.3846 16.9719C14.5011 16.5927 13.4784 17.0164 13.1218 17.9094L13.8184 18.1875L14.5149 18.4656C14.5587 18.3559 14.6846 18.3038 14.7931 18.3503L15.0889 17.6611ZM13.8184 18.1875L13.1217 17.9097C13.0624 18.0585 13.0351 18.2124 13.0167 18.342C12.9977 18.4762 12.981 18.6433 12.9617 18.8366L13.708 18.9111L14.4543 18.9857C14.4748 18.7807 14.4882 18.649 14.5019 18.5523C14.5162 18.4511 14.5242 18.4423 14.515 18.4653L13.8184 18.1875ZM13.708 18.9111L12.9617 18.8366C12.9506 18.9475 12.9442 19.0117 12.9377 19.0603C12.9317 19.1055 12.9289 19.1102 12.9319 19.1004L13.6504 19.3154L14.3689 19.5304C14.4212 19.3558 14.4368 19.1603 14.4543 18.9857L13.708 18.9111ZM13.6504 19.3154L12.9319 19.1002C12.9096 19.1749 12.8475 19.2312 12.7706 19.2461L12.9131 19.9824L13.0556 20.7188C13.6801 20.5979 14.1862 20.1403 14.3689 19.5306L13.6504 19.3154ZM12.9131 19.9824L12.7706 19.2461C12.7796 19.2443 12.7739 19.2467 12.7288 19.2482C12.6803 19.2499 12.6157 19.25 12.5049 19.25V20V20.75C12.6835 20.75 12.8772 20.7533 13.0556 20.7188L12.9131 19.9824ZM12.5049 20V19.25H11.4951V20V20.75H12.5049V20ZM11.4951 20V19.25C11.3845 19.25 11.3198 19.2499 11.2713 19.2482C11.2261 19.2466 11.2203 19.2443 11.229 19.246L11.0869 19.9824L10.9448 20.7188C11.1229 20.7532 11.3163 20.75 11.4951 20.75V20ZM11.0869 19.9824L11.2295 19.2461C11.1527 19.2312 11.0904 19.1748 11.068 19.1001L10.3496 19.3154L9.63119 19.5308C9.81386 20.1402 10.32 20.5978 10.9443 20.7187L11.0869 19.9824ZM10.3496 19.3154L11.0681 19.1002C11.0705 19.1084 11.0676 19.1025 11.0615 19.0577C11.055 19.0098 11.0483 18.9452 11.0373 18.8354L10.291 18.9102L9.54475 18.9849C9.56277 19.1647 9.57911 19.3569 9.63115 19.5306L10.3496 19.3154ZM10.291 18.9102L11.0373 18.8354C11.0179 18.6423 11.0013 18.4753 10.9823 18.3414C10.9639 18.2119 10.9366 18.0583 10.8772 17.9095L10.1807 18.1875L9.48409 18.4655C9.47487 18.4424 9.48281 18.4511 9.49712 18.552C9.5108 18.6485 9.52421 18.78 9.54475 18.9849L10.291 18.9102ZM10.1807 18.1875L10.8772 17.9093C10.5207 17.0171 9.49936 16.5927 8.61544 16.9719L8.91113 17.6611L9.20683 18.3504C9.3148 18.3041 9.44016 18.3555 9.48418 18.4657L10.1807 18.1875ZM8.91113 17.6611L8.61515 16.972C8.46798 17.0352 8.33987 17.1246 8.23514 17.2033C8.12671 17.2848 7.99667 17.3912 7.84629 17.5143L8.32129 18.0947L8.79629 18.6751C8.95561 18.5447 9.0583 18.4611 9.13627 18.4025C9.21794 18.3411 9.2299 18.3405 9.20712 18.3503L8.91113 17.6611ZM8.32129 18.0947L7.84629 17.5143C7.75976 17.5851 7.70993 17.626 7.67085 17.6559C7.63453 17.6838 7.6295 17.6849 7.63883 17.6799L7.99512 18.3398L8.3514 18.9998C8.51183 18.9132 8.66154 18.7854 8.79629 18.6751L8.32129 18.0947ZM7.99512 18.3398L7.63902 17.6798C7.57092 17.7165 7.48715 17.7127 7.42172 17.6685L7.00195 18.29L6.58219 18.9116C7.1089 19.2673 7.79043 19.3025 8.35121 18.9999L7.99512 18.3398ZM7.00195 18.29L7.42189 17.6686C7.42888 17.6733 7.42273 17.6705 7.3897 17.6398C7.35438 17.6069 7.30834 17.5612 7.23053 17.4833L6.7002 18.0137L6.16987 18.544C6.29775 18.6719 6.43193 18.81 6.58202 18.9115L7.00195 18.29ZM6.7002 18.0137L7.23053 17.4833L6.51666 16.7695L5.98633 17.2998L5.456 17.8301L6.16987 18.544L6.7002 18.0137ZM5.98633 17.2998L6.51666 16.7695C6.43781 16.6906 6.39191 16.6447 6.35826 16.6087C6.32679 16.5751 6.3248 16.5698 6.33049 16.5783L5.70898 16.998L5.08748 17.4178C5.18957 17.569 5.33131 17.7054 5.456 17.8301L5.98633 17.2998ZM5.70898 16.998L6.3306 16.5784C6.28763 16.5148 6.28288 16.4313 6.32052 16.3614L5.66016 16.0059L4.99979 15.6503C4.69901 16.2089 4.73092 16.8897 5.08737 17.4177L5.70898 16.998ZM5.66016 16.0059L6.32045 16.3615C6.31642 16.369 6.31857 16.3627 6.34587 16.3268C6.3751 16.2883 6.41605 16.2379 6.48588 16.1525L5.90527 15.6777L5.32467 15.203C5.21012 15.3431 5.08589 15.4905 4.99986 15.6502L5.66016 16.0059ZM5.90527 15.6777L6.48588 16.1525C6.6083 16.0028 6.71475 15.8729 6.79593 15.7652C6.87432 15.6612 6.96443 15.5328 7.02799 15.3849L6.33887 15.0889L5.64975 14.7929C5.6599 14.7692 5.65982 14.7805 5.59807 14.8624C5.53911 14.9406 5.45545 15.043 5.32467 15.203L5.90527 15.6777ZM6.33887 15.0889L7.02811 15.3846C7.4072 14.501 6.98326 13.4785 6.09077 13.1219L5.8125 13.8184L5.53423 14.5148C5.644 14.5587 5.69612 14.6848 5.64963 14.7932L6.33887 15.0889ZM5.8125 13.8184L6.09053 13.1218C5.94156 13.0623 5.78755 13.035 5.65798 13.0167C5.52382 12.9977 5.35662 12.981 5.16345 12.9617L5.08887 13.708L5.01428 14.4543C5.21927 14.4748 5.35103 14.4882 5.44771 14.5019C5.54899 14.5162 5.55772 14.5242 5.53447 14.5149L5.8125 13.8184ZM5.08887 13.708L5.16345 12.9617C5.05255 12.9506 4.98831 12.9442 4.93969 12.9377C4.89443 12.9317 4.88975 12.9289 4.89955 12.9319L4.68457 13.6504L4.46959 14.3689C4.64415 14.4211 4.83966 14.4368 5.01428 14.4543L5.08887 13.708ZM4.68457 13.6504L4.89977 12.9319C4.82502 12.9095 4.76879 12.8475 4.75392 12.7706L4.01758 12.9131L3.28123 13.0556C3.40209 13.6802 3.85969 14.1862 4.46937 14.3689L4.68457 13.6504ZM4.01758 12.9131L4.75392 12.7706C4.75566 12.7796 4.75334 12.7739 4.75179 12.7288C4.75013 12.6803 4.75 12.6156 4.75 12.5049H4H3.25C3.25 12.6835 3.24673 12.8772 3.28123 13.0555L4.01758 12.9131ZM4 12.5049H4.75V11.4951H4H3.25V12.5049H4ZM4 11.4951H4.75C4.75 11.3841 4.75011 11.3192 4.75177 11.2705C4.75333 11.225 4.75566 11.2195 4.75387 11.2287L4.01758 11.0859L3.28129 10.9432C3.24663 11.122 3.25 11.3167 3.25 11.4951H4ZM4.01758 11.0859L4.75381 11.229C4.76858 11.1529 4.82463 11.0906 4.90001 11.068L4.68457 10.3496L4.46913 9.63122C3.86083 9.81364 3.40268 10.3183 3.28134 10.9429L4.01758 11.0859ZM4.68457 10.3496L4.89973 11.0681C4.89191 11.0704 4.89802 11.0675 4.94235 11.0614C4.98992 11.0549 5.05424 11.0482 5.16365 11.0373L5.08887 10.291L5.01409 9.54475C4.83386 9.56281 4.6429 9.57918 4.46941 9.63113L4.68457 10.3496ZM5.08887 10.291L5.16365 11.0373C5.35674 11.0179 5.52418 11.0013 5.65824 10.9824C5.78772 10.9641 5.94229 10.9369 6.09185 10.8771L5.81348 10.1807L5.5351 9.48424C5.55871 9.4748 5.55037 9.48275 5.44874 9.49709C5.35169 9.51077 5.2198 9.52414 5.01409 9.54475L5.08887 10.291ZM5.81348 10.1807L6.09209 10.877C6.98329 10.5204 7.40799 9.49943 7.02919 8.61567L6.33984 8.91113L5.6505 9.2066C5.69666 9.31431 5.64518 9.4402 5.53486 9.48434L5.81348 10.1807ZM6.33984 8.91113L7.02917 8.61561C6.96545 8.46699 6.87495 8.3382 6.79641 8.2341C6.71509 8.12632 6.60836 7.99625 6.48577 7.8464L5.90527 8.32129L5.32478 8.79618C5.45598 8.95656 5.53981 9.05909 5.59897 9.1375C5.66091 9.2196 5.6608 9.23062 5.65052 9.20666L6.33984 8.91113ZM5.90527 8.32129L6.48577 7.8464C6.41597 7.76108 6.37506 7.71071 6.3459 7.67234C6.3187 7.63653 6.31649 7.63013 6.32043 7.63744L5.66016 7.99316L4.99988 8.34889C5.08595 8.50864 5.20989 8.65575 5.32478 8.79618L5.90527 8.32129ZM5.66016 7.99316L6.3205 7.63757C6.28296 7.56787 6.28761 7.48431 6.33068 7.42049L5.70898 7.00098L5.08729 6.58146C4.73112 7.10928 4.69893 7.79003 4.99982 8.34876L5.66016 7.99316ZM5.70898 7.00098L6.33056 7.42067C6.32487 7.4291 6.32682 7.42385 6.3582 7.39034C6.39183 7.35441 6.43769 7.30851 6.51666 7.22955L5.98633 6.69922L5.456 6.16889C5.33127 6.29361 5.18958 6.42997 5.08741 6.58128L5.70898 7.00098ZM5.98633 6.69922L6.51666 7.22955L7.23053 6.51568L6.7002 5.98535L6.16987 5.45502L5.456 6.16889L5.98633 6.69922ZM6.7002 5.98535L7.23053 6.51568C7.30835 6.43786 7.35439 6.39213 7.38971 6.35925C7.42273 6.32851 7.42886 6.32568 7.42187 6.33041L7.00195 5.70898L6.58203 5.08756C6.43192 5.189 6.29776 5.32713 6.16987 5.45502L6.7002 5.98535ZM7.00195 5.70898L7.42172 6.33051C7.48713 6.28633 7.57092 6.28251 7.63903 6.31926L7.99512 5.65918L8.3512 4.9991C7.79043 4.69659 7.10891 4.73172 6.58219 5.08746L7.00195 5.70898ZM7.99512 5.65918L7.63882 6.31915C7.63066 6.31474 7.63654 6.31654 7.67266 6.34411C7.71136 6.37363 7.76156 6.41457 7.84727 6.48471L8.32227 5.9043L8.79727 5.32389C8.65938 5.21104 8.51117 5.08546 8.35141 4.99921L7.99512 5.65918ZM8.32227 5.9043L7.84727 6.48471C7.99709 6.60732 8.12693 6.71378 8.23481 6.79506C8.33901 6.87357 8.46733 6.96353 8.61517 7.02702L8.91113 6.33789L9.2071 5.64876C9.23058 5.65884 9.21923 5.65866 9.13746 5.59705C9.05938 5.53822 8.95696 5.45458 8.79727 5.32389L8.32227 5.9043ZM8.91113 6.33789L8.6154 7.02712C9.49942 7.40644 10.5207 6.98187 10.8771 6.08978L10.1807 5.81152L9.48419 5.53326C9.44013 5.64355 9.31473 5.69494 9.20687 5.64866L8.91113 6.33789ZM10.1807 5.81152L10.8773 6.08947C10.9366 5.94068 10.9639 5.78706 10.9823 5.65756C11.0013 5.52366 11.0179 5.35669 11.0373 5.16367L10.291 5.08887L9.54475 5.01407C9.52421 5.21905 9.51079 5.35054 9.49712 5.44703C9.48281 5.54793 9.47487 5.55663 9.48407 5.53358L10.1807 5.81152ZM10.291 5.08887L11.0373 5.16367C11.0482 5.05422 11.0549 4.98988 11.0614 4.9423C11.0675 4.89796 11.0704 4.89188 11.0681 4.89975L10.3496 4.68457L9.63114 4.46939C9.57919 4.64283 9.56282 4.83382 9.54475 5.01407L10.291 5.08887ZM10.3496 4.68457L11.0681 4.89983C11.0905 4.825 11.1526 4.76878 11.2294 4.75393L11.0869 4.01758L10.9445 3.28123C10.3198 3.40208 9.8138 3.85975 9.63116 4.46931L10.3496 4.68457ZM11.0869 4.01758L11.2291 4.75398C11.2202 4.75569 11.2261 4.75337 11.2713 4.75181C11.3198 4.75014 11.3846 4.75 11.4951 4.75V4V3.25C11.3164 3.25 11.1228 3.2468 10.9447 3.28118L11.0869 4.01758ZM11.4951 4V4.75H12.5049V4V3.25H11.4951V4ZM12 9.69629V8.94629C10.3133 8.94629 8.94629 10.3133 8.94629 12L9.69629 12L10.4463 12C10.4463 11.1417 11.1417 10.4463 12 10.4463V9.69629ZM9.69629 12H8.94629C8.94629 13.6867 10.3133 15.0537 12 15.0537V14.3037V13.5537C11.1417 13.5537 10.4463 12.8583 10.4463 12H9.69629ZM12 14.3037L12 15.0537C13.6867 15.0537 15.0537 13.6867 15.0537 12H14.3037H13.5537C13.5537 12.8583 12.8583 13.5537 12 13.5537L12 14.3037ZM14.3037 12L15.0537 12C15.0537 10.3133 13.6867 8.94631 12 8.94629L12 9.69629L12 10.4463C12.8583 10.4463 13.5537 11.1417 13.5537 12L14.3037 12Z" fill="#657989"/>
</svg>
