<svg width="40" height="40" viewBox="0 0 40 40" fill="none" xmlns="http://www.w3.org/2000/svg">
<path d="M23.0415 4.9707C25.7268 4.97073 27.9038 7.14774 27.9038 9.83301V28.5625L29.5513 28.9082C30.4371 29.0937 31.0718 29.8752 31.0718 30.7803V33.1172C31.0714 34.1729 30.2155 35.0292 29.1597 35.0293H5.14404C4.08839 35.0291 3.23235 34.1728 3.23193 33.1172V30.7803C3.23193 29.8772 3.86411 29.0952 4.75146 28.9092L6.39893 28.5635V9.83301C6.39896 7.14784 8.57609 4.97088 11.2612 4.9707H23.0415ZM11.2612 7.4707C9.95681 7.47088 8.89896 8.52855 8.89893 9.83301V29.5557C8.90327 29.7759 8.84846 29.9877 8.74756 30.1738C8.73255 30.2015 8.71669 30.2285 8.69971 30.2549C8.64409 30.3413 8.57786 30.4205 8.50244 30.4912C8.49571 30.4975 8.48881 30.5036 8.48193 30.5098C8.43257 30.554 8.37922 30.5937 8.32275 30.6299C8.31279 30.6363 8.30264 30.6423 8.29248 30.6484C8.27189 30.6608 8.2514 30.6733 8.22998 30.6846C8.21427 30.6928 8.19823 30.7004 8.18213 30.708C8.16225 30.7174 8.14209 30.726 8.12158 30.7344C8.10804 30.7399 8.09434 30.7449 8.08057 30.75C8.05553 30.7592 8.03027 30.7678 8.00439 30.7754C7.99659 30.7777 7.98882 30.7801 7.98096 30.7822C7.95618 30.789 7.93125 30.7974 7.90576 30.8027L5.73193 31.2568V32.5293H28.5718V31.2568L26.3979 30.8027C26.3763 30.7982 26.3556 30.7907 26.3345 30.7852C26.2772 30.77 26.2212 30.7522 26.1675 30.7295C26.1428 30.7191 26.119 30.7072 26.0952 30.6953C26.0798 30.6876 26.0643 30.6802 26.0493 30.6719C25.99 30.6391 25.9348 30.6009 25.8823 30.5596C25.8723 30.5517 25.8618 30.5443 25.8521 30.5361C25.8363 30.5229 25.8212 30.5091 25.8062 30.4951C25.7923 30.4823 25.7784 30.4695 25.7651 30.4561C25.7253 30.4156 25.6887 30.3725 25.6548 30.3271C25.6163 30.2759 25.5816 30.2219 25.5513 30.165C25.5444 30.1522 25.5381 30.1391 25.5317 30.126C25.4508 29.9604 25.4038 29.7748 25.4038 29.5781V9.83301C25.4038 8.52846 24.3461 7.47073 23.0415 7.4707H11.2612Z" fill="#FF4545"/>
<path d="M27.5586 14.326L31.2289 17.8629V25.3028C31.2289 26.4135 32.1292 27.3139 33.2399 27.3139V27.3139C34.3506 27.3139 35.251 26.4135 35.251 25.3028V15.2102V11.9564L31.1786 9.90497" stroke="#FF4545" stroke-width="2" stroke-linecap="round" stroke-linejoin="round"/>
<mask id="path-3-inside-1_4011_6772" fill="white">
<ellipse cx="1.65" cy="2.66836" rx="1.65" ry="2.66836" transform="matrix(0.870983 -0.491313 0.508737 0.860922 31.1792 10.966)"/>
</mask>
<path d="M35.4109 11.6419L33.669 12.6245C33.8856 12.9912 33.9367 13.2954 33.9332 13.4339C33.9315 13.4986 33.9199 13.4717 33.9607 13.3873C34.0071 13.2917 34.1151 13.1401 34.3138 13.028L35.3313 14.7498L36.3488 16.4717C37.572 15.7816 37.9423 14.5237 37.9666 13.5736C37.9919 12.5873 37.686 11.5614 37.1529 10.6593L35.4109 11.6419ZM35.3313 14.7498L34.3138 13.028C34.5126 12.9159 34.7009 12.9003 34.8089 12.9089C34.9041 12.9165 34.9222 12.9398 34.864 12.9089C34.7394 12.8426 34.4953 12.6473 34.2787 12.2806L32.5367 13.2632L30.7947 14.2459C31.3278 15.1479 32.0842 15.9198 32.971 16.3915C33.8254 16.846 35.1255 17.1617 36.3488 16.4717L35.3313 14.7498ZM32.5367 13.2632L34.2787 12.2806C34.062 11.914 34.0109 11.6098 34.0144 11.4712C34.0161 11.4065 34.0277 11.4334 33.9869 11.5178C33.9406 11.6135 33.8325 11.7651 33.6338 11.8772L32.6163 10.1553L31.5988 8.43349C30.3756 9.12352 30.0054 10.3814 29.981 11.3316C29.9557 12.3179 30.2617 13.3438 30.7947 14.2459L32.5367 13.2632ZM32.6163 10.1553L33.6338 11.8772C33.4351 11.9893 33.2467 12.0049 33.1387 11.9963C33.0435 11.9886 33.0255 11.9653 33.0837 11.9963C33.2082 12.0625 33.4523 12.2579 33.669 12.6245L35.4109 11.6419L37.1529 10.6593C36.6198 9.75722 35.8635 8.9854 34.9766 8.51363C34.1222 8.05915 32.8221 7.74346 31.5988 8.43349L32.6163 10.1553Z" fill="#FF4545" mask="url(#path-3-inside-1_4011_6772)"/>
<path d="M13.1761 18.016C13.1761 16.1707 13.5068 14.7253 14.1681 13.68C14.8401 12.6347 15.9495 12.112 17.4961 12.112C19.0428 12.112 20.1468 12.6347 20.8081 13.68C21.4801 14.7253 21.8161 16.1707 21.8161 18.016C21.8161 19.872 21.4801 21.328 20.8081 22.384C20.1468 23.44 19.0428 23.968 17.4961 23.968C15.9495 23.968 14.8401 23.44 14.1681 22.384C13.5068 21.328 13.1761 19.872 13.1761 18.016ZM19.6081 18.016C19.6081 17.2267 19.5548 16.5653 19.4481 16.032C19.3521 15.488 19.1495 15.0453 18.8401 14.704C18.5415 14.3627 18.0935 14.192 17.4961 14.192C16.8988 14.192 16.4455 14.3627 16.1361 14.704C15.8375 15.0453 15.6348 15.488 15.5281 16.032C15.4321 16.5653 15.3841 17.2267 15.3841 18.016C15.3841 18.8267 15.4321 19.5093 15.5281 20.064C15.6241 20.608 15.8268 21.0507 16.1361 21.392C16.4455 21.7227 16.8988 21.888 17.4961 21.888C18.0935 21.888 18.5468 21.7227 18.8561 21.392C19.1655 21.0507 19.3681 20.608 19.4641 20.064C19.5601 19.5093 19.6081 18.8267 19.6081 18.016Z" fill="#FF4545"/>
</svg>
