<svg width="40" height="40" viewBox="0 0 40 40" fill="none" xmlns="http://www.w3.org/2000/svg">
<path d="M12.9336 17.5684C13.4798 17.6238 13.9061 18.0847 13.9062 18.6455V32.3232L13.9004 32.4336C13.8486 32.9435 13.4435 33.3486 12.9336 33.4004L12.8232 33.4062H7.67676C7.11597 33.4061 6.65505 32.9798 6.59961 32.4336L6.59375 32.3232V18.6455C6.59393 18.0475 7.07871 17.5627 7.67676 17.5625H12.8232L12.9336 17.5684ZM19.0518 23.4658V30.9688H21.4893V25.9033L23.9268 28.3408V32.3232L23.9219 32.4336C23.8665 32.9799 23.4047 33.4062 22.8438 33.4062H17.6982L17.5869 33.4004C17.0772 33.3485 16.6718 32.9434 16.6201 32.4336L16.6143 32.3232V21.0283L19.0518 23.4658ZM28.9922 33.4062H27.7188C27.1579 33.4062 26.6971 32.9799 26.6416 32.4336L26.6357 32.3232V31.0498L28.9922 33.4062ZM32.8643 6.59375C33.4625 6.59375 33.9481 7.0786 33.9482 7.67676V32.3232L33.9424 32.4336C33.8869 32.9799 33.4252 33.4062 32.8643 33.4062H31.8105C31.7879 33.3781 31.7644 33.3503 31.7383 33.3242L29.3828 30.9688H31.5107V9.03125H29.0732V30.6592L26.6357 28.2217V7.67676C26.6359 7.07864 27.1206 6.59381 27.7188 6.59375H32.8643ZM9.03125 30.9688H11.4688V20H9.03125V30.9688ZM22.8438 11.4688C23.4419 11.4688 23.9266 11.9536 23.9268 12.5518V25.5127L21.4893 23.0752V13.9062H19.0518V20.6377L16.6143 18.2002V12.5518C16.6144 11.9911 17.0409 11.5302 17.5869 11.4746L17.6982 11.4688H22.8438Z" fill="#FF4545"/>
<path d="M6 6L34.0312 34.0312" stroke="#FF4545" stroke-width="2.5" stroke-linecap="round"/>
</svg>
