<svg width="40" height="40" viewBox="0 0 40 40" fill="none" xmlns="http://www.w3.org/2000/svg">
<path d="M13.5554 28V29.25H13.5554L13.5554 28ZM14.8748 11.3333V10.0833C15.2064 10.0833 15.5243 10.215 15.7587 10.4494C15.9931 10.6839 16.1248 11.0018 16.1248 11.3333H14.8748ZM14.8748 21.3333H16.1248V22.5833H14.8748V21.3333ZM14.8748 11.3333V12.5833L9.66651 12.5833V11.3333V10.0833L14.8748 10.0833V11.3333ZM7.094 30.357L8.00025 29.4961C8.7441 30.2791 9.92225 30.2791 10.6661 29.4961L11.5723 30.357L12.4786 31.218C10.7491 33.0385 7.91722 33.0385 6.18775 31.218L7.094 30.357ZM11.5723 25.643L10.6661 26.5039C9.92225 25.7209 8.7441 25.7209 8.00025 26.5039L7.094 25.643L6.18775 24.782C7.91722 22.9615 10.7491 22.9615 12.4786 24.782L11.5723 25.643ZM26.094 30.357L27.0003 29.4961C27.7441 30.2791 28.9222 30.2791 29.6661 29.4961L30.5723 30.357L31.4786 31.218C29.7491 33.0385 26.9172 33.0385 25.1878 31.218L26.094 30.357ZM30.5723 25.643L29.6661 26.5039C28.9222 25.7209 27.7441 25.7209 27.0003 26.5039L26.094 25.643L25.1878 24.782C26.9172 22.9615 29.7491 22.9615 31.4786 24.782L30.5723 25.643ZM7.094 25.643L8.00025 26.5039C7.61742 26.9069 7.4165 27.4452 7.4165 28H6.1665H4.9165C4.9165 26.8486 5.33392 25.6808 6.18775 24.782L7.094 25.643ZM6.1665 28H7.4165C7.4165 28.5548 7.61742 29.0931 8.00025 29.4961L7.094 30.357L6.18775 31.218C5.33392 30.3192 4.9165 29.1513 4.9165 28H6.1665ZM12.4998 28L12.4998 26.75L13.5554 26.75L13.5554 28L13.5554 29.25L12.4998 29.25L12.4998 28ZM11.5723 30.357L10.6661 29.4961C11.0489 29.0931 11.2498 28.5548 11.2498 28H12.4998H13.7498C13.7498 29.1513 13.3324 30.3192 12.4786 31.218L11.5723 30.357ZM12.4998 28H11.2498C11.2498 27.4452 11.0489 26.9069 10.6661 26.5039L11.5723 25.643L12.4786 24.782C13.3324 25.6808 13.7498 26.8486 13.7498 28H12.4998ZM30.5723 30.357L29.6661 29.4961C30.0489 29.0931 30.2498 28.5548 30.2498 28H31.4998H32.7498C32.7498 29.1513 32.3324 30.3192 31.4786 31.218L30.5723 30.357ZM31.4998 28H30.2498C30.2498 27.4452 30.0489 26.9069 29.6661 26.5039L30.5723 25.643L31.4786 24.782C32.3324 25.6808 32.7498 26.8487 32.7498 28H31.4998ZM13.5554 28V26.75L25.1665 26.75L25.1665 28V29.25L13.5554 29.25V28ZM26.094 25.643L27.0003 26.5039C26.6174 26.9069 26.4165 27.4452 26.4165 28H25.1665H23.9165C23.9165 26.8486 24.3339 25.6808 25.1878 24.782L26.094 25.643ZM25.1665 28H26.4165C26.4165 28.5548 26.6174 29.0931 27.0003 29.4961L26.094 30.357L25.1878 31.218C24.3339 30.3192 23.9165 29.1513 23.9165 28H25.1665ZM14.8748 21.3333H13.6248V11.3333H14.8748H16.1248V21.3333H14.8748ZM2.99984 18H4.24984V21.3333H2.99984H1.74984V18H2.99984ZM2.99984 21.3333H4.24984V24.8333H2.99984H1.74984V21.3333H2.99984ZM14.8748 21.3333V22.5833H2.99984V21.3333V20.0833H14.8748V21.3333ZM34.6665 24.8333H33.4165L33.4165 21.3333H34.6665L35.9165 21.3333L35.9165 24.8333H34.6665ZM6.1665 28V29.25C3.72725 29.25 1.74984 27.2726 1.74984 24.8333H2.99984H4.24984C4.24984 25.8919 5.10796 26.75 6.1665 26.75V28ZM9.66651 11.3333V12.5833C6.67496 12.5833 4.24984 15.0085 4.24984 18H2.99984H1.74984C1.74984 13.6277 5.29425 10.0833 9.66651 10.0833V11.3333ZM31.4998 28V26.75C32.5584 26.75 33.4165 25.8919 33.4165 24.8333H34.6665H35.9165C35.9165 27.2726 33.9391 29.25 31.4998 29.25V28Z" fill="#00AAF3"/>
<rect x="-1.25" y="1.25" width="20.8333" height="14.1667" rx="7.08333" transform="matrix(-1 0 0 1 35.5015 8)" fill="#00AAF3" stroke="#00AAF3" stroke-width="2.5"/>
</svg>
