<svg xmlns="http://www.w3.org/2000/svg" width="1440" height="850" viewBox="0 0 1440 850">
    <path d="M1428.672,264.125c-60.679-97.191-155.572-164.935-267.2-190.753a429.935,429.935,0,0,0-120.349-10.453l72.574,125.7c6.75,1.095,13.489,2.389,20.207,3.943a306.608,306.608,0,0,1,229.632,367.814c-37.987,164.234-202.109,267.127-366.358,229.964-209.8-60.359-236.49-214.535-267.36-392.985-15.788-91.265-32.114-185.637-75.828-267.165C601.945,33.132,519.872-29.359,403.077-60.854l-2.142-.536A388.864,388.864,0,0,0-16.55,523.407,389.307,389.307,0,0,0,419.629,691.67L322.372,583.9a267.6,267.6,0,0,1-69.123-6.76C110.067,544.026,20.521,400.6,53.639,257.413A266.522,266.522,0,0,1,372.313,57.562c174.328,47.473,203.638,168.058,236.955,360.65,16.548,95.658,33.66,194.57,81.66,282.2C747.7,804.057,837.417,872.1,965.205,908.443l2.947.759a428.684,428.684,0,0,0,96.7,11.084c195.12,0,372.07-134.289,417.88-332.339C1508.547,476.318,1489.349,361.315,1428.672,264.125Z" fill="#4ba5fd" opacity="0.4"/>
</svg>