<svg xmlns="http://www.w3.org/2000/svg" width="56" height="56" viewBox="0 0 56 56">
  <circle cx="28" cy="28" r="24"/>
  <g>
    <path d="M36.538,31.291c-.026-.027-.119-.113-.241-.226-.265-.243-.664-.612-.811-.772-.864-.945-1.332-2.244-1.332-4.551,0-3.569-1.968-6.046-4.514-6.79a1.758,1.758,0,0,0-3.279,0c-2.55.74-4.515,3.212-4.515,6.791,0,2.315-.467,3.613-1.331,4.553-.145.157-.536.517-.8.761-.126.116-.223.2-.252.235l-.254.257v3H36.792v-3Z" fill="#fff"/>
    <path d="M26.165,37.313a3.531,3.531,0,0,0,4.892-1.25H24.868A3.46,3.46,0,0,0,26.165,37.313Z" fill="#fff"/>
  </g>
</svg>
