<svg xmlns="http://www.w3.org/2000/svg" width="56" height="56" viewBox="0 0 56 56">
  <path d="M28,4h0A23.942,23.942,0,0,1,52,27.884V28h0A23.942,23.942,0,0,1,28.116,52H28A23.942,23.942,0,0,1,4,28.116V28H4A23.942,23.942,0,0,1,27.884,4Z"/>
  <path d="M35.8,29.4a2.93,2.93,0,0,0,.2-.9,2.225,2.225,0,0,0-.9-1.7,6.358,6.358,0,0,0-1.8-1,1.888,1.888,0,0,0-.8-.2,5.27,5.27,0,0,1-2,1.6,15.948,15.948,0,0,1,2.1.5,3.388,3.388,0,0,1,1.2.6l.2.2a.215.215,0,0,1-.2.2,3.388,3.388,0,0,1-1.2.6,11.332,11.332,0,0,1-3.6.6V25.8a4.026,4.026,0,1,0-4.9-2.9A4.23,4.23,0,0,0,27,25.8V30a15.051,15.051,0,0,1-3.6-.6,3.388,3.388,0,0,1-1.2-.6l-.2-.2a.215.215,0,0,1,.2-.2,3.388,3.388,0,0,1,1.2-.6,15.948,15.948,0,0,1,2.1-.5,5.27,5.27,0,0,1-2-1.6,2.36,2.36,0,0,1-.8.2,4,4,0,0,0-1.8,1,2.4,2.4,0,0,0-.9,1.7,2.93,2.93,0,0,0,.2.9C18.8,30,18,30.9,18,32c0,2.4,3.9,3.8,9,4v2h2V36c5.1-.2,9-1.6,9-4C38,30.9,37.2,30,35.8,29.4ZM20,32c0-.4.7-.8,1.8-1.2.3.1.6.3.9.4A15.559,15.559,0,0,0,27,32v2C23.1,33.8,20,32.7,20,32Zm9,2V32a12.61,12.61,0,0,0,4.3-.8,3.575,3.575,0,0,0,.9-.4Q36,31.4,36,32C36,32.7,32.9,33.8,29,34Z" fill="#fff"/>
</svg>
