<svg width="40" height="40" viewBox="0 0 40 40" fill="none" xmlns="http://www.w3.org/2000/svg">
<path d="M25.0002 17.0833L32.9499 13.2087C33.216 13.0791 33.5117 13.0178 33.809 13.0309C34.1062 13.0439 34.395 13.1308 34.6481 13.2833C34.9012 13.4357 35.1102 13.6487 35.2551 13.902C35.4001 14.1553 35.4763 14.4406 35.4764 14.7306V26.2455C35.4763 26.5356 35.4001 26.8208 35.2551 27.0741C35.1102 27.3274 34.9012 27.5404 34.6481 27.6929C34.395 27.8454 34.1062 27.9322 33.809 27.9453C33.5117 27.9583 33.216 27.8971 32.9499 27.7675L25.0002 23.8929V17.0833ZM4.04785 13.6786C4.04785 12.7756 4.41576 11.9096 5.07065 11.271C5.72554 10.6325 6.61376 10.2738 7.53992 10.2738H21.5082C22.4343 10.2738 23.3225 10.6325 23.9774 11.271C24.6323 11.9096 25.0002 12.7756 25.0002 13.6786V27.2976C25.0002 28.2006 24.6323 29.0666 23.9774 29.7051C23.3225 30.3437 22.4343 30.7024 21.5082 30.7024H7.53992C6.61376 30.7024 5.72554 30.3437 5.07065 29.7051C4.41576 29.0666 4.04785 28.2006 4.04785 27.2976V13.6786Z" fill="white"/>
</svg>
