<svg width="22" height="22" viewBox="0 0 22 22" fill="none" xmlns="http://www.w3.org/2000/svg">
<g filter="url(#filter0_d_6104_10226)">
<rect x="2" y="1" width="18" height="18" rx="9" fill="#FF7E14" shape-rendering="crispEdges"/>
<rect x="2.5" y="1.5" width="17" height="17" rx="8.5" stroke="white" shape-rendering="crispEdges"/>
<path d="M11.9338 8.41288L13.0171 6.15519C13.0405 6.10654 13.0771 6.06261 13.0876 6.00967C13.0889 6.0032 13.0897 5.99666 13.0901 5.99007C13.0921 5.95729 13.0829 5.92469 13.0634 5.89576C13.044 5.86682 13.0152 5.84263 12.9799 5.82576C12.9446 5.80889 12.9043 5.79997 12.8632 5.79995L9.13705 5.79995C9.09705 5.79994 9.05776 5.80835 9.02314 5.82434C8.98852 5.84033 8.9598 5.86333 8.93988 5.89102C8.91995 5.9187 8.90953 5.95009 8.90967 5.98202C8.90969 5.98677 8.90994 5.9915 8.91043 5.99621C8.91607 6.05127 8.95097 6.0989 8.97137 6.15035L9.86819 8.41288" fill="white"/>
<path d="M8.38696 9.42064L8.38696 13.1534C8.38696 13.5657 8.77691 13.8999 9.25794 13.8999L12.7418 13.8999C13.2229 13.8999 13.6128 13.5657 13.6128 13.1534L13.6128 9.42064C13.6128 9.00833 13.2229 8.67409 12.7418 8.67409L9.25794 8.67409C8.77691 8.67409 8.38696 9.00833 8.38696 9.42064Z" fill="white"/>
<path d="M4.00009 6L18.0693 14.8991" stroke="#DCDCDC" stroke-width="1.5"/>
<rect x="2.5" y="18.5" width="17" height="17" rx="8.5" transform="rotate(-90 2.5 18.5)" stroke="white"/>
</g>
<defs>
<filter id="filter0_d_6104_10226" x="0" y="0" width="22" height="22" filterUnits="userSpaceOnUse" color-interpolation-filters="sRGB">
<feFlood flood-opacity="0" result="BackgroundImageFix"/>
<feColorMatrix in="SourceAlpha" type="matrix" values="0 0 0 0 0 0 0 0 0 0 0 0 0 0 0 0 0 0 127 0" result="hardAlpha"/>
<feOffset dy="1"/>
<feGaussianBlur stdDeviation="1"/>
<feComposite in2="hardAlpha" operator="out"/>
<feColorMatrix type="matrix" values="0 0 0 0 1 0 0 0 0 0.494118 0 0 0 0 0.0784314 0 0 0 0.1 0"/>
<feBlend mode="normal" in2="BackgroundImageFix" result="effect1_dropShadow_6104_10226"/>
<feBlend mode="normal" in="SourceGraphic" in2="effect1_dropShadow_6104_10226" result="shape"/>
</filter>
</defs>
</svg>
