<svg width="32" height="42" viewBox="0 0 32 42" fill="none" xmlns="http://www.w3.org/2000/svg">
<path d="M0 0L32 0L24.32 31.1856L7.68 31.1856L0 0Z" fill="url(#paint0_linear_6104_10214)"/>
<g filter="url(#filter0_d_6104_10214)">
<rect x="7" y="23.75" width="18" height="18" rx="9" fill="#2CD232" shape-rendering="crispEdges"/>
<rect x="7.5" y="24.25" width="17" height="17" rx="8.5" stroke="white" shape-rendering="crispEdges"/>
<path d="M16.9338 31.4129L18.0171 29.1552C18.0405 29.1065 18.0771 29.0626 18.0876 29.0097C18.0889 29.0032 18.0897 28.9967 18.0901 28.9901C18.0921 28.9573 18.0829 28.9247 18.0634 28.8958C18.044 28.8668 18.0152 28.8426 17.9799 28.8258C17.9446 28.8089 17.9043 28.8 17.8632 28.7999L14.137 28.7999C14.0971 28.7999 14.0578 28.8084 14.0231 28.8243C13.9885 28.8403 13.9598 28.8633 13.9399 28.891C13.92 28.9187 13.9095 28.9501 13.9097 28.982C13.9097 28.9868 13.9099 28.9915 13.9104 28.9962C13.9161 29.0513 13.951 29.0989 13.9714 29.1504L14.8682 31.4129" fill="white"/>
<path d="M13.387 32.4206L13.387 36.1534C13.387 36.5657 13.7769 36.8999 14.2579 36.8999L17.7418 36.8999C18.2229 36.8999 18.6128 36.5657 18.6128 36.1534L18.6128 32.4206C18.6128 32.0083 18.2229 31.6741 17.7418 31.6741L14.2579 31.6741C13.7769 31.6741 13.387 32.0083 13.387 32.4206Z" fill="white"/>
</g>
<defs>
<filter id="filter0_d_6104_10214" x="6" y="20.75" width="20" height="21" filterUnits="userSpaceOnUse" color-interpolation-filters="sRGB">
<feFlood flood-opacity="0" result="BackgroundImageFix"/>
<feColorMatrix in="SourceAlpha" type="matrix" values="0 0 0 0 0 0 0 0 0 0 0 0 0 0 0 0 0 0 127 0" result="hardAlpha"/>
<feOffset dy="-2"/>
<feGaussianBlur stdDeviation="0.5"/>
<feComposite in2="hardAlpha" operator="out"/>
<feColorMatrix type="matrix" values="0 0 0 0 0.290824 0 0 0 0 0.814772 0 0 0 0 0.21673 0 0 0 0.1 0"/>
<feBlend mode="normal" in2="BackgroundImageFix" result="effect1_dropShadow_6104_10214"/>
<feBlend mode="normal" in="SourceGraphic" in2="effect1_dropShadow_6104_10214" result="shape"/>
</filter>
<linearGradient id="paint0_linear_6104_10214" x1="16" y1="3.63832" x2="16" y2="28.6571" gradientUnits="userSpaceOnUse">
<stop stop-color="#2CD232" stop-opacity="0"/>
<stop offset="1" stop-color="#2CD232"/>
</linearGradient>
</defs>
</svg>
