<svg width="24" height="24" viewBox="0 0 24 24" fill="none" xmlns="http://www.w3.org/2000/svg">
<path fill-rule="evenodd" clip-rule="evenodd" d="M13 16.9759V17V18.9797C16.9483 18.8195 20 17.7451 20 17C20 16.6446 19.3057 16.2143 18.151 15.844C17.8795 15.98 17.5887 16.1014 17.2861 16.2095C16.1203 16.6259 14.6299 16.8968 13 16.9759ZM13 20.9834C18.0513 20.8136 22 19.3535 22 17C22 15.9238 21.1744 15.0345 19.7952 14.3699C19.9218 14.1115 20 13.8213 20 13.5C20 12.7463 19.5695 12.1635 19.0951 11.7628C18.616 11.3583 17.982 11.039 17.2861 10.7905C16.8096 10.6203 16.2788 10.4744 15.7064 10.356C16.5103 9.46873 17 8.29155 17 7C17 4.23858 14.7614 2 12 2C9.23858 2 7 4.23858 7 7C7 8.29155 7.4897 9.46873 8.29356 10.356C7.7212 10.4744 7.19044 10.6203 6.71392 10.7905C6.01803 11.039 5.38405 11.3583 4.90494 11.7628C4.43048 12.1635 4 12.7463 4 13.5C4 13.8213 4.07823 14.1115 4.20475 14.3699C2.82562 15.0345 2 15.9238 2 17C2 19.3535 5.94873 20.8136 11 20.9834V23H13V20.9834ZM11 18.9797C7.05175 18.8195 4 17.7451 4 17C4 16.6446 4.69428 16.2143 5.84897 15.844C6.12048 15.98 6.41135 16.1014 6.71392 16.2095C7.87968 16.6259 9.37008 16.8968 11 16.9759V17V18.9797ZM13 14.9733C14.4345 14.896 15.6895 14.656 16.6134 14.326C17.1843 14.1221 17.5754 13.9027 17.8048 13.7091C17.9296 13.6037 17.9768 13.5332 17.9937 13.5C17.9768 13.4668 17.9296 13.3963 17.8048 13.2909C17.5754 13.0973 17.1843 12.8779 16.6134 12.674C15.6895 12.344 14.4345 12.104 13 12.0267V14.9733ZM11 12.0267C9.56547 12.104 8.31047 12.344 7.38659 12.674C6.81573 12.8779 6.42458 13.0973 6.19525 13.2909C6.07042 13.3963 6.02321 13.4668 6.00633 13.5C6.02321 13.5332 6.07042 13.6037 6.19525 13.7091C6.42458 13.9027 6.81573 14.1221 7.38659 14.326C8.31047 14.656 9.56547 14.896 11 14.9733V12.0267ZM12 10C13.6569 10 15 8.65685 15 7C15 5.34315 13.6569 4 12 4C10.3431 4 9 5.34315 9 7C9 8.65685 10.3431 10 12 10ZM5.99763 13.522C5.99751 13.522 5.99777 13.5204 5.99878 13.5174C5.99827 13.5204 5.99776 13.522 5.99763 13.522ZM18.0012 13.5174L18.0018 13.5203L18.0024 13.522C18.0024 13.522 18.0024 13.5215 18.0022 13.5205L18.0012 13.5174ZM18.0012 13.4826C18.0017 13.4796 18.0022 13.478 18.0024 13.478C18.0025 13.478 18.0022 13.4796 18.0012 13.4826ZM5.99763 13.478C5.99751 13.478 5.99777 13.4796 5.99878 13.4826L5.99798 13.4789L5.99763 13.478Z" fill="#3596FC"/>
</svg>
