<svg xmlns="http://www.w3.org/2000/svg" width="24" height="24" fill="none" viewBox="0 0 24 24">
  <path stroke="currentColor" stroke-linecap="round" stroke-linejoin="round" stroke-width="2" d="M22 22h-3.5a1.93 1.93 0 0 1 1.31-2.14c.93-.43 2.19-1 2.19-2.14 0-.409-.15-.803-.42-1.11A1.87 1.87 0 0 0 20.5 16a2 2 0 0 0-1.21.21 1.77 1.77 0 0 0-.79.92M2 10a4.68 4.68 0 0 1 4.08-3 6 6 0 0 1 11.84 0A4.5 4.5 0 0 1 22 11.5a4.57 4.57 0 0 1-.25 1.5M7 19a2 2 0 0 1-2 2H4a2 2 0 0 1-2-2v-4a2 2 0 0 1 2-2h1a2 2 0 0 1 2 2m6 6h-1a2 2 0 0 1-2-2v-4a2 2 0 0 1 2-2h1a2 2 0 0 1 2 2v4a2 2 0 0 1-2 2Z"/>
</svg>
