<svg xmlns="http://www.w3.org/2000/svg" width="24" height="24" fill="none" viewBox="0 0 24 24">
  <path stroke="currentColor" stroke-linecap="round" stroke-linejoin="round" stroke-width="2" d="M14 15.45a2.22 2.22 0 0 1-1-1.9v-5.1A2.45 2.45 0 0 1 15.45 6h1.1A2.45 2.45 0 0 1 19 8.45V11M9 13.5A2.46 2.46 0 0 1 6.6 16H5.4A2.46 2.46 0 0 1 3 13.5v-5A2.46 2.46 0 0 1 5.4 6h1.2A2.46 2.46 0 0 1 9 8.5M21 21h-4a2.25 2.25 0 0 1 1.5-2.5C19.56 18 21 17.33 21 16a2 2 0 0 0-.48-1.29 2.13 2.13 0 0 0-1.23-.71 2.16 2.16 0 0 0-1.39.24 2 2 0 0 0-.9 1.07"/>
</svg>
