<svg xmlns="http://www.w3.org/2000/svg" width="24" height="24" fill="none" viewBox="0 0 24 24">
  <path stroke="currentColor" stroke-linecap="round" stroke-linejoin="round" stroke-width="2" d="M8.4 3H4.6a2.43 2.43 0 0 0-1 .11.94.94 0 0 0-.44.44A2.43 2.43 0 0 0 3 4.6v3.8a2.43 2.43 0 0 0 .11 1 .94.94 0 0 0 .44.44 2.43 2.43 0 0 0 1 .11H8.4a2.43 2.43 0 0 0 1-.11.94.94 0 0 0 .44-.44 2.43 2.43 0 0 0 .11-1V4.6a2.43 2.43 0 0 0-.11-1 .94.94 0 0 0-.44-.44 2.43 2.43 0 0 0-1-.16Zm11 11h-3.8a2.428 2.428 0 0 0-1 .11.94.94 0 0 0-.44.44 2.428 2.428 0 0 0-.11 1v3.8c-.04.354-.003.712.11 1.05a.94.94 0 0 0 .44.44 2.43 2.43 0 0 0 1 .11h3.8c.354.04.713.003 1.05-.11a.94.94 0 0 0 .44-.44 2.43 2.43 0 0 0 .11-1v-3.8a2.43 2.43 0 0 0-.11-1 .94.94 0 0 0-.44-.44A2.43 2.43 0 0 0 19.4 14ZM3 17.5a3.5 3.5 0 1 1 7 0 3.5 3.5 0 0 1-7 0Zm11.22-8.43L17 3.54c.15-.3.23-.46.33-.51a.34.34 0 0 1 .28 0c.1.05.18.21.33.51l2.81 5.53c.116.175.191.373.22.58a.42.42 0 0 1-.14.28c-.09.07-.24.07-.55.07h-5.59c-.31 0-.46 0-.55-.07a.42.42 0 0 1-.14-.28 1.4 1.4 0 0 1 .22-.58Z"/>
</svg>
