<svg xmlns="http://www.w3.org/2000/svg" width="24" height="24" fill="none" viewBox="0 0 24 24">
  <path stroke="currentColor" stroke-linecap="round" stroke-linejoin="round" stroke-width="2" d="m3.08 7.48 4.28 3.07c.137.111.292.196.46.25a.52.52 0 0 0 .3 0c.137-.11.256-.241.35-.39l.91-1.2a.33.33 0 0 1 .09-.12L9.55 9l.14-.06 3.87-1.74c.108-.042.209-.099.3-.17a.48.48 0 0 0 .14-.17 1.16 1.16 0 0 0 0-.34l.29-4.25M7 20.66A10 10 0 1 1 20.66 7M11 22l5.5-5.5m0 5.5a5.51 5.51 0 0 1-5.5-5.5 5.51 5.51 0 0 1 5.5-5.5h5a.5.5 0 0 1 .5.5v5a5.51 5.51 0 0 1-5.5 5.5Z"/>
</svg>
