<svg xmlns="http://www.w3.org/2000/svg" width="24" height="24" fill="none" viewBox="0 0 24 24">
  <path stroke="currentColor" stroke-linecap="round" stroke-width="2" d="M22 20c-.64-1.29-2-3-2-4.47 0-1.7.37-3.8-.42-5.37a4.6 4.6 0 0 1-.58-2.1V4.43a.43.43 0 0 0-.43-.43A2.57 2.57 0 0 0 16 6.57M9 18l3.63 2.27c.245.148.454.35.61.59L14 22M6 4a2 2 0 0 1 2-2h6a2 2 0 0 1 2 2v12a2 2 0 0 1-2 2H8a2 2 0 0 1-2-2M4.5 7h1.8a1.5 1.5 0 0 0 0-3H4.5a1.5 1.5 0 0 0 0 3Zm0 0h3a1.5 1.5 0 0 1 0 3h-3m0-3a1.5 1.5 0 0 0 0 3m0 0h1.8a1.5 1.5 0 1 1 0 3H4.5m0-3a1.5 1.5 0 1 0 0 3m0 0h1.2a1.5 1.5 0 1 1 0 3H4.5a1.5 1.5 0 1 1 0-3Zm6.45 1h.1"/>
</svg>
