<svg xmlns="http://www.w3.org/2000/svg" width="24" height="24" fill="none" viewBox="0 0 24 24">
  <path stroke="currentColor" stroke-linecap="round" stroke-linejoin="round" stroke-width="2" d="M8 3h-.2c-1.68 0-2.52 0-3.162.327a3 3 0 0 0-1.311 1.311C3 5.28 3 6.12 3 7.8V8m5 13h-.2c-1.68 0-2.52 0-3.162-.327a3 3 0 0 1-1.311-1.311C3 18.72 3 17.88 3 16.2V16m18-8v-.2c0-1.68 0-2.52-.327-3.162a3 3 0 0 0-1.311-1.311C18.72 3 17.88 3 16.2 3H16m5 13v.2c0 1.68 0 2.52-.327 3.162a3 3 0 0 1-1.311 1.311C18.72 21 17.88 21 16.2 21H16m1-5.5c-2.09-.1-3.6-2.15-4.34-3.4a1.4 1.4 0 0 0-.71-.61m0 0a1.44 1.44 0 0 0-.94 0c-1.33.39-3.4 1.06-3.89 1.62-.18.2-.12 1.38-.12 1.38m4.95-3-1.47 6M14 7.5a1 1 0 1 1-2 0 1 1 0 0 1 2 0Z"/>
</svg>
