<svg xmlns="http://www.w3.org/2000/svg" width="24" height="24" fill="none" viewBox="0 0 24 24">
  <path stroke="currentColor" stroke-linecap="round" stroke-linejoin="round" stroke-width="2" d="M5.5 9V7.8c0-1.68 0-2.52.327-3.162a3 3 0 0 1 1.311-1.311C7.78 3 8.62 3 10.3 3h.588c.778 0 1.167 0 1.53.092a3 3 0 0 1 .907.399c.313.205.576.492 1.102 1.066l2.811 3.067c.467.508.7.763.866 1.054.148.258.256.537.322.827.074.327.074.672.074 1.362V13m-13-4h2a5 5 0 0 1 4 2 5 5 0 0 0 4 2h3m-13-4v7m13-3v3M8 18.5A2.5 2.5 0 1 1 5.5 16M8 18.5A2.5 2.5 0 0 0 5.5 16M8 18.5h8m0 0a2.5 2.5 0 1 0 2.5-2.5M16 18.5a2.5 2.5 0 0 1 2.5-2.5"/>
</svg>
