<svg xmlns="http://www.w3.org/2000/svg" width="24" height="24" fill="none" viewBox="0 0 24 24">
  <path stroke="currentColor" stroke-width="2" d="M12 8v4m0 0v4m0-4h5.75a2 2 0 0 1 2 2v2M12 12H6.25a2 2 0 0 0-2 2v2m10-8.5V4a.5.5 0 0 0-.5-.5h-3.5a.5.5 0 0 0-.5.5v3.5a.5.5 0 0 0 .5.5h3.5a.5.5 0 0 0 .5-.5Zm0 12.5v-3.5a.5.5 0 0 0-.5-.5h-3.5a.5.5 0 0 0-.5.5V20a.5.5 0 0 0 .5.5h3.5a.5.5 0 0 0 .5-.5ZM6.5 20v-3.5A.5.5 0 0 0 6 16H2.5a.5.5 0 0 0-.5.5V20a.5.5 0 0 0 .5.5H6a.5.5 0 0 0 .5-.5ZM22 20v-3.5a.5.5 0 0 0-.5-.5H18a.5.5 0 0 0-.5.5V20a.5.5 0 0 0 .5.5h3.5a.5.5 0 0 0 .5-.5Z"/>
</svg>
