<svg xmlns="http://www.w3.org/2000/svg" width="24" height="24" fill="none" viewBox="0 0 24 24">
  <path stroke="currentColor" stroke-linecap="round" stroke-linejoin="round" stroke-width="2" d="M22 11V8.2c0-1.12 0-1.68-.218-2.108a2 2 0 0 0-.874-.874C20.48 5 19.92 5 18.8 5H5.2c-1.12 0-1.68 0-2.108.218a2 2 0 0 0-.874.874C2 6.52 2 7.08 2 8.2v3.6c0 1.12 0 1.68.218 2.108a2 2 0 0 0 .874.874C3.52 15 4.08 15 5.2 15H11m1-5h.005M17 10h.005M7 10h.005m8.145 6.497a3.5 3.5 0 1 1 .67 3.25m-.67-3.25h1.45m-1.45 0h-.55v-2M12.25 10a.25.25 0 1 1-.5 0 .25.25 0 0 1 .5 0Zm5 0a.25.25 0 1 1-.5 0 .25.25 0 0 1 .5 0Zm-10 0a.25.25 0 1 1-.5 0 .25.25 0 0 1 .5 0Z"/>
</svg>
