<svg xmlns="http://www.w3.org/2000/svg" width="24" height="24" fill="none" viewBox="0 0 24 24">
  <path stroke="currentColor" stroke-linecap="round" stroke-linejoin="round" stroke-width="2" d="M9 7V3m6 4V3M7.1 7h9.8c.56 0 .84 0 1.054.109a1 1 0 0 1 .437.437c.109.214.109.494.109 1.054v1.995c0 .89 0 1.335-.093 1.758a4 4 0 0 1-.403 1.073c-.209.38-.502.714-1.088 1.384l-1.52 1.738c-.147.167-.22.25-.272.346-.046.084-.08.174-.1.268-.024.105-.024.217-.024.44V19.4c0 .56 0 .84-.109 1.054a1 1 0 0 1-.437.437C14.24 21 13.96 21 13.4 21h-2.8c-.56 0-.84 0-1.054-.109a1 1 0 0 1-.437-.437C9 20.24 9 19.96 9 19.4v-1.799c0-.222 0-.334-.023-.44a1 1 0 0 0-.101-.268c-.052-.094-.125-.178-.272-.345l-1.52-1.738c-.586-.67-.88-1.005-1.088-1.384a4 4 0 0 1-.403-1.073c-.093-.423-.093-.868-.093-1.758V8.6c0-.56 0-.84.109-1.054a1 1 0 0 1 .437-.437C6.26 7 6.54 7 7.1 7Z"/>
</svg>
