<svg xmlns="http://www.w3.org/2000/svg" width="24" height="24" fill="none" viewBox="0 0 24 24">
  <path stroke="currentColor" stroke-linecap="round" stroke-linejoin="round" stroke-width="2" d="M12 17.5h.005m4.995 0h.005M7 17.5h.005m6.764-7.193 1.415-1.416a.5.5 0 0 0 0-.707l-2.83-2.83A.499.499 0 0 0 12 5.207m-1.769 5.1L8.816 8.89a.5.5 0 0 1 0-.707l2.83-2.83A.499.499 0 0 1 12 5.207m0 0V2.5m-6 0h6m0 0h6m-5.75 15a.25.25 0 1 1-.5 0 .25.25 0 0 1 .5 0Zm5 0a.25.25 0 1 1-.5 0 .25.25 0 0 1 .5 0Zm-10 0a.25.25 0 1 1-.5 0 .25.25 0 0 1 .5 0ZM6 21.5h12a4 4 0 0 0 0-8H6a4 4 0 0 0 0 8Z"/>
</svg>
