<svg width="20" height="18" viewBox="0 0 20 18" fill="none" xmlns="http://www.w3.org/2000/svg">
<rect x="6.02881" y="4.12198" width="4.79281" height="3.74619" rx="0.350716" stroke="#657989" stroke-width="1.5"/>
<path d="M11.5439 0.952637C13.0147 0.952637 14.207 2.14499 14.207 3.61572V13.4624L15.0098 13.6313C15.5195 13.7381 15.8846 14.1878 15.8848 14.7085V15.9468C15.8845 16.5544 15.3919 17.0473 14.7842 17.0474H2.06543C1.45788 17.0471 0.96508 16.5543 0.964844 15.9468V14.7085C0.965038 14.1889 1.32916 13.7384 1.83984 13.6313L2.64258 13.4624V3.61572C2.64258 2.14499 3.83494 0.952644 5.30566 0.952637H11.5439ZM5.30566 2.45264C4.66336 2.45264 4.14258 2.97342 4.14258 3.61572V14.0728L4.13867 14.1499C4.13755 14.1609 4.13342 14.1713 4.13184 14.1821C4.12848 14.2049 4.12454 14.2273 4.11914 14.2495C4.11282 14.2756 4.10468 14.3007 4.0957 14.3257C4.08899 14.3443 4.08138 14.3624 4.07324 14.3804C4.0624 14.4043 4.05031 14.4272 4.03711 14.4497C4.02586 14.469 4.01486 14.4882 4.00195 14.5063C3.98885 14.5247 3.97463 14.542 3.95996 14.5591C3.94452 14.5772 3.92925 14.5952 3.91211 14.6118C3.89475 14.6285 3.87535 14.6427 3.85645 14.6577C3.83859 14.6719 3.82098 14.6861 3.80176 14.6987C3.78014 14.7129 3.75747 14.7249 3.73438 14.7368C3.71501 14.7468 3.6962 14.7578 3.67578 14.7661C3.66873 14.769 3.66146 14.7713 3.6543 14.7739C3.6194 14.7869 3.58345 14.7993 3.5459 14.8071L2.46484 15.0327V15.5474H14.3848V15.0327L13.3037 14.8071L13.2295 14.7876C13.2159 14.7833 13.2036 14.776 13.1904 14.771C13.1727 14.7642 13.1557 14.7566 13.1387 14.7485C13.1127 14.7363 13.0876 14.7234 13.0635 14.7085C13.0467 14.6981 13.0305 14.687 13.0146 14.6753C12.9935 14.6597 12.9734 14.6431 12.9541 14.6255C12.9387 14.6115 12.9233 14.5977 12.9092 14.5825C12.8931 14.5651 12.8786 14.5466 12.8643 14.5278C12.8487 14.5076 12.8338 14.4871 12.8203 14.4653C12.812 14.4518 12.8053 14.4374 12.7979 14.4233C12.7828 14.3951 12.7682 14.3667 12.7568 14.3364C12.7509 14.3205 12.7471 14.3039 12.7422 14.2876C12.7216 14.2192 12.707 14.1478 12.707 14.0728V3.61572C12.707 2.97342 12.1862 2.45264 11.5439 2.45264H5.30566Z" fill="#657989"/>
<path d="M13.9365 5.99509L15.8803 7.86818V11.8084C15.8803 12.3966 16.3571 12.8734 16.9453 12.8734V12.8734C17.5336 12.8734 18.0104 12.3966 18.0104 11.8084V6.46336V4.74014L15.8536 3.65372" stroke="#657989" stroke-width="1.5" stroke-linecap="round" stroke-linejoin="round"/>
<path d="M16.9693 4.13581C17.039 4.09659 17.1657 4.07672 17.3535 4.16232C17.5401 4.24743 17.7457 4.42304 17.8998 4.68371C18.0538 4.94437 18.1066 5.20617 18.0888 5.40662C18.0708 5.60833 17.9898 5.70563 17.9202 5.74499C17.8505 5.78428 17.7239 5.80416 17.5359 5.71849C17.3493 5.63339 17.1438 5.45786 16.9897 5.19709C16.8356 4.9363 16.7827 4.67466 16.8006 4.47418C16.8187 4.27229 16.8996 4.1751 16.9693 4.13581Z" stroke="#657989" stroke-width="0.956498"/>
</svg>
