<svg width="20" height="16" viewBox="0 0 20 16" fill="none" xmlns="http://www.w3.org/2000/svg">
<path d="M7.82051 15V10.5956C7.82051 9.87762 8.40259 9.29559 9.12056 9.29559C9.72719 9.29559 10.2728 9.29559 10.8794 9.29559C11.5974 9.29559 12.1795 9.87762 12.1795 10.5956V15M7.82051 15H2.91667M7.82051 15H10H12.1795M2.91667 15V7M2.91667 15H1.5M17.0833 7V15M17.0833 15H12.1795M17.0833 15H18.5" stroke="#657989" stroke-width="1.5" stroke-linecap="round" stroke-linejoin="round"/>
<path d="M14.2834 4.45031C14.2834 5.58447 13.3283 6.5 12.1452 6.5C10.9622 6.5 10.0071 5.58447 10.0071 4.45031C10.0071 5.58447 9.0521 6.5 7.869 6.5C6.68591 6.5 5.73088 5.58447 5.73088 4.45031C5.73088 5.58447 4.77586 6.5 3.59276 6.5C2.68762 6.5 1.9179 5.96708 1.60431 5.2087C1.44751 4.82609 1.47602 4.40248 1.63282 4.01988L2.43105 2.0795C2.70188 1.43043 3.35757 1 4.08453 1H15.9155C16.6496 1 17.3052 1.43043 17.569 2.0795L18.3672 4.01988C18.524 4.40248 18.5525 4.82609 18.3957 5.2087C18.0821 5.96708 17.3124 6.5 16.4072 6.5C15.2241 6.5 14.2691 5.58447 14.2691 4.45031H14.2834Z" stroke="#657989" stroke-width="1.5" stroke-linecap="round" stroke-linejoin="round"/>
</svg>
