<svg width="24" height="24" viewBox="0 0 24 24" fill="none" xmlns="http://www.w3.org/2000/svg">
<path d="M16.6665 8.71211C16.6665 9.91298 15.6851 10.8824 14.4692 10.8824C13.2534 10.8824 12.2719 9.91298 12.2719 8.71211C12.2719 9.91298 11.2905 10.8824 10.0746 10.8824C8.85876 10.8824 7.8773 9.91298 7.8773 8.71211C7.8773 9.91298 6.89583 10.8824 5.67999 10.8824C4.7498 10.8824 3.95877 10.3181 3.63649 9.5151C3.47536 9.10999 3.50465 8.66147 3.66579 8.25635L4.48612 6.20184C4.76445 5.51459 5.43829 5.05884 6.18537 5.05884H18.3438C19.0982 5.05884 19.7721 5.51459 20.0431 6.20184L20.8634 8.25635C21.0245 8.66147 21.0538 9.10999 20.8927 9.5151C20.5704 10.3181 19.7794 10.8824 18.8492 10.8824C17.6333 10.8824 16.6519 9.91298 16.6519 8.71211H16.6665Z" fill="#00AAF3"/>
<path d="M12.272 10.2806C12.8212 10.9307 13.6158 11.3529 14.5366 11.3529C15.4529 11.3527 16.2436 10.9342 16.7925 10.2894C17.3415 10.9344 18.1328 11.3529 19.0493 11.3529C19.2974 11.3528 19.5368 11.3218 19.7651 11.264V17.7581C19.7651 18.4328 19.218 18.9796 18.5435 18.9798H5.98682C5.31208 18.9798 4.76514 18.4329 4.76514 17.7581V11.264C4.99344 11.3218 5.23287 11.3529 5.48096 11.3529C6.40147 11.3527 7.19548 10.9305 7.74463 10.2806C8.29387 10.9306 9.08858 11.3529 10.0093 11.3529C10.9295 11.3526 11.7229 10.9303 12.272 10.2806ZM11.5767 13.9622C11.2259 13.9622 10.9412 14.2464 10.9409 14.597V18.4134H13.8003V14.597C13.8001 14.2464 13.5153 13.9622 13.1646 13.9622H11.5767Z" fill="#00AAF3"/>
<path d="M4 18.8235L20.5 18.8235" stroke="#00AAF3" stroke-width="1.58824" stroke-linecap="round" stroke-linejoin="round"/>
</svg>
