<svg width="24" height="24" viewBox="0 0 24 24" fill="none" xmlns="http://www.w3.org/2000/svg">
<path d="M9.82051 19V14.5956C9.82051 13.8776 10.4026 13.2956 11.1206 13.2956C11.7272 13.2956 12.2728 13.2956 12.8794 13.2956C13.5974 13.2956 14.1795 13.8776 14.1795 14.5956V19M9.82051 19H4.91667M9.82051 19H12H14.1795M4.91667 19V11M4.91667 19H3.5M19.0833 11V19M19.0833 19H14.1795M19.0833 19H20.5" stroke="#657989" stroke-width="1.5" stroke-linecap="round" stroke-linejoin="round"/>
<path d="M16.2834 8.45031C16.2834 9.58447 15.3283 10.5 14.1452 10.5C12.9622 10.5 12.0071 9.58447 12.0071 8.45031C12.0071 9.58447 11.0521 10.5 9.869 10.5C8.68591 10.5 7.73088 9.58447 7.73088 8.45031C7.73088 9.58447 6.77586 10.5 5.59276 10.5C4.68762 10.5 3.9179 9.96708 3.60431 9.2087C3.44751 8.82609 3.47602 8.40248 3.63282 8.01988L4.43105 6.0795C4.70188 5.43043 5.35757 5 6.08453 5H17.9155C18.6496 5 19.3052 5.43043 19.569 6.0795L20.3672 8.01988C20.524 8.40248 20.5525 8.82609 20.3957 9.2087C20.0821 9.96708 19.3124 10.5 18.4072 10.5C17.2241 10.5 16.2691 9.58447 16.2691 8.45031H16.2834Z" stroke="#657989" stroke-width="1.5" stroke-linecap="round" stroke-linejoin="round"/>
</svg>
