<svg width="19" height="18" viewBox="0 0 19 18" fill="none" xmlns="http://www.w3.org/2000/svg">
<path d="M13.6665 4.71211C13.6665 5.91298 12.6851 6.88237 11.4692 6.88237C10.2534 6.88237 9.27191 5.91298 9.27191 4.71211C9.27191 5.91298 8.29045 6.88237 7.07461 6.88237C5.85876 6.88237 4.8773 5.91298 4.8773 4.71211C4.8773 5.91298 3.89583 6.88237 2.67999 6.88237C1.7498 6.88237 0.958765 6.3181 0.636493 5.5151C0.475357 5.10999 0.504655 4.66147 0.665791 4.25635L1.48612 2.20184C1.76445 1.51459 2.43829 1.05884 3.18537 1.05884H15.3438C16.0982 1.05884 16.7721 1.51459 17.0431 2.20184L17.8634 4.25635C18.0245 4.66147 18.0538 5.10999 17.8927 5.5151C17.5704 6.3181 16.7794 6.88237 15.8492 6.88237C14.6333 6.88237 13.6519 5.91298 13.6519 4.71211H13.6665Z" fill="#00AAF3"/>
<path d="M9.27197 6.28061C9.82122 6.93073 10.6158 7.35287 11.5366 7.35287C12.4529 7.35273 13.2436 6.93419 13.7925 6.2894C14.3415 6.9344 15.1328 7.35287 16.0493 7.35287C16.2974 7.35284 16.5368 7.32182 16.7651 7.26401V13.7581C16.7651 14.4328 16.218 14.9796 15.5435 14.9798H2.98682C2.31208 14.9798 1.76514 14.4329 1.76514 13.7581V7.26401C1.99344 7.32181 2.23287 7.35287 2.48096 7.35287C3.40147 7.35274 4.19548 6.93051 4.74463 6.28061C5.29387 6.9306 6.08858 7.35287 7.00928 7.35287C7.92948 7.35259 8.72292 6.93027 9.27197 6.28061ZM8.57666 9.96225C8.22594 9.96225 7.94115 10.2464 7.94092 10.597V14.4134H10.8003V10.597C10.8001 10.2464 10.5153 9.96225 10.1646 9.96225H8.57666Z" fill="#00AAF3"/>
<path d="M1 14.8235L17.5 14.8235" stroke="#00AAF3" stroke-width="1.58824" stroke-linecap="round" stroke-linejoin="round"/>
</svg>
