<svg width="24" height="24" viewBox="0 0 24 24" fill="none" xmlns="http://www.w3.org/2000/svg">
<path d="M9.69231 13.1429V19.5H5.65385C5.01659 19.5 4.5 18.9834 4.5 18.3462V10.6291C4.5 10.1446 4.73395 9.69004 5.12814 9.40847L11.1281 5.12276C11.6497 4.75022 12.3503 4.75022 12.8719 5.12276L18.8719 9.40847C19.2661 9.69004 19.5 10.1446 19.5 10.6291V18.3462C19.5 18.9834 18.9834 19.5 18.3462 19.5H14.3077V13.1429H9.69231Z" fill="#00AAF3"/>
<path d="M9.69231 19.5V13.1429H14.3077V19.5M9.69231 19.5H5.65385C5.01659 19.5 4.5 18.9834 4.5 18.3462V10.6291C4.5 10.1446 4.73395 9.69004 5.12814 9.40847L11.1281 5.12276C11.6497 4.75022 12.3503 4.75022 12.8719 5.12276L18.8719 9.40847C19.2661 9.69004 19.5 10.1446 19.5 10.6291V18.3462C19.5 18.9834 18.9834 19.5 18.3462 19.5H14.3077M9.69231 19.5H14.3077" stroke="#00AAF3" stroke-width="1.5" stroke-linecap="round" stroke-linejoin="round"/>
</svg>
