<svg width="24" height="24" viewBox="0 0 24 24" fill="none" xmlns="http://www.w3.org/2000/svg">
<path d="M11.5986 4.7998C12.0698 4.7998 12.5203 4.99537 12.8418 5.33984L13.7891 6.35547C13.4169 6.91155 13.2002 7.58048 13.2002 8.2998C13.2002 10.2327 14.7673 11.7997 16.7002 11.7998C17.3329 11.7997 17.9253 11.6297 18.4375 11.3359L18.8096 11.7344C19.1028 12.0486 19.2666 12.4623 19.2666 12.8936V17.501C19.2664 18.9922 18.0572 20.2002 16.5664 20.2002H7.5C6.00883 20.2002 4.7998 18.9912 4.7998 17.5V7.5C4.7998 6.00883 6.00883 4.7998 7.5 4.7998H11.5986Z" fill="#00AAF3"/>
<path d="M19.4 7.99999C19.4 9.35309 18.3031 10.45 16.95 10.45C15.5969 10.45 14.5 9.35309 14.5 7.99999C14.5 6.64689 15.5969 5.54999 16.95 5.54999C18.3031 5.54999 19.4 6.64689 19.4 7.99999Z" fill="#00AAF3"/>
<path d="M8 14H14.0667" stroke="#EBF8FE" stroke-width="1.5" stroke-linecap="round"/>
<path d="M8 17.2667H12.2" stroke="#EBF8FE" stroke-width="1.5" stroke-linecap="round"/>
</svg>
