<svg width="24" height="24" viewBox="0 0 24 24" fill="none" xmlns="http://www.w3.org/2000/svg">
<path d="M11.2876 10.1641C10.4979 10.532 9.94977 11.3313 9.94971 12.2598C9.94995 13.5366 10.9853 14.5723 12.2622 14.5723C12.6425 14.5722 13.0004 14.4782 13.3169 14.3154L17.3433 18.3418C17.3998 18.3983 17.465 18.4405 17.5327 18.4746C16.0466 19.7384 14.1226 20.5028 12.019 20.5029C7.31433 20.5029 3.49984 16.689 3.49951 11.9844C3.49951 7.52591 6.92513 3.86915 11.2876 3.49805V10.1641ZM20.5005 12.7725C20.3357 14.5673 19.6134 16.1997 18.5093 17.498C18.4752 17.4303 18.433 17.3651 18.3765 17.3086L14.3384 13.2705C14.4151 13.1133 14.4765 12.9472 14.5161 12.7725H20.5005ZM12.7485 3.49707C16.851 3.84533 20.1229 7.10001 20.4995 11.1943H14.313C13.9995 10.5924 13.4305 10.1451 12.7485 9.99902V3.49707Z" fill="#00AAF3"/>
</svg>
