<svg width="24" height="24" viewBox="0 0 24 24" fill="none" xmlns="http://www.w3.org/2000/svg">
<path d="M13.5439 3.95264C15.0147 3.95264 16.207 5.14499 16.207 6.61572V16.4634L17.0098 16.6313C17.5195 16.7381 17.8846 17.1878 17.8848 17.7085V18.9468C17.8845 19.5544 17.3919 20.0473 16.7842 20.0474H4.06543C3.4958 20.0471 3.02715 19.6139 2.9707 19.0591L2.96484 18.9468V17.7085L2.96875 17.6118C3.01075 17.1339 3.36111 16.7317 3.83984 16.6313L4.64258 16.4634V6.61572C4.64258 5.14499 5.83494 3.95264 7.30566 3.95264H13.5439ZM8.37988 7.12158C8.18619 7.12158 8.0293 7.27945 8.0293 7.47314V10.271C8.0293 10.4647 8.18619 10.6216 8.37988 10.6216H12.4707C12.6644 10.6216 12.8213 10.4647 12.8213 10.271V7.47314C12.8213 7.27945 12.6644 7.12158 12.4707 7.12158H8.37988Z" fill="#00AAF3"/>
<path d="M15.9365 8.99509L17.8803 10.8682V14.8084C17.8803 15.3966 18.3571 15.8734 18.9453 15.8734V15.8734C19.5336 15.8734 20.0104 15.3966 20.0104 14.8084V9.46336V7.74014L17.8536 6.65372" stroke="#00AAF3" stroke-width="1.5" stroke-linecap="round" stroke-linejoin="round"/>
<path d="M18.9693 7.13581C19.039 7.09659 19.1657 7.07672 19.3535 7.16232C19.5401 7.24743 19.7457 7.42304 19.8998 7.68371C20.0538 7.94437 20.1066 8.20617 20.0888 8.40662C20.0708 8.60833 19.9898 8.70563 19.9202 8.74499C19.8505 8.78428 19.7239 8.80416 19.5359 8.71849C19.3493 8.63339 19.1438 8.45786 18.9897 8.19709C18.8356 7.9363 18.7827 7.67466 18.8006 7.47418C18.8187 7.27229 18.8996 7.1751 18.9693 7.13581Z" stroke="#00AAF3" stroke-width="0.956498"/>
</svg>
