<svg width="24" height="24" viewBox="0 0 24 24" fill="none" xmlns="http://www.w3.org/2000/svg">
<rect x="8.02881" y="7.12198" width="4.79281" height="3.74619" rx="0.350716" stroke="#657989" stroke-width="1.5"/>
<path d="M13.5439 3.95264C15.0147 3.95264 16.207 5.14499 16.207 6.61572V16.4624L17.0098 16.6313C17.5195 16.7381 17.8846 17.1878 17.8848 17.7085V18.9468C17.8845 19.5544 17.3919 20.0473 16.7842 20.0474H4.06543C3.45788 20.0471 2.96508 19.5543 2.96484 18.9468V17.7085C2.96504 17.1889 3.32916 16.7384 3.83984 16.6313L4.64258 16.4624V6.61572C4.64258 5.14499 5.83494 3.95264 7.30566 3.95264H13.5439ZM7.30566 5.45264C6.66336 5.45264 6.14258 5.97342 6.14258 6.61572V17.0728L6.13867 17.1499C6.13755 17.1609 6.13342 17.1713 6.13184 17.1821C6.12848 17.2049 6.12454 17.2273 6.11914 17.2495C6.11282 17.2756 6.10468 17.3007 6.0957 17.3257C6.08899 17.3443 6.08138 17.3624 6.07324 17.3804C6.0624 17.4043 6.05031 17.4272 6.03711 17.4497C6.02586 17.469 6.01486 17.4882 6.00195 17.5063C5.98885 17.5247 5.97463 17.542 5.95996 17.5591C5.94452 17.5772 5.92925 17.5952 5.91211 17.6118C5.89475 17.6285 5.87535 17.6427 5.85645 17.6577C5.83859 17.6719 5.82098 17.6861 5.80176 17.6987C5.78014 17.7129 5.75747 17.7249 5.73438 17.7368C5.71501 17.7468 5.6962 17.7578 5.67578 17.7661C5.66873 17.769 5.66146 17.7713 5.6543 17.7739C5.6194 17.7869 5.58345 17.7993 5.5459 17.8071C5.2195 17.8755 4.80159 17.9622 4.46484 18.0327V18.5474H16.3848V18.0327L15.3037 17.8071C15.2156 17.7886 15.1357 17.7534 15.0635 17.7085C15.0543 17.7028 15.044 17.6989 15.0352 17.6929C15.0073 17.6738 14.9828 17.6508 14.958 17.6284C14.9468 17.6184 14.9344 17.6098 14.9238 17.5991C14.9081 17.5831 14.8951 17.5647 14.8809 17.5474C14.8641 17.527 14.8457 17.5079 14.8311 17.4858C14.8258 17.4778 14.8223 17.4687 14.8174 17.4604C14.7485 17.3471 14.707 17.2151 14.707 17.0728V6.61572C14.707 5.97342 14.1862 5.45264 13.5439 5.45264H7.30566Z" fill="#657989"/>
<path d="M15.9365 8.99509L17.8803 10.8682V14.8084C17.8803 15.3966 18.3571 15.8734 18.9453 15.8734V15.8734C19.5336 15.8734 20.0104 15.3966 20.0104 14.8084V9.46336V7.74014L17.8536 6.65372" stroke="#657989" stroke-width="1.5" stroke-linecap="round" stroke-linejoin="round"/>
<path d="M18.9693 7.13581C19.039 7.09659 19.1657 7.07672 19.3535 7.16232C19.5401 7.24743 19.7457 7.42304 19.8998 7.68371C20.0538 7.94437 20.1066 8.20617 20.0888 8.40662C20.0708 8.60833 19.9898 8.70563 19.9202 8.74499C19.8505 8.78428 19.7239 8.80416 19.5359 8.71849C19.3493 8.63339 19.1438 8.45786 18.9897 8.19709C18.8356 7.9363 18.7827 7.67466 18.8006 7.47418C18.8187 7.27229 18.8996 7.1751 18.9693 7.13581Z" stroke="#657989" stroke-width="0.956498"/>
</svg>
