<svg width="52" height="52" viewBox="0 0 52 52" fill="none" xmlns="http://www.w3.org/2000/svg">
<path d="M35.1758 3C37.8609 3.0001 40.0379 5.17721 40.0381 7.8623V41.7891L43.6064 42.5586C44.4867 42.7486 45.1161 43.5272 45.1162 44.4277V49.0684C45.116 50.124 44.2597 50.9799 43.2041 50.9805H3.91211C2.85616 50.9804 1.99919 50.1243 1.99902 49.0684V44.4277C1.99918 43.5279 2.62755 42.7486 3.50879 42.5586L7.07617 41.7891V7.8623C7.07635 5.17715 9.25328 3 11.9385 3H35.1758ZM11.9385 5.5C10.634 5.5 9.57635 6.55786 9.57617 7.8623V41.5488H37.5381V7.8623C37.5379 6.55792 36.4802 5.5001 35.1758 5.5H11.9385Z" fill="#FF4545"/>
<path d="M43.0002 10.3301L49.5277 13.7156V19.0856V35.8374C49.5277 37.6177 48.0845 39.0609 46.3042 39.0609V39.0609C44.524 39.0609 43.0808 37.6177 43.0808 35.8374V23.4634L38.8291 19.0856" stroke="#FF4545" stroke-width="2.5" stroke-linecap="round" stroke-linejoin="round"/>
<path d="M46.029 12.6018C46.1781 12.5153 46.5134 12.458 47.066 12.7606C47.6009 13.0536 48.1897 13.6199 48.6476 14.4179C49.1054 15.2157 49.2982 16.0113 49.283 16.6237C49.2673 17.2564 49.0503 17.5199 48.9013 17.6066C48.7524 17.6931 48.4172 17.7505 47.8643 17.4477C47.3295 17.1548 46.7403 16.5896 46.2823 15.7917C45.8243 14.9937 45.632 14.1972 45.6473 13.5846C45.6631 12.9517 45.8801 12.6883 46.029 12.6018Z" fill="#FF4545" stroke="#FF4545" stroke-width="2"/>
<path d="M12.97 27.68L10.79 25.44L12.97 23.2H14.73L12.55 25.44L14.73 27.68H12.97ZM15.9998 23V21.71H18.4098V29H16.9698V23H15.9998ZM19.5929 25.26C19.5929 24.1067 19.7996 23.2033 20.2129 22.55C20.6329 21.8967 21.3262 21.57 22.2929 21.57C23.2596 21.57 23.9496 21.8967 24.3629 22.55C24.7829 23.2033 24.9929 24.1067 24.9929 25.26C24.9929 26.42 24.7829 27.33 24.3629 27.99C23.9496 28.65 23.2596 28.98 22.2929 28.98C21.3262 28.98 20.6329 28.65 20.2129 27.99C19.7996 27.33 19.5929 26.42 19.5929 25.26ZM23.6129 25.26C23.6129 24.7667 23.5796 24.3533 23.5129 24.02C23.4529 23.68 23.3262 23.4033 23.1329 23.19C22.9462 22.9767 22.6662 22.87 22.2929 22.87C21.9196 22.87 21.6362 22.9767 21.4429 23.19C21.2562 23.4033 21.1296 23.68 21.0629 24.02C21.0029 24.3533 20.9729 24.7667 20.9729 25.26C20.9729 25.7667 21.0029 26.1933 21.0629 26.54C21.1229 26.88 21.2496 27.1567 21.4429 27.37C21.6362 27.5767 21.9196 27.68 22.2929 27.68C22.6662 27.68 22.9496 27.5767 23.1429 27.37C23.3362 27.1567 23.4629 26.88 23.5229 26.54C23.5829 26.1933 23.6129 25.7667 23.6129 25.26ZM25.8577 25.26C25.8577 24.1067 26.0644 23.2033 26.4777 22.55C26.8977 21.8967 27.5911 21.57 28.5577 21.57C29.5244 21.57 30.2144 21.8967 30.6277 22.55C31.0477 23.2033 31.2577 24.1067 31.2577 25.26C31.2577 26.42 31.0477 27.33 30.6277 27.99C30.2144 28.65 29.5244 28.98 28.5577 28.98C27.5911 28.98 26.8977 28.65 26.4777 27.99C26.0644 27.33 25.8577 26.42 25.8577 25.26ZM29.8777 25.26C29.8777 24.7667 29.8444 24.3533 29.7777 24.02C29.7177 23.68 29.5911 23.4033 29.3977 23.19C29.2111 22.9767 28.9311 22.87 28.5577 22.87C28.1844 22.87 27.9011 22.9767 27.7077 23.19C27.5211 23.4033 27.3944 23.68 27.3277 24.02C27.2677 24.3533 27.2377 24.7667 27.2377 25.26C27.2377 25.7667 27.2677 26.1933 27.3277 26.54C27.3877 26.88 27.5144 27.1567 27.7077 27.37C27.9011 27.5767 28.1844 27.68 28.5577 27.68C28.9311 27.68 29.2144 27.5767 29.4077 27.37C29.6011 27.1567 29.7277 26.88 29.7877 26.54C29.8477 26.1933 29.8777 25.7667 29.8777 25.26ZM33.6826 27.89H35.9826V29H32.2826V22.02H33.6826V27.89Z" fill="#FF4545"/>
</svg>
