<svg width="52" height="52" viewBox="0 0 52 52" fill="none" xmlns="http://www.w3.org/2000/svg">
<path d="M35.1758 3C37.8609 3.0001 40.0379 5.17721 40.0381 7.8623V41.7891L43.6064 42.5586C44.4867 42.7486 45.1161 43.5272 45.1162 44.4277V49.0684C45.116 50.124 44.2597 50.9799 43.2041 50.9805H3.91211C2.85616 50.9804 2.00017 50.1243 2 49.0684V44.4277C2.00015 43.5279 2.62755 42.7486 3.50879 42.5586L7.07617 41.7891V7.8623C7.07635 5.17715 9.25328 3 11.9385 3H35.1758ZM11.9385 5.5C10.634 5.5 9.57635 6.55786 9.57617 7.8623V41.5488H37.5381V7.8623C37.5379 6.55792 36.4802 5.5001 35.1758 5.5H11.9385Z" fill="#2CD232"/>
<path d="M43.0002 10.3301L49.5277 13.7156V19.0856V35.8374C49.5277 37.6177 48.0845 39.0609 46.3042 39.0609V39.0609C44.524 39.0609 43.0808 37.6177 43.0808 35.8374V23.4634L38.8291 19.0856" stroke="#2CD232" stroke-width="2.5" stroke-linecap="round" stroke-linejoin="round"/>
<path d="M46.029 12.6018C46.1781 12.5153 46.5134 12.458 47.066 12.7606C47.6009 13.0536 48.1897 13.6199 48.6476 14.4179C49.1054 15.2157 49.2982 16.0113 49.283 16.6237C49.2673 17.2564 49.0503 17.5199 48.9013 17.6066C48.7524 17.6931 48.4172 17.7505 47.8643 17.4477C47.3295 17.1548 46.7403 16.5896 46.2823 15.7917C45.8243 14.9937 45.632 14.1972 45.6473 13.5846C45.6631 12.9517 45.8801 12.6883 46.029 12.6018Z" fill="#2CD232" stroke="#2CD232" stroke-width="2"/>
<rect x="8" y="9" width="31" height="35" fill="#2CD232"/>
<path d="M9.89 23.2H11.66L13.84 25.44L11.66 27.68H9.89L12.08 25.44L9.89 23.2ZM15.4438 27.42C16.0838 26.8867 16.5938 26.4433 16.9738 26.09C17.3538 25.73 17.6705 25.3567 17.9238 24.97C18.1772 24.5833 18.3038 24.2033 18.3038 23.83C18.3038 23.49 18.2238 23.2233 18.0638 23.03C17.9038 22.8367 17.6572 22.74 17.3238 22.74C16.9905 22.74 16.7338 22.8533 16.5538 23.08C16.3738 23.3 16.2805 23.6033 16.2738 23.99H14.9138C14.9405 23.19 15.1772 22.5833 15.6238 22.17C16.0772 21.7567 16.6505 21.55 17.3438 21.55C18.1038 21.55 18.6872 21.7533 19.0938 22.16C19.5005 22.56 19.7038 23.09 19.7038 23.75C19.7038 24.27 19.5638 24.7667 19.2838 25.24C19.0038 25.7133 18.6838 26.1267 18.3238 26.48C17.9638 26.8267 17.4938 27.2467 16.9138 27.74H19.8638V28.9H14.9238V27.86L15.4438 27.42ZM20.546 25.26C20.546 24.1067 20.7527 23.2033 21.166 22.55C21.586 21.8967 22.2793 21.57 23.246 21.57C24.2127 21.57 24.9027 21.8967 25.316 22.55C25.736 23.2033 25.946 24.1067 25.946 25.26C25.946 26.42 25.736 27.33 25.316 27.99C24.9027 28.65 24.2127 28.98 23.246 28.98C22.2793 28.98 21.586 28.65 21.166 27.99C20.7527 27.33 20.546 26.42 20.546 25.26ZM24.566 25.26C24.566 24.7667 24.5327 24.3533 24.466 24.02C24.406 23.68 24.2793 23.4033 24.086 23.19C23.8993 22.9767 23.6193 22.87 23.246 22.87C22.8727 22.87 22.5893 22.9767 22.396 23.19C22.2093 23.4033 22.0827 23.68 22.016 24.02C21.956 24.3533 21.926 24.7667 21.926 25.26C21.926 25.7667 21.956 26.1933 22.016 26.54C22.076 26.88 22.2027 27.1567 22.396 27.37C22.5893 27.5767 22.8727 27.68 23.246 27.68C23.6193 27.68 23.9027 27.5767 24.096 27.37C24.2893 27.1567 24.416 26.88 24.476 26.54C24.536 26.1933 24.566 25.7667 24.566 25.26ZM31.7109 22.92H28.4709V24.63C28.6109 24.4567 28.8109 24.3167 29.0709 24.21C29.3309 24.0967 29.6075 24.04 29.9009 24.04C30.4342 24.04 30.8709 24.1567 31.2109 24.39C31.5509 24.6233 31.7975 24.9233 31.9509 25.29C32.1042 25.65 32.1809 26.0367 32.1809 26.45C32.1809 27.2167 31.9609 27.8333 31.5209 28.3C31.0875 28.7667 30.4675 29 29.6609 29C28.9009 29 28.2942 28.81 27.8409 28.43C27.3875 28.05 27.1309 27.5533 27.0709 26.94H28.4309C28.4909 27.2067 28.6242 27.42 28.8309 27.58C29.0442 27.74 29.3142 27.82 29.6409 27.82C30.0342 27.82 30.3309 27.6967 30.5309 27.45C30.7309 27.2033 30.8309 26.8767 30.8309 26.47C30.8309 26.0567 30.7275 25.7433 30.5209 25.53C30.3209 25.31 30.0242 25.2 29.6309 25.2C29.3509 25.2 29.1175 25.27 28.9309 25.41C28.7442 25.55 28.6109 25.7367 28.5309 25.97H27.1909V21.69H31.7109V22.92ZM34.6064 27.89H36.9064V29H33.2064V22.02H34.6064V27.89Z" fill="white"/>
</svg>
