<svg width="52" height="52" viewBox="0 0 52 52" fill="none" xmlns="http://www.w3.org/2000/svg">
<path d="M35.1758 3C37.8609 3.0001 40.0379 5.17721 40.0381 7.8623V41.7891L43.6064 42.5586C44.4867 42.7486 45.1161 43.5272 45.1162 44.4277V49.0684C45.116 50.124 44.2597 50.9799 43.2041 50.9805H3.91211C2.85616 50.9804 2.00017 50.1243 2 49.0684V44.4277C2.00015 43.5279 2.62755 42.7486 3.50879 42.5586L7.07617 41.7891V7.8623C7.07635 5.17715 9.25328 3 11.9385 3H35.1758ZM11.9385 5.5C10.634 5.5 9.57635 6.55786 9.57617 7.8623V41.5488H37.5381V7.8623C37.5379 6.55792 36.4802 5.5001 35.1758 5.5H11.9385Z" fill="#FF982F"/>
<path d="M43.0002 10.3301L49.5277 13.7156V19.0856V35.8374C49.5277 37.6177 48.0845 39.0609 46.3042 39.0609V39.0609C44.524 39.0609 43.0808 37.6177 43.0808 35.8374V23.4634L38.8291 19.0856" stroke="#FF982F" stroke-width="2.5" stroke-linecap="round" stroke-linejoin="round"/>
<path d="M46.029 12.6018C46.1781 12.5153 46.5134 12.458 47.066 12.7606C47.6009 13.0536 48.1897 13.6199 48.6476 14.4179C49.1054 15.2157 49.2982 16.0113 49.283 16.6237C49.2673 17.2564 49.0503 17.5199 48.9013 17.6066C48.7524 17.6931 48.4172 17.7505 47.8643 17.4477C47.3295 17.1548 46.7403 16.5896 46.2823 15.7917C45.8243 14.9937 45.632 14.1972 45.6473 13.5846C45.6631 12.9517 45.8801 12.6883 46.029 12.6018Z" fill="#FF982F" stroke="#FF982F" stroke-width="2"/>
<rect x="8" y="23" width="31" height="21" fill="#FF982F"/>
<path d="M13.97 32.42C14.61 31.8867 15.12 31.4433 15.5 31.09C15.88 30.73 16.1967 30.3567 16.45 29.97C16.7033 29.5833 16.83 29.2033 16.83 28.83C16.83 28.49 16.75 28.2233 16.59 28.03C16.43 27.8367 16.1833 27.74 15.85 27.74C15.5167 27.74 15.26 27.8533 15.08 28.08C14.9 28.3 14.8067 28.6033 14.8 28.99H13.44C13.4667 28.19 13.7033 27.5833 14.15 27.17C14.6033 26.7567 15.1767 26.55 15.87 26.55C16.63 26.55 17.2133 26.7533 17.62 27.16C18.0267 27.56 18.23 28.09 18.23 28.75C18.23 29.27 18.09 29.7667 17.81 30.24C17.53 30.7133 17.21 31.1267 16.85 31.48C16.49 31.8267 16.02 32.2467 15.44 32.74H18.39V33.9H13.45V32.86L13.97 32.42ZM19.0722 30.26C19.0722 29.1067 19.2789 28.2033 19.6922 27.55C20.1122 26.8967 20.8055 26.57 21.7722 26.57C22.7389 26.57 23.4289 26.8967 23.8422 27.55C24.2622 28.2033 24.4722 29.1067 24.4722 30.26C24.4722 31.42 24.2622 32.33 23.8422 32.99C23.4289 33.65 22.7389 33.98 21.7722 33.98C20.8055 33.98 20.1122 33.65 19.6922 32.99C19.2789 32.33 19.0722 31.42 19.0722 30.26ZM23.0922 30.26C23.0922 29.7667 23.0589 29.3533 22.9922 29.02C22.9322 28.68 22.8055 28.4033 22.6122 28.19C22.4255 27.9767 22.1455 27.87 21.7722 27.87C21.3989 27.87 21.1155 27.9767 20.9222 28.19C20.7355 28.4033 20.6089 28.68 20.5422 29.02C20.4822 29.3533 20.4522 29.7667 20.4522 30.26C20.4522 30.7667 20.4822 31.1933 20.5422 31.54C20.6022 31.88 20.7289 32.1567 20.9222 32.37C21.1155 32.5767 21.3989 32.68 21.7722 32.68C22.1455 32.68 22.4289 32.5767 22.6222 32.37C22.8155 32.1567 22.9422 31.88 23.0022 31.54C23.0622 31.1933 23.0922 30.7667 23.0922 30.26ZM30.237 27.92H26.997V29.63C27.137 29.4567 27.337 29.3167 27.597 29.21C27.857 29.0967 28.1337 29.04 28.427 29.04C28.9604 29.04 29.397 29.1567 29.737 29.39C30.077 29.6233 30.3237 29.9233 30.477 30.29C30.6304 30.65 30.707 31.0367 30.707 31.45C30.707 32.2167 30.487 32.8333 30.047 33.3C29.6137 33.7667 28.9937 34 28.187 34C27.427 34 26.8204 33.81 26.367 33.43C25.9137 33.05 25.657 32.5533 25.597 31.94H26.957C27.017 32.2067 27.1504 32.42 27.357 32.58C27.5704 32.74 27.8404 32.82 28.167 32.82C28.5604 32.82 28.857 32.6967 29.057 32.45C29.257 32.2033 29.357 31.8767 29.357 31.47C29.357 31.0567 29.2537 30.7433 29.047 30.53C28.847 30.31 28.5504 30.2 28.157 30.2C27.877 30.2 27.6437 30.27 27.457 30.41C27.2704 30.55 27.137 30.7367 27.057 30.97H25.717V26.69H30.237V27.92ZM33.1326 32.89H35.4326V34H31.7326V27.02H33.1326V32.89Z" fill="white"/>
<path d="M11.36 15V13.71H13.77V21H12.33V15H11.36ZM14.953 17.26C14.953 16.1067 15.1597 15.2033 15.573 14.55C15.993 13.8967 16.6864 13.57 17.653 13.57C18.6197 13.57 19.3097 13.8967 19.723 14.55C20.143 15.2033 20.353 16.1067 20.353 17.26C20.353 18.42 20.143 19.33 19.723 19.99C19.3097 20.65 18.6197 20.98 17.653 20.98C16.6864 20.98 15.993 20.65 15.573 19.99C15.1597 19.33 14.953 18.42 14.953 17.26ZM18.973 17.26C18.973 16.7667 18.9397 16.3533 18.873 16.02C18.813 15.68 18.6864 15.4033 18.493 15.19C18.3064 14.9767 18.0264 14.87 17.653 14.87C17.2797 14.87 16.9964 14.9767 16.803 15.19C16.6164 15.4033 16.4897 15.68 16.423 16.02C16.363 16.3533 16.333 16.7667 16.333 17.26C16.333 17.7667 16.363 18.1933 16.423 18.54C16.483 18.88 16.6097 19.1567 16.803 19.37C16.9964 19.5767 17.2797 19.68 17.653 19.68C18.0264 19.68 18.3097 19.5767 18.503 19.37C18.6964 19.1567 18.823 18.88 18.883 18.54C18.943 18.1933 18.973 17.7667 18.973 17.26ZM21.2179 17.26C21.2179 16.1067 21.4246 15.2033 21.8379 14.55C22.2579 13.8967 22.9512 13.57 23.9179 13.57C24.8846 13.57 25.5746 13.8967 25.9879 14.55C26.4079 15.2033 26.6179 16.1067 26.6179 17.26C26.6179 18.42 26.4079 19.33 25.9879 19.99C25.5746 20.65 24.8846 20.98 23.9179 20.98C22.9512 20.98 22.2579 20.65 21.8379 19.99C21.4246 19.33 21.2179 18.42 21.2179 17.26ZM25.2379 17.26C25.2379 16.7667 25.2046 16.3533 25.1379 16.02C25.0779 15.68 24.9512 15.4033 24.7579 15.19C24.5712 14.9767 24.2912 14.87 23.9179 14.87C23.5446 14.87 23.2612 14.9767 23.0679 15.19C22.8812 15.4033 22.7546 15.68 22.6879 16.02C22.6279 16.3533 22.5979 16.7667 22.5979 17.26C22.5979 17.7667 22.6279 18.1933 22.6879 18.54C22.7479 18.88 22.8746 19.1567 23.0679 19.37C23.2612 19.5767 23.5446 19.68 23.9179 19.68C24.2912 19.68 24.5746 19.5767 24.7679 19.37C24.9612 19.1567 25.0879 18.88 25.1479 18.54C25.2079 18.1933 25.2379 17.7667 25.2379 17.26ZM29.0427 19.89H31.3427V21H27.6427V14.02H29.0427V19.89ZM31.6626 18.76C31.7759 18.1133 31.9859 17.6367 32.2926 17.33C32.5992 17.0233 32.9826 16.87 33.4426 16.87C33.6426 16.87 33.8226 16.9033 33.9826 16.97C34.1492 17.03 34.3259 17.12 34.5126 17.24C34.6659 17.3333 34.7959 17.4033 34.9026 17.45C35.0159 17.4967 35.1326 17.52 35.2526 17.52C35.4259 17.52 35.5692 17.4667 35.6826 17.36C35.8026 17.2533 35.8759 17.0933 35.9026 16.88H36.9426C36.8292 17.5267 36.6159 18.0033 36.3026 18.31C35.9959 18.6167 35.6126 18.77 35.1526 18.77C34.9526 18.77 34.7726 18.74 34.6126 18.68C34.4592 18.6133 34.2859 18.52 34.0926 18.4C33.9259 18.3067 33.7892 18.2367 33.6826 18.19C33.5826 18.1433 33.4726 18.12 33.3526 18.12C33.1792 18.12 33.0326 18.1767 32.9126 18.29C32.7926 18.3967 32.7159 18.5533 32.6826 18.76H31.6626Z" fill="#FF982F"/>
</svg>
