<svg width="32" height="20" viewBox="0 0 32 20" fill="none" xmlns="http://www.w3.org/2000/svg">
<mask id="path-1-inside-1_4023_8584" fill="white">
<path d="M0.583333 14.668C0.261167 14.668 3.42479e-08 14.4068 7.64949e-08 14.0846L1.14742e-06 5.91797C1.18967e-06 5.5958 0.261168 5.33464 0.583335 5.33464L2.33333 5.33464L2.33333 14.668L0.583333 14.668Z"/>
</mask>
<path d="M0.583333 14.668C0.261167 14.668 3.42479e-08 14.4068 7.64949e-08 14.0846L1.14742e-06 5.91797C1.18967e-06 5.5958 0.261168 5.33464 0.583335 5.33464L2.33333 5.33464L2.33333 14.668L0.583333 14.668Z" fill="#FF4545" stroke="#FF4545" stroke-width="2.33333" mask="url(#path-1-inside-1_4023_8584)"/>
<mask id="path-2-inside-2_4023_8584" fill="white">
<rect x="3" y="2" width="29" height="16" rx="1.16667"/>
</mask>
<rect x="3" y="2" width="29" height="16" rx="1.16667" stroke="#FF4545" stroke-width="3.5" mask="url(#path-2-inside-2_4023_8584)"/>
<path d="M17.1357 12.6162C17.3123 12.6162 17.4253 12.6685 17.5146 12.7578L17.5215 12.7656C17.6094 12.8499 17.6562 12.9488 17.6562 13.1006C17.6562 13.2486 17.6115 13.3541 17.5215 13.4473C17.4334 13.5316 17.3186 13.584 17.1357 13.584C16.945 13.584 16.8204 13.531 16.7246 13.4453C16.6357 13.3526 16.5918 13.2476 16.5918 13.1006C16.5918 12.9489 16.6378 12.8498 16.7256 12.7656C16.8231 12.672 16.9472 12.6162 17.1357 12.6162ZM17.4824 5.98047L17.3232 10.7764H16.875L16.7061 5.98047H17.4824Z" fill="#FF4545" stroke="#FF4545"/>
</svg>
