<svg xmlns="http://www.w3.org/2000/svg" width="20" height="20" fill="currentColor" viewBox="0 0 20 20"><circle cx="10" cy="10" r="10" fill="#fff"/><circle cx="10" cy="10" r="8" fill="#17A2E8"/><g clip-path="url(#a)"><path fill="#fff" d="M10 14.583a.416.416 0 0 1-.417-.416v-.417c-1.879-.067-3.75-.592-3.75-1.667 0-.32.175-.741.917-1.096a.833.833 0 0 1-.083-.362c0-.563.554-1.008 1.566-1.25a.416.416 0 1 1 .2.808c-.716.18-.92.417-.933.459-.013.041.058.083.142.137.036.013.07.033.1.058a4.64 4.64 0 0 0 1.841.413V9.112a1.667 1.667 0 1 1 .834 0v2.138a4.583 4.583 0 0 0 1.829-.417.414.414 0 0 1 .104-.062c.089-.059.139-.109.15-.15 0-.038-.217-.263-.933-.442a.416.416 0 1 1 .187-.812c1.013.25 1.567.7 1.567 1.25 0 .125-.029.25-.084.362.742.354.917.775.917 1.096 0 1.067-1.87 1.592-3.75 1.667v.416a.417.417 0 0 1-.404.425Zm.417-2.5v.834c1.916-.071 2.916-.625 2.916-.834 0-.037-.141-.258-.779-.475a5.738 5.738 0 0 1-2.137.475Zm-2.971-.479c-.638.22-.78.442-.78.48 0 .2 1 .753 2.917.833v-.834a5.656 5.656 0 0 1-2.137-.479Z"/></g><defs><clipPath id="a"><path fill="#fff" d="M5 5h10v10H5z"/></clipPath></defs></svg>